<svg width="4" height="5" viewBox="0 0 4 5" fill="none" xmlns="http://www.w3.org/2000/svg">
<path d="M1.56152 0V4.29492H0.881836V0.832031C0.758789 0.919922 0.625977 0.995117 0.483398 1.05762C0.342773 1.11816 0.181641 1.17188 0 1.21875V0.638672C0.113281 0.601562 0.222656 0.5625 0.328125 0.521484C0.433594 0.480469 0.537109 0.43457 0.638672 0.383789C0.742188 0.333008 0.845703 0.276367 0.949219 0.213867C1.05469 0.151367 1.16309 0.0800781 1.27441 0H1.56152Z" fill="white"/>
<path d="M3.97559 0V4.29492H3.2959V0.832031C3.17285 0.919922 3.04004 0.995117 2.89746 1.05762C2.75684 1.11816 2.5957 1.17188 2.41406 1.21875V0.638672C2.52734 0.601562 2.63672 0.5625 2.74219 0.521484C2.84766 0.480469 2.95117 0.43457 3.05273 0.383789C3.15625 0.333008 3.25977 0.276367 3.36328 0.213867C3.46875 0.151367 3.57715 0.0800781 3.68848 0H3.97559Z" fill="white"/>
</svg>
