<svg width="47" height="76" viewBox="0 0 47 76" fill="none" xmlns="http://www.w3.org/2000/svg">
<path d="M13.3701 12.98C13.3701 14.96 13.3701 16.83 13.3701 18.8C12.6401 18.86 11.9201 18.91 11.1201 18.98C11.1201 21.12 11.1201 23.22 11.1201 25.37C11.7701 25.42 12.4801 25.48 13.2501 25.54C13.2701 25.79 13.3001 26.05 13.3001 26.3C13.3501 28.07 13.3901 29.85 13.4501 31.62C13.4601 31.91 13.3401 32.35 13.8501 32.37C14.3901 32.39 14.4001 31.94 14.4101 31.59C14.4801 29.84 14.5201 28.08 14.5701 26.33C14.5801 26.05 14.5701 25.77 14.5701 25.44C15.3301 25.38 16.0301 25.33 16.8001 25.27C16.8001 23.39 16.8001 21.56 16.8001 19.73C16.8001 19.16 16.4601 18.93 15.9601 18.89C15.5201 18.85 15.0701 18.84 14.6001 18.81C14.6001 16.86 14.6001 14.96 14.6001 13.02C20.3701 13.02 26.1201 13.02 31.9001 13.02C31.9001 14.94 31.9001 16.83 31.9001 18.81C31.3101 18.85 30.7301 18.86 30.1501 18.93C29.9801 18.95 29.7101 19.15 29.7101 19.27C29.6801 21.28 29.6901 23.3 29.6901 25.37C30.3201 25.42 31.0201 25.48 31.8001 25.54C31.8101 25.77 31.8301 26.01 31.8401 26.25C31.9201 28.02 31.9901 29.8 32.0801 31.57C32.0901 31.75 32.1201 31.94 32.2001 32.1C32.2501 32.2 32.4201 32.31 32.5301 32.31C32.6401 32.31 32.8001 32.19 32.8401 32.09C32.9201 31.89 32.9501 31.66 32.9601 31.43C33.0201 29.61 33.0801 27.8 33.1001 25.98C33.1101 25.53 33.2501 25.37 33.7001 25.37C34.1401 25.38 34.5901 25.31 35.1001 25.28C35.1001 24.58 35.1001 23.94 35.1001 23.29C35.1001 22 35.0901 20.72 35.1101 19.43C35.1101 19.06 34.9901 18.91 34.6301 18.91C34.1401 18.9 33.6601 18.85 33.1401 18.82C33.1401 16.79 33.1401 14.82 33.1401 12.8C33.3101 12.79 33.4801 12.76 33.6501 12.76C35.2601 12.76 36.8801 12.77 38.4901 12.75C38.8701 12.75 39.0401 12.88 39.2301 13.21C41.1201 16.63 41.8701 20.33 42.0101 24.19C42.0701 25.8 42.1601 27.41 42.2701 29.02C42.2901 29.25 42.4201 29.52 42.5801 29.7C42.9601 30.13 43.3501 30.55 43.8001 30.91C45.1101 31.97 45.5701 33.38 45.6901 34.99C46.0701 39.95 46.4701 44.91 46.8801 49.88C47.0201 51.57 46.6601 53.13 45.7301 54.54C45.4301 54.99 45.0201 55.38 44.5901 55.7C44.2601 55.95 44.1101 56.17 44.1101 56.59C44.1401 57.94 44.1201 59.28 44.1201 60.63C44.1201 60.83 44.1201 61.03 44.1201 61.26C30.4401 61.26 16.8101 61.26 3.14011 61.26C3.00011 59.91 2.84011 58.6 2.72011 57.28C2.65011 56.51 2.50011 55.97 1.61011 55.63C0.660111 55.28 -0.00988955 54.42 0.000110454 53.31C0.0301105 50.62 0.0401104 47.92 0.19011 45.23C0.38011 41.97 0.70011 38.72 0.97011 35.47C1.15011 33.31 2.03011 31.55 3.93011 30.39C4.46011 30.07 4.66011 29.66 4.72011 29.02C4.98011 26.14 5.24011 23.25 5.65011 20.39C6.01011 17.84 7.17011 15.54 8.36011 13.28C8.43011 13.15 8.62011 12.98 8.75011 12.98C10.2701 12.97 11.7901 12.98 13.3701 12.98ZM22.7001 58.47C22.7001 58.49 22.7001 58.51 22.7001 58.52C25.2501 58.45 27.8001 58.36 30.3401 58.33C32.4301 58.3 34.9201 56.16 34.7601 53.73C34.7301 53.34 34.7601 52.95 34.7201 52.57C34.3701 48.84 34.0501 45.1 33.6401 41.37C33.4801 39.88 33.2401 38.37 32.8101 36.94C32.2601 35.13 30.8501 33.94 29.0101 33.85C25.4501 33.67 21.8801 33.73 18.3101 33.75C17.1601 33.76 16.1601 34.22 15.3201 35.08C14.2901 36.14 13.7101 37.39 13.4901 38.8C13.0101 41.9 12.5501 45.01 12.1601 48.12C11.9201 50.02 11.7401 51.93 11.6501 53.84C11.5501 56.22 14.0801 58.39 16.3301 58.46C18.4501 58.51 20.5701 58.47 22.7001 58.47Z" fill="#03396D"/>
<path d="M3.41011 63.04C16.8001 63.04 30.1801 63.04 43.6501 63.04C43.5901 63.31 43.5801 63.47 43.5201 63.6C41.9301 67.19 39.9101 70.48 36.6401 72.79C35.5001 73.6 34.2201 74.21 32.9901 74.89C32.8101 74.99 32.5601 74.99 32.3401 74.99C26.2201 75 20.1001 75 13.9801 74.99C13.6901 74.99 13.3801 74.9 13.1001 74.79C10.0301 73.57 7.80011 71.4 6.21011 68.55C5.27011 66.86 4.41011 65.13 3.53011 63.41C3.46011 63.29 3.44011 63.15 3.41011 63.04Z" fill="#03396D"/>
<path d="M33.5401 0.11C33.5401 4.1 33.5401 8.03 33.5401 12C26.5301 12 19.5401 12 12.5201 12C12.5201 8.05 12.5201 4.1 12.5201 0.11C19.5101 0.11 26.5001 0.11 33.5401 0.11Z" fill="#03396D"/>
<path d="M35.0301 12.13C35.0301 8.06 35.0301 4.07 35.0301 0C36.4901 0.07 37.9301 0.13 39.3701 0.21C39.8401 0.24 40.3001 0.3 40.7701 0.38C43.0301 0.75 44.6901 2.57 44.8401 4.85C44.8801 5.42 44.8701 5.99 44.8901 6.56C44.9701 9.47 42.8301 11.71 40.1301 11.84C38.4501 11.92 36.7601 12.03 35.0301 12.13Z" fill="#03396D"/>
<path d="M11.2401 11.87C9.40011 11.79 7.58011 11.84 5.79011 11.61C3.30011 11.29 1.76011 9.34 1.62011 6.65C1.60011 6.2 1.61011 5.75 1.61011 5.3C1.65011 2.52 3.37011 0.5 6.13011 0.24C7.80011 0.08 9.50011 0.21 11.2401 0.21C11.2401 3.99 11.2401 7.85 11.2401 11.87Z" fill="#03396D"/>
<path d="M30.5501 24.21C30.5501 22.9 30.5501 21.62 30.5501 20.29C31.6901 20.29 32.8301 20.29 34.0101 20.29C34.0101 21.59 34.0101 22.88 34.0101 24.21C32.8501 24.21 31.7201 24.21 30.5501 24.21Z" fill="#03396D"/>
<path d="M12.2801 20.26C13.3701 20.26 14.4101 20.26 15.4801 20.26C15.4801 21.57 15.4801 22.86 15.4801 24.2C14.4101 24.2 13.3601 24.2 12.2801 24.2C12.2801 22.89 12.2801 21.6 12.2801 20.26Z" fill="#03396D"/>
<path d="M22.5101 41.64C22.5201 41.76 22.5401 41.86 22.5401 41.96C22.5701 42.95 22.5201 43 21.5401 43.01C21.2001 43.01 20.8601 43.01 20.4801 43.01C20.4801 44.65 20.4801 46.24 20.4801 47.89C21.1301 47.89 21.7901 47.89 22.5501 47.89C22.5501 48.49 22.5301 49.04 22.5601 49.58C22.5801 49.99 22.5801 50.41 22.7001 50.79C22.7701 51.02 23.0601 51.18 23.2501 51.37C23.3901 51.17 23.6201 50.98 23.6401 50.77C23.7401 50 23.7701 49.23 23.8301 48.45C23.8401 48.33 23.8701 48.21 23.9001 48.07C24.6201 48.01 25.3201 47.95 26.0601 47.89C26.0601 46.27 26.0601 44.69 26.0601 43.06C25.6301 43.02 25.2101 42.97 24.7901 42.93C23.8301 42.83 23.7701 42.76 23.9301 41.75C24.0801 41.74 24.2301 41.71 24.3901 41.71C26.8401 41.71 29.2901 41.72 31.7401 41.7C32.1801 41.7 32.3301 41.82 32.3701 42.27C32.6501 45.46 32.9901 48.65 33.2601 51.84C33.3401 52.81 33.3401 53.81 33.1801 54.76C33.0901 55.31 32.7001 55.9 32.2701 56.28C31.3701 57.07 30.3401 57.5 29.0501 57.47C25.0101 57.37 20.9701 57.39 16.9301 57.36C15.8701 57.35 14.9401 57.07 14.1701 56.28C13.3601 55.45 12.9201 54.56 13.0701 53.33C13.5501 49.61 13.9301 45.88 14.3401 42.15C14.3801 41.8 14.4501 41.59 14.8801 41.6C17.3301 41.62 19.7801 41.61 22.2301 41.61C22.3101 41.59 22.4001 41.62 22.5101 41.64Z" fill="#03396D"/>
<path d="M24.0001 40.09C24.0001 38.46 24.0001 36.79 24.0001 35.03C24.2401 35.03 24.4801 35.03 24.7101 35.03C25.7301 35.03 26.7501 35.03 27.7701 35.05C30.0301 35.09 31.6601 36.54 31.9601 38.78C32.0101 39.18 32.0201 39.59 32.0601 40.09C29.3501 40.09 26.6901 40.09 24.0001 40.09Z" fill="#03396D"/>
<path d="M22.7101 34.96C22.7101 36.74 22.7101 38.36 22.7101 40.03C20.0101 40.03 17.4001 40.03 14.7201 40.03C14.8701 38.3 15.2601 36.7 16.7801 35.64C17.0901 35.43 17.4801 35.25 17.8401 35.22C19.4601 35.1 21.0901 35.04 22.7101 34.96Z" fill="#03396D"/>
<path d="M21.6501 44.2C22.7301 44.2 23.7801 44.2 24.8601 44.2C24.8601 45.05 24.8601 45.85 24.8601 46.71C23.7901 46.71 22.7501 46.71 21.6501 46.71C21.6501 45.89 21.6501 45.08 21.6501 44.2Z" fill="#03396D"/>
</svg>
