<svg width="18" height="15" viewBox="0 0 18 15" fill="none" xmlns="http://www.w3.org/2000/svg">
<path d="M14.4 8.1V6.3H18V8.1H14.4ZM15.48 14.4L12.6 12.24L13.68 10.8L16.56 12.96L15.48 14.4ZM13.68 
3.6L12.6 2.16L15.48 0L16.56 1.44L13.68 3.6ZM2.7 13.5V9.9H1.8C1.305 9.9 0.8814 9.7236 0.5292 
9.3708C0.1764 9.0186 0 8.595 0 8.1V6.3C0 5.805 0.1764 5.3811 0.5292 5.0283C0.8814 4.6761 1.305 
4.5 1.8 4.5H5.4L9.9 1.8V12.6L5.4 9.9H4.5V13.5H2.7ZM10.8 10.215V4.185C11.205 4.545 11.5314 4.9839 
11.7792 5.5017C12.0264 6.0189 12.15 6.585 12.15 7.2C12.15 7.815 12.0264 8.3811 11.7792 8.8983C11.5314 
9.4161 11.205 9.855 10.8 10.215Z" fill="#03396D"/>
</svg>
