<svg width="1280" height="450" viewBox="0 0 1280 450" fill="none" xmlns="http://www.w3.org/2000/svg">
<mask id="mask0_29_98" style="mask-type:luminance" maskUnits="userSpaceOnUse" x="0" y="0" width="1280" height="450">
<path d="M1280 0H0V450H1280V0Z" fill="white"/>
</mask>
<g mask="url(#mask0_29_98)">
<path d="M1280 0H0V450H1280V0Z" fill="#03396D"/>
</g>
<mask id="mask1_29_98" style="mask-type:luminance" maskUnits="userSpaceOnUse" x="0" y="0" width="1280" height="450">
<path d="M1280 0H0V450H1280V0Z" fill="white"/>
</mask>
<g mask="url(#mask1_29_98)">
<path d="M361.15 65.2099C361.57 65.2799 361.75 64.3099 361.92 64.0499C362.27 63.5199 365.46 62.1999 364.99 61.7999C364.42 61.3199 363.36 61.3499 362.69 61.4399C362.01 61.5399 361.11 61.8399 360.77 62.4199C360.33 63.1799 360.35 64.2899 360.87 64.9999C360.97 65.1299 361.07 65.1999 361.15 65.2099Z" fill="#E8A393"/>
<path d="M366.75 60.9099C367.16 60.9899 368.92 61.6099 369.07 60.8699C369.25 59.9899 367.42 59.5599 366.88 59.6299C366.1 59.7299 365.31 59.5199 364.32 59.7799C363.54 59.9799 362.81 60.1799 362.02 60.3599C361.59 60.4599 361.25 60.7999 360.84 60.9699C360.51 61.1099 359.85 61.5399 359.3 61.5299C359.17 61.5299 358.94 61.4799 358.7 61.4299C358.67 61.5199 358.67 61.6199 358.64 61.7199C358.19 62.8999 357.74 63.8699 357.23 64.8999C357.79 64.9799 358.85 64.9599 359.2 64.9099C359.66 64.8299 359.97 64.9399 360.39 65.0799C360.76 65.2099 361.13 65.3499 361.49 65.4799C361.79 65.5899 362.82 66.1899 363.14 66.2499C363.42 66.2999 363.97 66.3799 364.15 65.9199C364.36 65.3899 363.93 65.0499 363.71 64.8599C363.32 64.5199 361.09 64.3699 361.34 63.6099C361.45 63.2699 361.77 62.9799 362 62.7199C362.28 62.4099 362.58 62.3299 362.95 62.2099C363.68 61.9699 364.45 61.8899 365.21 62.0099C365.69 62.0899 367.08 62.6199 367.49 62.3199C368.2 61.8099 367.58 61.3499 366.91 61.1199C366.75 61.0599 366.3 60.9599 366.13 60.8899C366.37 60.8799 366.59 60.8799 366.75 60.9099Z" fill="#FCD4CA"/>
<path d="M304.84 32.3199C307.93 29.4299 312.75 29.4699 316.07 32.0899C321.52 36.3899 331.66 44.3399 334.94 46.5399C339.5 49.5999 359.75 60.5499 359.75 60.5499L357.18 66.2399C357.18 66.2399 332.22 57.0599 328.62 54.5799C325.02 52.0999 304.33 41.4099 303.21 36.6299C302.82 34.9599 303.59 33.4899 304.84 32.3199Z" fill="#F35DAD"/>
<path d="M304.84 32.3199C307.93 29.4299 312.75 29.4699 316.07 32.0899C321.52 36.3899 331.66 44.3399 334.94 46.5399C339.5 49.5999 359.75 60.5499 359.75 60.5499L357.18 66.2399C357.18 66.2399 332.22 57.0599 328.62 54.5799C325.02 52.0999 304.33 41.4099 303.21 36.6299C302.82 34.9599 303.59 33.4899 304.84 32.3199Z" fill="#F685C3"/>
<path d="M304.84 32.3199C307.93 29.4299 312.75 29.4699 316.07 32.0899C321.52 36.3899 331.66 44.3399 334.94 46.5399C339.5 49.5999 359.75 60.5499 359.75 60.5499L357.18 66.2399C357.18 66.2399 332.22 57.0599 328.62 54.5799C325.02 52.0999 304.33 41.4099 303.21 36.6299C302.82 34.9599 303.59 33.4899 304.84 32.3199Z" fill="#E21983"/>
<path d="M659.82 406.34C685.534 406.34 706.38 402.011 706.38 396.67C706.38 391.329 685.534 387 659.82 387C634.106 387 613.26 391.329 613.26 396.67C613.26 402.011 634.106 406.34 659.82 406.34Z" fill="#6284A4"/>
<path d="M181.5 417.75C181.5 423.25 154.87 427.71 122.01 427.71C89.16 427.71 62.52 423.25 62.52 417.75C62.52 412.25 89.15 407.79 122.01 407.79C154.87 407.79 181.5 412.25 181.5 417.75Z" fill="#6284A4"/>
<path d="M514.9 447.79C567.594 447.79 610.31 443.604 610.31 438.44C610.31 433.276 567.594 429.09 514.9 429.09C462.207 429.09 419.49 433.276 419.49 438.44C419.49 443.604 462.207 447.79 514.9 447.79Z" fill="#6284A4"/>
<path d="M369.11 425.36C531.057 425.36 662.34 412.497 662.34 396.63C662.34 380.763 531.057 367.9 369.11 367.9C207.164 367.9 75.8801 380.763 75.8801 396.63C75.8801 412.497 207.164 425.36 369.11 425.36Z" fill="#6284A4"/>
<path d="M693.51 237.57L703.5 259.75C703.5 259.75 700.57 263.04 699.6 262.31C698.63 261.58 683.63 243.58 682.17 242.65C680.72 241.71 693.51 237.57 693.51 237.57Z" fill="#729DE2"/>
<path d="M685.39 245.55C687.7 244.27 690.33 243.99 692.78 243.08C693.73 242.72 694.62 242.33 695.51 241.99L693.52 237.57C693.52 237.57 680.72 241.71 682.19 242.65C682.53 242.87 683.65 244.06 685.14 245.73C685.22 245.67 685.29 245.6 685.39 245.55Z" fill="#407AD8"/>
<path d="M668.73 240.33C668.73 240.33 668.77 246.71 672.67 248.17C672.67 248.17 692.66 239.89 696.68 239.09C700.7 238.29 715.33 238.17 715.33 238.17L700.58 211.84C700.58 211.84 693.51 225.98 687.05 230.61C680.6 235.25 668.73 240.33 668.73 240.33Z" fill="#FFD066"/>
<path d="M681.7 244.51C683.28 243.88 684.93 243.23 686.56 242.61C684.11 239.85 682.84 236.01 682.35 233.59C680.83 234.46 679.26 235.3 677.74 236.07C678.42 239.53 679.88 242.4 681.7 244.51Z" fill="#110239"/>
<path d="M720.78 218.62C724.94 228.66 723.47 238.81 717.49 241.29C711.51 243.77 703.29 237.64 699.13 227.6C694.97 217.56 696.44 207.41 702.42 204.93C708.39 202.45 716.61 208.58 720.78 218.62Z" fill="#FEE08D"/>
<path d="M719.97 218.96C723.51 227.5 722.26 236.14 717.17 238.25C712.08 240.36 705.09 235.14 701.55 226.6C698.01 218.06 699.26 209.42 704.35 207.31C709.43 205.2 716.43 210.41 719.97 218.96Z" fill="#110239"/>
<path d="M692.16 253.03C691.79 252.81 691.9 251.43 691.97 251.07C692.09 250.51 692.47 249.78 692.09 249.24C691.4 248.29 690.44 250.84 690.31 251.21C690.07 251.92 689.98 252.4 690.13 252.91C690.26 253.33 691.02 254.66 691.61 255.14C691.54 255.39 691.46 255.66 691.36 255.94C692.09 256.27 692.5 256.47 693.22 256.88C693.96 257.31 693.93 257.84 694.62 258.32L695.32 256.72C695.02 256.35 692.77 253.4 692.16 253.03Z" fill="#FCD4CA"/>
<path d="M698.59 246.15C697.92 245.43 696.89 245.71 696.08 246.3C695.49 246.73 693.8 248.1 694.25 249.09C694.63 249.92 696.81 248.09 696.81 248.09C696.01 248.78 694.51 249.33 694.89 250.03C695.31 250.8 697.21 249.7 697.63 249.4C697.2 249.51 695.08 250.8 695.93 251.47C696.51 251.93 698.08 250.96 698.55 250.63C697.92 250.82 697.07 251.38 697.23 252.25C697.5 252.73 698.45 252.41 698.98 252.2C699.78 251.88 700.53 251.75 700.59 250.76C700.6 250.57 700.63 250.42 700.62 250.22C700.59 249.5 700.26 248.69 699.92 248.07C699.54 247.37 699.1 246.7 698.59 246.15Z" fill="#FCD4CA"/>
<path d="M658.21 227.95C658.21 227.95 650.49 224.22 644.64 228.45C638.79 232.68 639.03 240.47 639.19 245.34C639.35 250.22 637.73 252.82 634.31 256.23C630.9 259.64 630.57 262.41 632.36 269.56C634.15 276.71 635.56 280.72 632.13 283.92C628.37 287.43 624.73 296.38 633.01 303.04C641.3 309.7 652.59 308.33 660.15 307.92C664.37 307.69 670.27 307.43 673.59 304.45C676.97 301.42 679.54 298.23 677.91 293.41C677.26 291.5 676.33 289.69 675.73 287.76C675.15 285.89 675.27 284.37 675.36 282.49C675.48 280.17 676.35 278.06 676.46 275.75C676.58 273.34 676.31 271.06 676.02 268.74C675.7 266.17 675.1 264.22 674.1 261.86C672.15 257.3 666.92 254.97 665.79 249.82C665.1 246.69 664.74 243.76 664.92 240.71C665.33 233.81 662.03 229.27 658.21 227.95Z" fill="#110239"/>
<path d="M646.88 385.27C646.88 385.27 646.72 389.59 647.45 391.63C648.18 393.66 653.4 396.77 653.4 396.77C653.4 396.77 648.68 397.68 646.86 396.28C645.05 394.88 640.74 387.55 641.02 386.59C641.3 385.63 642.6 382.69 642.6 382.69L646.88 385.27Z" fill="#FCD4CA"/>
<path d="M675.01 384.86C675.01 384.86 674.85 389.18 675.58 391.22C676.31 393.25 681.53 396.36 681.53 396.36C681.53 396.36 676.81 397.27 674.99 395.87C673.18 394.47 668.87 387.14 669.15 386.18C669.43 385.22 670.73 382.28 670.73 382.28L675.01 384.86Z" fill="#FCD4CA"/>
<path d="M642.1 385.27C642.1 385.27 638.14 386.59 639.13 390.06C640.12 393.53 639.96 397.98 639.96 397.98H641.12C641.12 397.98 641.37 393.03 642.11 393.19C642.85 393.36 644.5 397.98 646.15 397.98C647.8 397.98 655.48 397.98 655.48 397.98C655.48 397.98 656.47 396.99 655.48 396.41C654.49 395.83 648.17 396.08 647.45 394.68C646.73 393.27 642.1 385.27 642.1 385.27Z" fill="#110239"/>
<path d="M670.46 384.75C670.46 384.75 666.5 386.07 667.49 389.54C668.48 393.01 668.32 397.46 668.32 397.46H669.48C669.48 397.46 669.73 392.51 670.47 392.67C671.21 392.83 672.86 397.46 674.51 397.46C676.16 397.46 683.84 397.46 683.84 397.46C683.84 397.46 684.83 396.47 683.84 395.89C682.85 395.31 676.53 395.56 675.81 394.16C675.08 392.76 670.46 384.75 670.46 384.75Z" fill="#110239"/>
<path d="M649.1 243.37C649.1 243.37 652.78 257.73 650.68 258.86C650.68 258.86 658.2 274.46 661.53 273.73C664.86 273 663.11 259.69 663.11 259.69C663.11 259.69 661.97 259.5 660.54 258.21C659.9 257.64 658.52 256.68 658.33 255.74C657.7 252.65 657.54 248.79 657.54 248.79L649.1 243.37Z" fill="#FCD4CA"/>
<path d="M655.4 267.18C654.22 265.6 653.27 263.3 653.54 261.29C653.93 258.3 655.53 256.16 658.21 255.06C657.68 252.11 657.54 248.78 657.54 248.78L649.11 243.37C649.11 243.37 652.79 257.73 650.69 258.86C650.69 258.86 658.21 274.46 661.54 273.73C662.41 273.54 662.92 272.49 663.22 271.06C660.03 271.63 657.26 269.66 655.4 267.18Z" fill="#E8A393"/>
<path d="M613.01 251.8C612.63 251.22 612.35 250.56 612.12 249.9C611.92 249.33 611.78 248.75 611.58 248.18C611.39 247.63 611.17 247.09 611.2 246.5C611.22 246.13 611.31 245.83 611.41 245.47C611.52 245.03 611.68 244.61 611.77 244.17C611.85 243.78 611.81 243.39 611.89 243C612.03 242.27 612.2 241.49 612.57 240.84C612.86 240.33 613.18 239.91 613.56 239.48C613.76 239.25 613.91 239.05 614.15 238.85C614.37 238.67 614.59 238.47 614.69 238.19C614.82 237.8 614.62 237.44 614.23 237.34C613.54 237.17 612.46 237.48 612.05 238.06C611.47 238.86 611.2 239.84 610.55 240.61C608.57 242.97 606.72 240.19 604.41 239.2C603.75 238.91 602.76 238.2 602.18 237.76C601.77 237.45 600 235.77 599.16 236.21C598.54 236.53 599.75 237.95 600.33 238.29C600.56 238.43 602.54 240.03 602.79 240.11C602.21 240.01 600.69 239.01 599.48 238.06C598.61 237.38 597.76 236.7 597.28 237.09C595.81 238.29 601.57 241.04 602.02 241.3C601.54 241.34 597.03 238.15 596.6 239.32C596.37 239.97 597.3 240.61 598.07 241.02C599.03 241.54 600.64 241.91 601 242.2C600.32 242.43 597.34 240.4 597.33 241.64C597.33 242.45 599.18 243.06 599.88 243.27C600.6 243.49 602.71 244.93 603.38 245.24C605.61 246.3 606.53 246.18 607.41 247.51C607.97 248.36 608.97 252.85 609.78 254.56L613.01 251.8Z" fill="#FCD4CA"/>
<path d="M690.92 255.33C688.93 261.12 684.68 273.84 683.28 273.12C680.65 271.77 675.18 267.59 670.88 262.33C668.27 259.13 665.84 258.98 665.84 258.98L669.67 272.18C669.67 272.18 682.75 283.56 685.68 281.93C687.98 280.65 693.64 264.53 695.64 257.84C695.63 257.84 690.95 255.35 690.92 255.33Z" fill="#F685C3"/>
<path opacity="0.32" d="M677.09 275.25C674.74 272.2 673.3 269.64 670.91 266.63C669.7 265.1 668.66 263.48 667.68 261.83C667.14 261.22 666.62 260.61 666.12 259.97L669.66 272.18C669.66 272.18 682.43 283.28 685.55 281.96C682.87 280.23 679 277.73 677.09 275.25Z" fill="#D10056"/>
<path d="M665.83 258.98L660.54 258.2C660.54 258.2 663.24 269.66 661.21 269.58C659.18 269.5 651.28 257.44 651.28 257.44C651.28 257.44 646.27 259.53 643.37 261.38C643.37 261.38 644.48 270.64 643.83 271.86C643.83 271.86 645.94 277.79 647.32 280.55C648.7 283.31 648.89 298.68 648.89 298.68C648.89 298.68 653.82 301.52 659.91 301.52C666 301.52 667.84 298.96 667.84 298.96C667.84 298.96 667.87 281.37 668.61 279.86C669.34 278.36 672.92 272.62 669.83 267.11C668.19 264.19 665.83 258.98 665.83 258.98Z" fill="#F685C3"/>
<path opacity="0.32" d="M650.87 285.2C648.72 281.26 649.06 276.64 647.96 272.06C647.21 268.92 645.21 265.71 643.55 263.09C643.83 265.82 644.29 270.97 643.82 271.86C643.82 271.86 645.93 277.79 647.31 280.55C648.69 283.31 648.88 298.68 648.88 298.68C648.88 298.68 652.55 300.79 657.47 301.37C649.1 294.74 650.87 285.2 650.87 285.2Z" fill="#D10056"/>
<path opacity="0.32" d="M649.41 274.9C649.41 274.9 653.85 277.28 655.84 277.25C661.16 277.18 662.14 273.75 662.14 273.75C662.14 273.75 664.92 277.06 667.4 276.85C669.82 276.65 670.24 274.94 670.24 274.94C670.24 274.94 670.05 280.05 665.75 280.54C664.2 280.72 663.15 280.43 662.43 279.98C661.32 279.29 659.95 279.36 658.77 279.92C658.1 280.24 657.23 280.5 656.14 280.59C652.3 280.91 649.82 278.34 649.41 274.9Z" fill="#D10056"/>
<path d="M645.69 260.72C645.69 260.72 624.97 266.65 623.1 266.16C621.23 265.67 612.05 246.66 612.05 246.66L606.85 248.77C606.85 248.77 614.57 272.55 618.14 273.74C621.72 274.93 643.82 271.85 643.82 271.85C643.82 271.85 647.72 266.65 645.69 260.72Z" fill="#F685C3"/>
<path d="M652.83 232.26C652.83 232.26 658.03 230.19 660.46 233.49C662.89 236.79 661.9 239.44 662.42 241.07C662.94 242.7 662.69 250.88 660.59 251.97C658.76 252.91 654 252.18 651.31 249.55C649.02 247.31 648.41 248.24 646.78 245.8C642.7 239.65 648.53 231.71 652.83 232.26Z" fill="#FCD4CA"/>
<path d="M655.39 230.4C655.39 230.4 656.16 238.39 662.91 237.83C662.91 237.84 662.65 226.96 655.39 230.4Z" fill="#110239"/>
<path d="M649.89 250.3C649.9 250.15 650.27 249.2 650.3 248.66C649.65 247.91 648.88 246.83 648.45 246.77C647.28 246.59 645.44 244.27 646.67 243C647.96 241.68 649.2 242.87 649.67 243.89C649.74 244.05 649.96 244.21 650.2 244.32C650.4 243.77 651.14 239.1 653.42 238.43C661.21 236.12 655.98 229.95 655.98 229.95C643.12 227.52 642.34 245.09 645.55 248.57C647.3 250.46 648.84 250.58 649.89 250.3Z" fill="#110239"/>
<path d="M647.29 243C647.29 243 648.48 243 648.86 244.21C649.22 245.34 648.32 246.54 647.83 245.74C647.34 244.94 647.8 244.62 647.86 244.16C647.91 243.7 647.55 243.16 647.29 243Z" fill="#E8A393"/>
<path d="M667.84 298.59C667.84 298.59 656.74 302.49 648.7 298.59C648.7 298.59 643.83 302.68 643.06 311.03C642.82 313.6 642.94 316.7 643.39 320.41C643.95 325.06 645.3 337.23 644.46 344.74C643.22 355.74 639.81 385.4 639.81 385.4L647.46 386.59C647.46 386.59 654.49 350.32 655.32 345.57C656.15 340.82 658.83 321.51 658.83 321.51C658.83 321.51 663.59 336.44 664.82 343.67C665.01 344.78 668.4 385.67 668.4 385.67L675.82 385.62C675.82 385.62 675.41 340.2 675.41 342.59C675.39 343.56 673.38 311.95 667.84 298.59Z" fill="#0273DB"/>
<path d="M663.98 327.49C662.32 322.44 661.3 319.9 657.87 315.37C658.22 317.44 658.54 319.51 658.78 321.6C658.8 321.54 658.81 321.49 658.81 321.49C658.81 321.49 662.89 334.27 664.47 341.91C664.29 333.68 665.21 331.21 663.98 327.49Z" fill="#0053BD"/>
<path d="M709.41 225.07C708.39 221.93 705.33 220.11 702.56 221C701.62 221.31 700.84 221.9 700.26 222.67C700.58 223.96 701 225.28 701.54 226.59C702.48 228.85 703.66 230.86 704.98 232.58C705.4 232.56 705.83 232.51 706.25 232.37C709.02 231.48 710.43 228.21 709.41 225.07Z" fill="#F685C3"/>
<path d="M415.922 144.705C442.782 138.319 459.38 111.367 452.994 84.507C446.608 57.6464 419.657 41.0485 392.796 47.4344C365.936 53.8203 349.338 80.7718 355.724 107.632C362.11 134.493 389.061 151.091 415.922 144.705Z" fill="#FFD066"/>
<path d="M404.35 136.88C426.883 136.88 445.15 118.613 445.15 96.08C445.15 73.5468 426.883 55.28 404.35 55.28C381.817 55.28 363.55 73.5468 363.55 96.08C363.55 118.613 381.817 136.88 404.35 136.88Z" fill="#FEAC1A"/>
<path d="M399.49 75.0799C407.68 72.5499 416.27 73.0899 419.44 81.0199L406.22 86.3099C404.95 83.3399 401.62 83.9299 399.69 84.6999C398.48 85.1899 394.55 86.7599 395.52 89.1899C397.69 94.6199 419.8 79.2199 425.95 94.5899C429.64 103.81 423.8 110.13 415.19 114.31L419.68 123.87L411.61 127.1L408.16 117.04C399.6 119.47 390.41 118.67 387.09 110.38L400.31 105.09L400.42 105.38C401.95 109 406.31 108.08 408.38 107.25C410.38 106.45 414.26 104.73 413.2 102.09C410.94 96.4399 388.63 111.34 382.68 96.4799C379.25 87.8999 384.58 81.9499 392.51 77.9499L388.06 68.2899L396.13 65.0599L399.49 75.0799Z" fill="#FFD066"/>
<path d="M237.32 93.7999H187.31L100.49 181.32H156.75L237.32 93.7999Z" fill="#110239"/>
<path d="M545.95 93.7999H595.96L682.78 181.32H626.52L545.95 93.7999Z" fill="#110239"/>
<path d="M573.27 93.7999H210.01V396.63H573.27V93.7999Z" fill="#FFD066"/>
<path d="M279 280.28H255.64V207.57H279V280.28Z" fill="white"/>
<path d="M327.18 207.57C352.02 207.57 365.33 219.09 365.33 243.92C365.33 268.76 352.01 280.28 327.18 280.28H295.69V207.57H327.18ZM319.04 225V262.84H326.75C337 262.84 341.44 257.02 341.44 247.09V240.75C341.44 230.81 337 225 326.75 225H319.04Z" fill="white"/>
<path d="M377.89 280.28V207.57H440.77V225H401.24V235.04H435.06V251.73H401.24V262.83H441.51V280.26H377.89V280.28Z" fill="white"/>
<path d="M527.63 280.28H502.9L499.84 270.03H474.37L471.31 280.28H447.42L473.95 207.57H501.11L527.63 280.28ZM486.94 227.86L479.22 253.75H494.97L487.36 227.86H486.94Z" fill="white"/>
<path d="M219.36 126.84L221.93 119.12H337.23L334.77 126.84H219.36Z" fill="#110239"/>
<path d="M205.65 167.94L208.25 160.14H324.16L321.68 167.94H205.65Z" fill="#110239"/>
<path d="M236.7 85.74L239.27 78.02H354.57L352.11 85.74H236.7Z" fill="#110239"/>
<path d="M191.8 209.48L194.43 201.6H310.96L308.45 209.48H191.8Z" fill="#110239"/>
<path d="M177.8 251.47L180.46 243.51H297.62L295.08 251.47H177.8Z" fill="#110239"/>
<path d="M163.65 293.92L166.33 285.86H284.13L281.56 293.92H163.65Z" fill="#110239"/>
<path d="M149.34 336.83L152.06 328.68H270.49L267.9 336.83H149.34Z" fill="#110239"/>
<path d="M136.11 398.59H135.57C131.93 398.59 129.36 395.02 130.51 391.57L238.79 67.23C239.52 65.05 241.55 63.59 243.85 63.59H251.31L141.17 394.93C140.45 397.12 138.41 398.59 136.11 398.59Z" fill="#110239"/>
<path d="M253.39 398.59H252.8C249.19 398.59 246.62 395.08 247.72 391.63L351.25 67.29C351.96 65.08 354.01 63.58 356.33 63.58H356.44C360.05 63.58 362.62 67.09 361.52 70.53L258.47 394.87C257.77 397.08 255.71 398.59 253.39 398.59Z" fill="#110239"/>
<path d="M322.44 15.3799C322.5 15.5599 322.54 15.7299 322.61 15.9099C323.21 17.5199 323.85 19.1699 324.76 20.6299C325.31 21.5199 326.39 22.4199 326.82 23.2899C326.99 23.6399 327.19 23.9699 327.4 24.2799C325.99 26.3199 322.35 31.7299 321.46 34.0799C321.46 34.0799 314.58 30.3399 313.29 26.2899C313.3 26.2899 319.86 19.7099 322.44 15.3799Z" fill="#FCD4CA"/>
<path d="M320.85 29.0099C321.28 26.7599 321.04 24.2599 320.05 22.1699C319.71 21.4499 319.34 20.7799 318.92 20.1299C320.28 18.5099 321.58 16.8199 322.44 15.3799C322.5 15.5599 322.54 15.7299 322.61 15.9099C323.21 17.5199 323.85 19.1699 324.76 20.6299C325.31 21.5199 326.39 22.4199 326.82 23.2899C326.99 23.6399 327.19 23.9699 327.4 24.2799C325.99 26.3199 322.35 31.7299 321.46 34.0799C321.46 34.0799 320.28 33.4399 318.81 32.3999C319.84 31.5599 320.59 30.3899 320.85 29.0099Z" fill="#E8A393"/>
<path d="M301.73 150.29C301.73 150.29 301.94 158.08 303.16 159.15C304.38 160.21 319.88 160.68 321.21 159.26C322.54 157.84 321.76 155.45 318.43 154.52C314.86 153.53 313.12 154.5 310.88 153.57C308.64 152.64 309.24 149.12 309.24 149.12L301.73 150.29Z" fill="#110239"/>
<path d="M263.29 149.86C263.29 149.86 262.1 157.45 263.27 158.56C264.45 159.67 280.23 160.91 281.62 159.54C283.01 158.17 282.32 155.75 279.03 154.7C275.5 153.57 273.8 154.29 271.52 153.46C269.73 152.81 270.94 149.19 270.94 149.19L263.29 149.86Z" fill="#110239"/>
<path d="M274.75 106.18C274.41 84.62 276.87 69.8 277.99 62.86C280.57 62.96 283.15 63.18 285.73 64.36C290.46 66.51 295.22 68.58 299.97 70.65C296.11 78.63 287.66 104.7 286.64 110.15C285.37 116.93 271.19 151.54 271.19 151.54L262.61 150.46C262.75 144.89 274.78 108.05 274.75 106.18Z" fill="#729DE2"/>
<path d="M292.36 67.43C294.85 68.64 297.43 69.6 300.02 70.55C296.23 78.38 289.32 100.05 287.77 105.81C286.57 102.18 280.74 93.39 278.51 83.78C277.02 77.35 276.76 70.7 277.79 64.18C277.79 64.15 277.8 64.13 277.8 64.1C282.6 64.43 287.26 64.95 292.36 67.43Z" fill="#407AD8"/>
<path d="M285.94 66.2599C289.28 67.3899 295.37 69.0099 299.96 70.6499C303.16 78.7399 312.61 97.82 313.11 106.45C313.65 115.97 310.36 152.05 310.36 152.05H300.54C300.54 152.05 299.63 111.38 298.25 108.77C293.71 100.15 288.7 93.3299 285.86 87.9599C281.08 78.9699 279.46 73.1899 278.62 68.9799C278.25 67.1199 276.62 60.8899 279.78 58.9399C282.38 59.6899 283.14 65.3099 285.94 66.2599Z" fill="#729DE2"/>
<path d="M302.41 74.2999C302.41 74.2999 293.52 73.9199 286.45 69.8499C281.21 66.8299 278.42 65.46 276 62.28C276 62.28 291.56 37.1499 299.33 30.5299C307.1 23.9099 314.32 25.2499 314.32 25.2499C314.32 25.2499 318.08 30.5399 322.29 32.3799C322.29 32.3799 314.73 48.7299 311.44 55.1299C308.14 61.5299 302.41 74.2999 302.41 74.2999Z" fill="#F685C3"/>
<path d="M312.62 52.77C312.97 52.06 313.34 51.31 313.73 50.51C313.78 50.42 313.82 50.31 313.87 50.22C314.24 49.46 314.62 48.67 315.01 47.86C315.07 47.73 315.14 47.59 315.2 47.46C315.63 46.56 316.07 45.64 316.5 44.73C316.51 44.72 316.51 44.7 316.52 44.69C316.18 44.53 315.84 44.38 315.54 44.16C313.16 42.46 311.55 39.97 309.9 37.61C309.62 37.21 309.3 36.84 308.99 36.47C306.94 39.77 306.57 44.77 305.99 47.86C304.37 56.43 300.95 66.65 295.95 73.36C299.61 74.17 302.4 74.31 302.4 74.31C302.4 74.31 308.14 61.54 311.43 55.13C311.72 54.56 312.06 53.9 312.41 53.19C312.48 53.05 312.55 52.91 312.62 52.77Z" fill="#F35DAD"/>
<path d="M325.2 5.03992C325.2 5.03992 332.3 1.98992 335.45 5.11992C338.61 8.24992 340.28 10.6799 339.59 12.3599C338.91 14.0399 336.55 18.2499 336.26 20.3099C335.97 22.3699 336.31 25.7099 335.75 26.2699C335.19 26.8299 333.1 25.3699 332.78 25.5199C332.46 25.6699 327.65 29.0999 326.55 28.9399C325.46 28.7799 321.23 20.6599 321.9 17.8799C322.58 15.0999 321.95 8.17992 325.2 5.03992Z" fill="#FCD4CA"/>
<path d="M331.59 11.4999C331.9 11.8099 332.12 12.3799 332.34 12.6599C332.75 13.1799 333.22 13.6599 333.64 14.1699C334.48 15.2099 335.35 16.2299 336.62 16.7699C338.49 17.5599 339.27 15.7199 340.82 15.2999C341.57 15.0899 342.26 15.6999 343.09 15.4599C343.88 15.2399 344.64 14.5799 345.16 13.9699C346.47 12.4199 345.11 10.9799 344.19 9.6599C343.12 8.1199 343.7 7.2899 343.95 5.6799C344.57 1.6999 339.17 3.2499 337.56 1.4599C336.74 0.539904 336.29 -0.900094 334.96 -1.17009C333.8 -1.41009 332.67 -1.0401 331.55 -0.800098C330.39 -0.560098 330.11 -1.31009 329.06 -1.70009C328.29 -1.98009 327.18 -1.99009 326.36 -1.88009C324.52 -1.63009 322.53 -0.560096 321.6 1.0699C320.81 2.4599 321.2 3.9199 320.17 5.2099C319.35 6.2299 318.23 7.39991 317.92 8.71991C317.48 10.6399 318.88 12.1599 319.14 13.9599C319.39 15.6699 320.26 17.5099 321.86 18.3699C322.81 17.5599 324.08 15.9299 323.67 14.7599C323.51 14.2899 323.14 13.9099 322.99 13.0499C322.72 11.4799 324.94 10.0499 326.48 11.8299C327.41 12.8999 325.36 16.1999 326.92 16.7299C328.11 17.1399 328.33 14.7599 328.52 14.0599C328.78 13.1299 330.06 11.3199 331.16 11.3099C331.32 11.2899 331.47 11.3699 331.59 11.4999Z" fill="#110239"/>
<path d="M339.62 82.7599C340.07 82.7199 340.61 82.6199 340.77 82.6699C341.52 82.9199 342.77 82.5599 343.29 82.3599C344.48 81.9099 346.3 81.1199 347.53 81.3399C348.24 81.4699 352.52 82.4599 351.47 84.2099C351.33 84.4399 350.81 84.8099 350.66 84.7599C350.22 84.5999 348.99 84.1499 348.99 84.1499C348.99 84.1499 349.93 84.4899 350.13 84.6299C350.29 84.7499 350.61 84.8899 350.72 85.0599C350.95 85.4199 350.6 86.1999 350.23 86.3299C349.86 86.4599 349.58 86.0899 349.27 85.9199C349.28 85.9199 349.29 85.9299 349.29 85.9399C349.59 86.1699 350.23 86.3399 349.83 87.2399C349.38 88.2499 349.08 87.6099 348.65 87.4999C348.5 87.4599 348.34 87.3899 348.19 87.3199C348.35 87.4099 348.95 87.6999 349.07 87.8099C349.47 88.1699 348.59 89.3499 347.79 89.2499C347.3 89.1899 346.15 88.4899 345.88 88.5599C345.57 88.6499 345.21 88.6399 344.89 88.6699C343.92 88.7599 342.9 88.4999 342 88.0899C341.6 87.9099 340.8 87.5999 340.41 87.3799C339.42 86.8499 338.33 86.0099 338.03 85.7599C338.7 84.5099 339.75 84.1899 339.62 82.7599Z" fill="#FCD4CA"/>
<path d="M339.79 87.9099L343.92 81.7199C343.92 81.7199 332.8 66.2399 328.78 58.3199C324.76 50.3999 322.26 36.1099 317.97 33.8799C313.68 31.6499 308.3 32.6799 308.9 39.8399C309.5 46.9999 320.11 59.6599 321.93 63.3199C323.74 66.9699 337.6 85.5599 339.79 87.9099Z" fill="#F685C3"/>
<path d="M176.92 315.74C178.11 314.83 178.85 313.46 179.35 312C179.57 310.88 179.81 309.77 180.12 308.67C180.32 307.96 180.65 307.32 181.05 306.73C174.78 302.98 167.66 298.59 165.87 297.01C162.51 294.04 167.24 298.74 149.04 275.4L142.24 288.9C142.24 288.9 155.19 302.94 158.55 305.71C160.31 307.16 168.61 312.1 176.1 316.46C176.36 316.22 176.63 315.97 176.92 315.74Z" fill="#0273DB"/>
<path d="M176.92 315.74C178.11 314.83 178.85 313.46 179.35 312C179.57 310.88 179.81 309.77 180.12 308.67C180.13 308.63 180.15 308.6 180.16 308.57C178.95 309.17 177.47 309.25 175.93 308.43C172.14 306.39 168.42 304.41 165.02 302.03C162.97 300.79 161.03 299.32 159.22 297.61C156.06 294.62 152.94 291.48 150.26 288.06C148.83 286.23 146.84 284.76 145.18 283.08L142.24 288.91C142.24 288.91 155.19 302.95 158.55 305.72C160.31 307.17 168.61 312.11 176.1 316.47C176.36 316.22 176.63 315.97 176.92 315.74Z" fill="#0053BD"/>
<path d="M144.83 404.36C144.83 404.36 143.7 407.66 143.69 410.22C143.68 412.77 143.86 415.49 144.65 416.13C146.22 417.41 166.03 417.58 167.64 415.75C169.25 413.92 168.18 410.96 163.98 409.93C159.48 408.83 158.85 409.3 156.02 408.23C153.19 407.15 153.87 403.97 153.87 403.97L144.83 404.36Z" fill="#110239"/>
<path d="M101.37 400.64C101.37 400.64 99.1299 403.32 98.2099 405.71C97.2899 408.09 96.4899 410.7 96.9999 411.57C98.0099 413.33 116.46 420.54 118.62 419.41C120.78 418.27 120.83 415.12 117.27 412.67C113.46 410.04 112.7 410.26 110.44 408.24C108.18 406.23 109.95 403.5 109.95 403.5L101.37 400.64Z" fill="#110239"/>
<path d="M144.71 320.15L118.01 323.12C118.01 323.12 141.89 361.29 143.69 367.42C145.5 373.55 143.02 406.87 143.02 406.87H155.11C155.11 406.87 157.71 367.52 157.11 364.55C156.52 361.58 144.71 320.15 144.71 320.15Z" fill="#E21983"/>
<path d="M143.69 322.13H113.21C113.21 322.13 109.65 331.47 111.28 338.59C112.91 345.71 114 360.84 113.85 363.51C113.7 366.18 98.8201 401.78 98.8201 401.78L109.92 405.91C109.92 405.91 125.22 371.97 126.71 368.12C128.19 364.25 143.69 322.13 143.69 322.13Z" fill="#E21983"/>
<path d="M142.4 259.08C139.91 259.25 137.35 258.99 135.04 258.5C134.2 258.32 133.34 258.02 132.54 257.62C132.28 260.68 131.42 267.83 128.88 270.52C128.88 270.52 129.23 274.13 135.55 275.02C141.88 275.91 143.19 271.21 143.19 271.21C143.19 271.21 141.97 263.59 142.4 259.08Z" fill="#FCD4CA"/>
<path d="M128.91 270.63C128.92 270.69 128.94 270.78 128.98 270.89C128.98 270.9 128.99 270.91 128.99 270.92C129.03 271.03 129.07 271.17 129.14 271.31C129.14 271.32 129.15 271.32 129.15 271.33C129.22 271.48 129.31 271.65 129.42 271.82C129.43 271.84 129.45 271.87 129.47 271.89C129.7 272.25 130.03 272.64 130.5 273.03C130.53 273.05 130.55 273.07 130.58 273.1C130.81 273.29 131.08 273.48 131.38 273.66C131.42 273.68 131.46 273.71 131.5 273.73C131.82 273.91 132.17 274.09 132.57 274.25C132.97 272.67 133.77 271.17 135 269.98C137.16 267.87 139.81 266.82 142.65 266.72C142.4 264.27 142.21 261.3 142.42 259.08C139.93 259.25 137.37 258.99 135.06 258.5C134.22 258.32 133.36 258.02 132.56 257.62C132.3 260.68 131.44 267.83 128.9 270.52C128.9 270.52 128.91 270.56 128.91 270.6C128.9 270.6 128.9 270.62 128.91 270.63Z" fill="#E8A393"/>
<path d="M127.24 244.3C127.24 244.3 135.85 237.58 138.33 239.33C140.81 241.08 142.03 245 143.34 246.42C144.65 247.84 147.76 248.66 148.29 249.23C148.81 249.8 147.44 251.82 147.39 252.45C147.34 253.08 148.53 258.98 147.32 260.86C146.11 262.74 135.77 263.09 131.83 259.69C127.89 256.3 125.19 246.74 127.24 244.3Z" fill="#FCD4CA"/>
<path d="M143.2 270.14C143.2 270.14 135.76 273.84 129.72 269.39C129.72 269.39 118.22 271.4 116.81 271.97C115.64 272.45 118.72 288.82 117.38 297.05C116.05 305.28 110.71 325.23 110.71 325.23C110.71 325.23 124.8 336.06 148.98 329.23C148.98 329.23 149.77 301.26 149.51 293.49C149.13 282.12 149.05 275.39 149.05 275.39C149.05 275.39 146.27 272.57 143.2 270.14Z" fill="#0273DB"/>
<path d="M125.59 315.41C124.54 311.09 123.8 306.87 124.56 302.39C125.38 297.55 121.91 291.16 121.26 286.24C120.56 280.97 120.02 277.39 116.56 274.47C116.79 279.44 118.4 290.68 117.37 297.06C116.04 305.29 110.7 325.24 110.7 325.24C110.7 325.24 119.65 332.07 135.48 331.43C129.23 327.67 127.34 322.58 125.59 315.41Z" fill="#0053BD"/>
<path d="M90.97 345.08L125.5 381.54L209.14 305.35L175.3 269.24L90.97 345.08Z" fill="#F685C3"/>
<path d="M101.77 345.66L126.14 372.01L199.38 304.56L174.82 278.46L101.77 345.66Z" fill="white"/>
<path d="M183.5 297.29C185.31 301.23 183.58 305.89 179.63 307.7C175.69 309.51 171.03 307.78 169.22 303.83C167.41 299.89 169.14 295.23 173.09 293.42C177.04 291.62 181.7 293.35 183.5 297.29Z" fill="#F685C3"/>
<path d="M130.6 346.68C132.41 350.62 130.68 355.28 126.73 357.09C122.79 358.9 118.13 357.17 116.32 353.22C114.51 349.28 116.24 344.62 120.19 342.81C124.13 341.01 128.79 342.74 130.6 346.68Z" fill="#F685C3"/>
<path d="M164 319.44C166.83 326.99 163 335.4 155.45 338.22C147.9 341.05 139.49 337.22 136.67 329.67C133.84 322.12 137.67 313.71 145.22 310.89C152.77 308.06 161.18 311.89 164 319.44Z" fill="#F685C3"/>
<path d="M146.86 319.31C148.84 317.78 151.24 317.05 152.92 318.89L149.85 321.69C149.2 321.01 148.35 321.51 147.9 321.92C147.62 322.18 146.7 323.01 147.22 323.57C148.37 324.83 152.84 318.36 156.09 321.93C158.04 324.07 157.09 326.4 155.17 328.42L157.38 330.58L155.5 332.29L153.53 329.89C151.44 331.43 148.84 332.15 147.09 330.23L150.16 327.43L150.22 327.5C151.01 328.33 152.11 327.64 152.59 327.2C153.06 326.78 153.94 325.91 153.38 325.3C152.18 323.99 147.61 330.35 144.46 326.89C142.64 324.9 143.49 322.72 145.25 320.82L143.04 318.63L144.92 316.92L146.86 319.31Z" fill="white"/>
<path d="M132.01 243.8C132.01 243.8 133.25 246.07 132.97 249.24C132.85 250.63 136.98 252.59 136.72 254.31C136.55 255.46 135.67 255.53 134.22 253.96C133.72 253.42 132.85 253.26 132.11 253.23C129.32 253.14 130.2 256.99 132.76 257.23C134.55 257.4 135.16 261.53 135.16 261.53C134.04 263.4 128.14 264 127.19 259.9C126.59 257.29 126.38 256.28 125.28 256.02C123.28 255.55 120.06 253.33 121.62 249.75C123.78 244.82 120.1 244.98 123.8 242.34C127.52 239.71 131.9 240.88 132.01 243.8Z" fill="#110239"/>
<path d="M123.93 244.59C123.81 243.6 124.97 241.81 125.54 240.9C126.41 239.49 127.62 238.34 128.99 237.35C130.36 236.36 131.96 235.66 133.61 235.35C135.04 235.08 136.39 235.23 137.82 234.85C139.14 234.5 140.37 233.95 140.96 232.85C141.57 233.58 142.22 235.25 142.34 235.87C142.6 237.17 142.22 238.58 141.93 239.95C141.12 243.68 136.39 247.43 131.98 247.37C129.85 247.34 127.95 247.34 126.43 246.1C125.54 245.37 124.97 245.08 123.93 244.59Z" fill="#110239"/>
<path d="M201.26 294.67C202.86 292.73 202.05 289.61 200.78 287.86C199.76 286.45 198.04 286.74 195.49 287.09C193.77 287.32 192.17 287.62 191.76 288.18C190.75 290.52 196.38 289.29 197.88 289.3C197.88 289.3 191.76 289.89 191.49 291.05C191.04 293.22 196.52 291.89 197.94 291.8C196.56 291.73 194.14 292.24 193.84 292.59C192.78 292.85 193.17 293.61 193.34 293.78C194.17 294.64 198.67 293.61 198.67 293.61C197.87 293.79 194.8 293.85 195.69 295C196.27 295.75 197.56 295.51 198.27 295.51C199.64 295.52 200.89 295.11 201.26 294.67Z" fill="#FCD4CA"/>
<path d="M123.08 315.17C125.17 315.08 127.72 315.48 129.87 315.48C130.85 315.48 131.87 315.34 132.85 315.28C133.47 315.24 134.72 315.04 135.08 315.72C135.48 316.48 134.24 316.74 133.75 316.85C133.05 317 131.59 316.91 131.45 317.85C131.26 319.22 133.82 319.59 134.82 320.02C135.75 320.43 138.21 321.29 136.59 322.2C135.5 322.81 133.22 321.42 132.29 321.04C133.5 321.38 134.56 321.82 135.65 322.44C136.28 322.8 137.52 323.3 137.52 324.01C137.52 325.05 135.22 324.43 134.66 324.18C133.31 323.59 133.04 323.44 132.1 322.77C133.06 323.28 136.6 324.78 135.45 326.01C134.74 326.76 131.98 324.65 130.87 324.21C131.48 324.77 133.29 325.06 133.14 326.25C133.07 326.84 132.04 326.37 131.55 326.1C130.86 325.72 130.24 325.17 129.54 324.84C128.99 324.58 128.63 324.26 128.04 323.84C126.79 322.95 125.65 322.74 124.57 321.58C123.56 320.49 122.61 319.4 121.56 318.5C123.59 317.75 121.54 316.25 123.08 315.17Z" fill="#FCD4CA"/>
<path d="M126.14 314.62L123.17 321.48C123.17 321.48 92.5399 311.54 93.9799 303.5C95.2399 296.44 113.06 272.78 116.95 271.94C122.17 270.8 124.26 283.23 121.26 286.25C114.94 292.61 105.92 301.55 106.66 302.99C107.4 304.42 126.14 314.62 126.14 314.62Z" fill="#0273DB"/>
<path d="M493.53 337.52C493.45 337.55 493.38 337.58 493.3 337.6C492.73 337.76 492.11 337.83 491.5 337.81C490.32 337.76 489.2 337.37 488.03 337.21C487.62 337.15 487.19 337.13 486.78 337.11C486.04 337.07 483.41 337.48 482.74 337.63C481.33 337.94 481.16 337.98 479.77 338.36C479.12 338.54 478.19 339.14 477.55 339.37C476.58 339.72 476.3 341.07 477 341.07C477.53 341.07 477.51 341.12 477.99 340.8C478.46 340.49 480.25 339.78 480.25 339.78C479.66 339.91 478.43 340.44 477.99 340.8C477.53 341.17 476.96 341.3 476.69 341.89C476.6 342.08 476.39 342.16 476.33 342.42C476.27 342.68 476.3 342.95 476.48 343.15C476.74 343.44 477.09 343.38 477.42 343.27C478.2 343.02 478.89 342.51 479.56 342.06C480.18 341.65 480.63 341 481.31 340.67C480.31 341.15 479.32 342.16 478.51 342.89C478.19 343.18 477.52 343.72 477.16 343.97C476.71 344.28 476.43 345.21 477.13 345.64C477.74 346.01 478.79 345.33 479.19 344.95C479.73 344.44 480.58 343.9 481.08 343.38C481.32 343.13 481.54 342.91 481.81 342.7C482.29 342.31 482.68 341.89 483.2 341.57C483.2 341.57 481.04 343.41 480.25 344.37C479.86 344.84 479.31 345.53 479.7 346.1C480.39 347.14 481.43 346.2 481.88 345.78C482.5 345.22 483.18 344.79 483.78 344.19C484.7 343.27 485.76 342.53 486.88 341.87C487.43 341.54 488.11 341.69 488.7 341.48C488.41 341.8 487.92 341.82 487.61 342.11C487.23 342.46 486.87 342.76 486.42 343.07C485.92 343.43 485.46 343.86 485.3 344.46C485.15 345.04 485.09 345.66 485.79 345.81C486.82 346.02 487.63 345.27 488.36 344.67C489.18 344.01 489.99 343.23 491.09 343.11C491.52 343.06 491.98 343.11 492.41 343.11C493.58 343.11 494.66 343.25 495.84 343.04C496.66 342.89 497.33 342.47 497.75 341.76C498.09 341.16 498.46 340.62 498.66 339.96C498.72 339.75 499.39 337.91 499.58 337.97C498.19 337.52 497.12 336.52 495.81 335.93C495.22 335.66 494.99 336.21 494.7 336.57C494.44 336.92 493.98 337.32 493.53 337.52Z" fill="#FCD4CA"/>
<path d="M493.47 335.48L497.99 343.39C497.99 343.39 518.78 334.46 523.22 330.39C527.66 326.32 532.02 316.05 533.42 305.78C534.24 299.79 527.58 299.32 527.58 299.32C523.74 305.44 516.25 321.62 515.41 322.82C514.58 324.03 493.47 335.48 493.47 335.48Z" fill="#E21983"/>
<path d="M553.22 422.59C553.22 422.59 554.43 426.11 554.44 428.84C554.45 431.56 554.25 434.46 553.42 435.15C551.75 436.52 530.61 436.7 528.89 434.74C527.17 432.79 528.32 429.63 532.79 428.54C537.59 427.37 539.88 428.74 542.9 427.59C545.92 426.44 543.57 422.18 543.57 422.18L553.22 422.59Z" fill="#110239"/>
<path d="M573.8 434.09C575.52 433.56 577.28 433.33 579.08 433.27C580.38 433.23 582.46 433.29 583.4 432.24C584.3 431.24 584.17 429.82 583.61 428.7C583.54 428.55 582.51 426.68 582.32 426.77L590.68 423.16C590.68 423.16 597.27 431.01 596.69 433.09C596.57 433.52 594.92 435.1 593.18 436.72C590.27 439.42 586.5 441.01 582.54 441.23C576.87 441.54 571.19 441.45 570.28 440.53C568.45 438.67 569.4 435.45 573.8 434.09Z" fill="#110239"/>
<path d="M569.4 334.65C569.4 334.65 580.03 341.13 578.36 353.89C576.69 366.66 573.09 382.99 573.97 386.32C574.85 389.65 593.63 424 593.63 424L583.07 429.89C583.07 429.89 560.79 393.73 559.68 389.84C558.57 385.95 558.11 362.84 558.11 362.84C558.11 362.84 545.02 384.88 544.33 387.93C543.64 390.98 554.81 424 554.81 424L543.57 426.05C543.57 426.05 528.33 392.15 529.21 386.46C529.76 382.9 543.09 348.62 543.09 348.62L569.4 334.65Z" fill="#0273DB"/>
<path d="M544.49 387.38C544.2 386.8 547.54 372.22 549.04 369.99C550.06 368.47 553.9 361.43 555.08 359.25C556.53 356.56 553.66 348.95 553.3 345.86C553.63 345.71 553.96 345.54 554.26 345.33C555.28 351.35 558.11 362.84 558.11 362.84C555.83 367.03 545.95 383.37 544.5 387.41V387.4C544.49 387.41 544.49 387.43 544.48 387.45C544.48 387.43 544.48 387.4 544.49 387.38Z" fill="#0053BD"/>
<path d="M534.02 285.02C534.02 285.02 538.03 293.78 541.2 295.48C541.2 295.48 537.47 302.13 529.12 299.78C529.12 299.78 529.44 296.37 526.61 288.91C526.6 288.91 532.12 287.37 534.02 285.02Z" fill="#FCD4CA"/>
<path d="M528.47 293.93C528.39 293.93 528.32 293.95 528.25 293.96C527.88 292.54 527.36 290.88 526.61 288.91C526.61 288.91 532.12 287.37 534.03 285.02C534.03 285.02 538.04 293.78 541.21 295.48C541.21 295.48 539.65 298.23 536.33 299.56C535.32 296.22 532.16 293.86 528.47 293.93Z" fill="#E8A393"/>
<path d="M526.71 268.13C526.71 268.13 520.55 268.58 519.86 271.09C519.17 273.6 519.02 273.09 518.87 274.84C518.72 276.59 518.65 277.92 517.66 279.83C516.68 281.74 516.42 282.75 518.68 282.95C518.68 282.95 519.48 282.84 519.14 283.65C518.8 284.46 516.83 289.32 520.97 290.94C525.11 292.56 533.75 288.4 534.33 285.58C534.92 282.76 536.31 276.29 534.39 272.35C532.47 268.4 528.37 267.91 526.71 268.13Z" fill="#FCD4CA"/>
<path d="M533.53 268.29C533.53 268.29 523.64 277.57 516.52 269.37C516.52 269.37 518.18 264.54 523.46 263.18C528.72 261.83 533.62 265.92 533.53 268.29Z" fill="#110239"/>
<path d="M519.13 283.05C525.31 283.33 526.93 281.28 528.44 276.66C529.95 272.04 528.69 271.21 528.69 271.21C525.68 268.88 526.14 267.17 526.14 267.17C526.06 264.04 528.59 262.42 531.48 262.4C534.66 262.38 538.45 263.63 539.36 266.91C539.88 268.77 539.17 269.78 539.75 270.92C540.41 272.22 541.58 272.93 542.27 274.3C543.39 276.52 541.95 278.82 541.53 280.27C541.02 282.01 541.13 281.84 541.15 284.17C541.18 286.73 537.23 288.26 534.52 286.04C534.16 287.87 528.87 291.94 526.85 292.61C522.14 294.18 517.96 292.25 517.63 289.47C517.3 286.71 519.13 283.05 519.13 283.05Z" fill="#110239"/>
<path d="M524.944 394.151C527.648 367.114 507.922 343.005 480.886 340.302C453.849 337.598 429.74 357.324 427.036 384.36C424.332 411.397 444.058 435.506 471.095 438.21C498.131 440.913 522.24 421.188 524.944 394.151Z" fill="#FFD066"/>
<path d="M504.401 417.64C520.085 401.956 520.085 376.529 504.401 360.846C488.718 345.162 463.291 345.162 447.607 360.846C431.924 376.529 431.924 401.957 447.607 417.64C463.291 433.323 488.718 433.323 504.401 417.64Z" fill="#FEAC1A"/>
<path d="M471.23 368.57C479.29 366.08 487.74 366.61 490.87 374.42L477.85 379.63C476.6 376.71 473.32 377.28 471.42 378.05C470.23 378.53 466.36 380.08 467.31 382.47C469.45 387.82 491.21 372.66 497.27 387.78C500.9 396.85 495.15 403.07 486.68 407.2L491.1 416.61L483.15 419.79L479.75 409.88C471.32 412.27 462.28 411.49 459.01 403.33L472.02 398.12L472.13 398.4C473.64 401.96 477.93 401.06 479.97 400.24C481.94 399.45 485.76 397.76 484.71 395.16C482.49 389.6 460.53 404.27 454.67 389.64C451.29 381.2 456.54 375.34 464.35 371.4L459.97 361.89L467.92 358.71L471.23 368.57Z" fill="#FFD066"/>
<path d="M502.44 343.8C502.14 343.96 501.85 344.07 501.53 344.16C500.96 344.33 500.38 344.53 499.78 344.59C499.26 344.64 498.7 344.58 498.16 344.59C497.35 344.61 496.54 344.55 495.74 344.39C494 344.04 492.6 343.58 490.81 343.5C490.69 343.49 490.57 343.49 490.44 343.49C488.32 343.47 486.29 343.77 484.3 344.51C483.37 344.86 481.84 345.3 481.96 346.57C482.02 347.14 482.46 347.23 482.95 347.21C483.84 347.17 484.95 346.9 485.77 346.57C486.77 346.17 488.64 345.2 488.64 345.2C488.64 345.2 486.87 345.82 486.11 346.34C485.62 346.68 485.26 346.85 484.89 347.11C484.36 347.47 483.57 347.8 483.45 348.46C483.34 349.03 483.33 349.5 483.97 349.74C484.73 350.03 486.13 349.38 486.77 348.98C487.38 348.61 490.13 346.81 491 346.44C490.13 346.82 487.82 348.44 487.43 348.73C486.96 349.09 486.47 349.39 486.16 349.91C485.84 350.44 485.98 351.24 486.66 351.37C487.28 351.48 487.94 351.29 488.51 351.13C489.57 350.81 490.52 350.21 491.45 349.62C492.3 349.07 493.08 348.29 494.06 347.97C493.5 348.16 492.49 348.86 492.05 349.2C491.11 349.94 490.07 350.61 489.84 350.99C489.57 351.42 489.74 352.58 490.71 352.55C491.23 352.54 491.84 352.34 492.27 352.14C492.84 351.87 493.42 351.6 493.97 351.3C494.93 350.78 495.46 349.99 496.62 349.94C497.48 349.9 498.35 350.14 499.14 350.48C499.68 350.71 500.2 351.01 500.77 351.12C501.05 351.18 501.35 351.22 501.64 351.27C503.45 351.59 505.43 350.87 506.75 349.65C507.17 349.27 507.45 348.79 507.83 348.38C508.09 348.09 509.08 347.44 509.1 347C509.11 346.71 508.27 345.93 508.06 345.72C507.61 345.26 507.28 344.75 506.89 344.26C506.4 343.66 506.02 343.07 505.39 342.59C505.12 342.39 505.14 342.39 504.8 342.52C504.56 342.61 504.31 342.7 504.07 342.81C503.49 343.07 503.01 343.5 502.44 343.8Z" fill="#FCD4CA"/>
<path d="M528.96 297.37C528.96 297.37 536.73 302.17 539 293.44C539 293.44 545.59 293.78 554.05 305.37C562.48 316.91 566.26 322.72 575.07 336.99C573.78 338.43 559.13 353.8 541.83 349.82C541.83 349.82 540.12 346.03 539.36 344.26C536.1 336.62 527.35 315.78 526.36 309.6C524.98 301 528.96 297.37 528.96 297.37Z" fill="#E21983"/>
<g opacity="0.32">
<path d="M534.11 320.39C533.31 316.41 535.66 295.16 542.95 300.39C547.07 303.34 547.92 310.48 546.67 317.07C545.1 325.38 543.16 332.98 539.14 343.83C537.45 339.98 534.56 333.28 532.02 326.78C533.66 325.32 534.66 323.12 534.11 320.39Z" fill="#D10056"/>
</g>
<path d="M501.25 343.11L505.76 351.57C505.76 351.57 531.9 341.12 536.25 337.12C540.59 333.12 551.09 301.43 540.82 298.1C530.55 294.77 527.99 327.82 525.74 329.85C523.5 331.9 501.25 343.11 501.25 343.11Z" fill="#E21983"/>
<path d="M91.5401 216.33H85.5701V210.36C85.5701 209.68 85.0201 209.13 84.3401 209.13H84.3201C83.6401 209.13 83.0901 209.68 83.0901 210.36V216.33H77.1201C76.4401 216.33 75.8901 216.88 75.8901 217.56V217.58C75.8901 218.26 76.4401 218.81 77.1201 218.81H83.0901V224.78C83.0901 225.46 83.6401 226.01 84.3201 226.01H84.3401C85.0201 226.01 85.5701 225.46 85.5701 224.78V218.81H91.5401C92.2201 218.81 92.7701 218.26 92.7701 217.58V217.56C92.7801 216.89 92.2201 216.33 91.5401 216.33Z" fill="white"/>
<path d="M659.29 10.4099H650.9V2.01991C650.9 1.05991 650.13 0.289917 649.17 0.289917H649.13C648.17 0.289917 647.4 1.05991 647.4 2.01991V10.4099H639.01C638.05 10.4099 637.28 11.1799 637.28 12.1399V12.1699C637.28 13.1299 638.05 13.8999 639.01 13.8999H647.4V22.2899C647.4 23.2499 648.17 24.0199 649.13 24.0199H649.17C650.13 24.0199 650.9 23.2499 650.9 22.2899V13.8999H659.29C660.25 13.8999 661.02 13.1299 661.02 12.1699V12.1399C661.02 11.1799 660.24 10.4099 659.29 10.4099Z" fill="white"/>
<path d="M471.19 49.04H466.06V43.91C466.06 43.33 465.59 42.85 465 42.85H464.98C464.4 42.85 463.92 43.32 463.92 43.91V49.04H458.79C458.21 49.04 457.73 49.51 457.73 50.1V50.12C457.73 50.7 458.2 51.18 458.79 51.18H463.92V56.31C463.92 56.89 464.39 57.37 464.98 57.37H465C465.58 57.37 466.06 56.9 466.06 56.31V51.18H471.19C471.77 51.18 472.25 50.71 472.25 50.12V50.1C472.24 49.51 471.77 49.04 471.19 49.04Z" fill="white"/>
<path d="M245.54 457.91H237.15V449.52C237.15 448.56 236.38 447.79 235.42 447.79H235.39C234.43 447.79 233.66 448.56 233.66 449.52V457.91H225.27C224.31 457.91 223.54 458.68 223.54 459.64V459.68C223.54 460.64 224.31 461.41 225.27 461.41H233.66V469.8C233.66 470.76 234.43 471.53 235.39 471.53H235.42C236.38 471.53 237.15 470.76 237.15 469.8V461.41H245.54C246.5 461.41 247.27 460.64 247.27 459.68V459.64C247.27 458.69 246.5 457.91 245.54 457.91Z" fill="white"/>
<path d="M727.41 180.18H721.94V174.71C721.94 174.09 721.44 173.58 720.81 173.58H720.79C720.17 173.58 719.66 174.09 719.66 174.71V180.18H714.19C713.57 180.18 713.06 180.68 713.06 181.31V181.33C713.06 181.95 713.56 182.46 714.19 182.46H719.66V187.93C719.66 188.55 720.16 189.06 720.79 189.06H720.81C721.43 189.06 721.94 188.56 721.94 187.93V182.46H727.41C728.03 182.46 728.54 181.96 728.54 181.33V181.31C728.54 180.68 728.03 180.18 727.41 180.18Z" fill="white"/>
<path d="M150.9 22.78H144.93V16.81C144.93 16.13 144.38 15.58 143.7 15.58H143.67C142.99 15.58 142.44 16.13 142.44 16.81V22.78H136.47C135.79 22.78 135.24 23.33 135.24 24.01V24.03C135.24 24.71 135.79 25.26 136.47 25.26H142.44V31.23C142.44 31.91 142.99 32.46 143.67 32.46H143.7C144.38 32.46 144.93 31.91 144.93 31.23V25.26H150.9C151.58 25.26 152.13 24.71 152.13 24.03V24.01C152.14 23.33 151.58 22.78 150.9 22.78Z" fill="white"/>
<path d="M613.88 323.31H607.91V317.34C607.91 316.66 607.36 316.11 606.68 316.11H606.66C605.98 316.11 605.43 316.66 605.43 317.34V323.31H599.46C598.78 323.31 598.23 323.86 598.23 324.54V324.56C598.23 325.24 598.78 325.79 599.46 325.79H605.43V331.76C605.43 332.44 605.98 332.99 606.66 332.99H606.68C607.36 332.99 607.91 332.44 607.91 331.76V325.79H613.88C614.56 325.79 615.11 325.24 615.11 324.56V324.54C615.11 323.86 614.56 323.31 613.88 323.31Z" fill="white"/>
</g>
</svg>
