<svg width="20" height="21" viewBox="0 0 20 21" fill="none" xmlns="http://www.w3.org/2000/svg">
<path d="M4.18 1.55C4.18 1.75 4.18 1.91 4.18 2.08C4.18 2.64 4.17 3.2 4.18 3.75C4.2 4.62 4.88 5.27 5.74 5.26C6.59 5.25 7.26 4.57 7.27 3.72C7.28 3.01 7.27 2.31 7.27 1.57C8.92 1.57 10.55 1.57 12.2 1.57C12.21 1.65 12.22 1.72 12.22 1.8C12.22 2.43 12.22 3.06 12.22 3.68C12.23 4.57 12.89 5.25 13.75 5.26C14.63 5.27 15.3 4.61 15.31 3.7C15.32 3.08 15.31 2.46 15.31 1.84C15.31 1.75 15.32 1.67 15.32 1.55C15.76 1.55 16.18 1.54 16.6 1.55C16.95 1.56 17.31 1.54 17.66 1.61C18.76 1.84 19.49 2.77 19.49 3.9C19.49 7.82 19.49 11.74 19.49 15.66C19.49 16.55 19.49 17.45 19.49 18.34C19.49 19.73 18.49 20.73 17.1 20.73C12.19 20.73 7.28 20.73 2.37 20.73C1.01 20.74 0 19.73 0 18.37C0 13.56 0 8.74 0 3.93C0 2.56 0.99 1.57 2.35 1.55C2.95 1.54 3.55 1.55 4.18 1.55ZM0.92 7.49C0.92 7.65 0.92 7.77 0.92 7.89C0.92 11.35 0.93 14.81 0.91 18.27C0.91 19.2 1.57 19.82 2.45 19.81C7.32 19.79 12.2 19.8 17.07 19.8C18 19.8 18.57 19.22 18.57 18.29C18.57 14.79 18.57 11.28 18.57 7.78C18.57 7.69 18.57 7.59 18.57 7.49C12.68 7.49 6.82 7.49 0.92 7.49Z" fill="white"/>
<path d="M6.65 2.32C6.65 2.77 6.65 3.22 6.65 3.67C6.64 4.23 6.26 4.64 5.74 4.65C5.21 4.66 4.8 4.24 4.79 3.68C4.78 2.78 4.78 1.88 4.79 0.97C4.8 0.41 5.21 0 5.74 0C6.26 0 6.65 0.42 6.65 0.97C6.66 1.42 6.65 1.87 6.65 2.32Z" fill="white"/>
<path d="M12.85 2.3C12.85 1.85 12.85 1.4 12.85 0.95C12.85 0.42 13.25 0 13.76 0C14.27 0 14.7 0.39 14.7 0.92C14.71 1.86 14.71 2.8 14.7 3.73C14.69 4.25 14.27 4.65 13.76 4.65C13.25 4.65 12.85 4.23 12.85 3.7C12.85 3.24 12.85 2.77 12.85 2.3Z" fill="white"/>
<path d="M8.36 17.32C8.36 16.39 8.36 15.49 8.36 14.57C9.28 14.57 10.19 14.57 11.13 14.57C11.13 15.48 11.13 16.39 11.13 17.32C10.21 17.32 9.3 17.32 8.36 17.32Z" fill="white"/>
<path d="M11.13 9.93C11.13 10.85 11.13 11.76 11.13 12.68C10.2 12.68 9.29 12.68 8.36 12.68C8.36 11.76 8.36 10.85 8.36 9.93C9.29 9.93 10.19 9.93 11.13 9.93Z" fill="white"/>
<path d="M6.48 17.32C5.56 17.32 4.65 17.32 3.73 17.32C3.73 16.4 3.73 15.49 3.73 14.56C4.64 14.56 5.55 14.56 6.48 14.56C6.48 15.49 6.48 16.4 6.48 17.32Z" fill="white"/>
<path d="M15.77 17.32C14.85 17.32 13.94 17.32 13.02 17.32C13.02 16.39 13.02 15.48 13.02 14.55C13.94 14.55 14.85 14.55 15.77 14.55C15.77 15.48 15.77 16.38 15.77 17.32Z" fill="white"/>
<path d="M6.48 12.68C5.56 12.68 4.66 12.68 3.74 12.68C3.74 11.77 3.74 10.86 3.74 9.93C4.65 9.93 5.55 9.93 6.48 9.93C6.48 10.84 6.48 11.74 6.48 12.68Z" fill="white"/>
<path d="M15.77 12.68C14.85 12.68 13.95 12.68 13.03 12.68C13.03 11.76 13.03 10.85 13.03 9.93C13.94 9.93 14.85 9.93 15.77 9.93C15.77 10.84 15.77 11.74 15.77 12.68Z" fill="white"/>
</svg>
