<svg width="13" height="14" viewBox="0 0 13 14" fill="none" xmlns="http://www.w3.org/2000/svg">
<path d="M2.79 1.03C2.79 1.16 2.79 1.27 2.79 1.38C2.79 1.75 2.78 2.12 2.79 2.49C2.8 3.08 3.26 3.51 3.83 3.51C4.39 3.51 4.85 3.05 4.85 2.48C4.85 2.01 4.85 1.54 4.85 1.05C5.95 1.05 7.04 1.05 8.14 1.05C8.14 1.1 8.15 1.15 8.15 1.2C8.15 1.62 8.15 2.04 8.15 2.46C8.16 3.05 8.59 3.5 9.17 3.51C9.75 3.52 10.2 3.07 10.21 2.47C10.22 2.06 10.21 1.64 10.21 1.23C10.21 1.17 10.22 1.12 10.22 1.03C10.51 1.03 10.79 1.03 11.07 1.03C11.31 1.04 11.55 1.02 11.77 1.07C12.51 1.23 13 1.84 13 2.6C13 5.21 13 7.83 13 10.44C13 11.04 13 11.63 13 12.23C13 13.16 12.33 13.83 11.4 13.83C8.13 13.83 4.85 13.83 1.58 13.83C0.67 13.83 0 13.15 0 12.25C0 9.04 0 5.83 0 2.62C0 1.71 0.66 1.04 1.57 1.03C1.97 1.03 2.37 1.03 2.79 1.03ZM0.62 4.99C0.62 5.1 0.62 5.18 0.62 5.26C0.62 7.57 0.63 9.87 0.62 12.18C0.62 12.8 1.06 13.21 1.64 13.21C4.89 13.2 8.14 13.2 11.39 13.2C12.01 13.2 12.39 12.82 12.39 12.19C12.39 9.85 12.39 7.52 12.39 5.18C12.39 5.12 12.39 5.05 12.39 4.98C8.45 4.99 4.55 4.99 0.62 4.99Z" fill="#ADADAD"/>
<path d="M4.43 1.55C4.43 1.85 4.43 2.15 4.43 2.45C4.43 2.82 4.17 3.09 3.82 3.1C3.48 3.11 3.2 2.83 3.2 2.45C3.2 1.85 3.2 1.25 3.2 0.65C3.2 0.27 3.47 0 3.82 0C4.17 0 4.43 0.28 4.43 0.65C4.44 0.95 4.43 1.25 4.43 1.55Z" fill="#ADADAD"/>
<path d="M8.57 1.53C8.57 1.23 8.57 0.93 8.57 0.63C8.57 0.28 8.84 0 9.17 0C9.51 0 9.8 0.26 9.8 0.61C9.81 1.24 9.81 1.86 9.8 2.49C9.8 2.84 9.51 3.11 9.17 3.1C8.83 3.1 8.57 2.82 8.56 2.47C8.56 2.16 8.57 1.85 8.57 1.53Z" fill="#ADADAD"/>
<path d="M5.57 11.55C5.57 10.93 5.57 10.33 5.57 9.71C6.18 9.71 6.79 9.71 7.41 9.71C7.41 10.32 7.41 10.92 7.41 11.55C6.81 11.55 6.2 11.55 5.57 11.55Z" fill="#ADADAD"/>
<path d="M7.42 6.62C7.42 7.23 7.42 7.84 7.42 8.45C6.8 8.45 6.19 8.45 5.58 8.45C5.58 7.84 5.58 7.23 5.58 6.62C6.19 6.62 6.8 6.62 7.42 6.62Z" fill="#ADADAD"/>
<path d="M4.32 11.55C3.71 11.55 3.1 11.55 2.49 11.55C2.49 10.94 2.49 10.33 2.49 9.71C3.1 9.71 3.7 9.71 4.32 9.71C4.32 10.32 4.32 10.93 4.32 11.55Z" fill="#ADADAD"/>
<path d="M10.51 11.55C9.89 11.55 9.29 11.55 8.68 11.55C8.68 10.93 8.68 10.32 8.68 9.71C9.29 9.71 9.9 9.71 10.51 9.71C10.51 10.32 10.51 10.92 10.51 11.55Z" fill="#ADADAD"/>
<path d="M4.32 8.45C3.71 8.45 3.11 8.45 2.5 8.45C2.5 7.84 2.5 7.23 2.5 6.62C3.11 6.62 3.71 6.62 4.32 6.62C4.32 7.22 4.32 7.83 4.32 8.45Z" fill="#ADADAD"/>
<path d="M10.51 8.45C9.9 8.45 9.3 8.45 8.68 8.45C8.68 7.84 8.68 7.23 8.68 6.61C9.29 6.61 9.89 6.61 10.51 6.61C10.51 7.23 10.51 7.83 10.51 8.45Z" fill="#ADADAD"/>
</svg>
