<svg width="15" height="15" viewBox="0 0 15 15" fill="none" xmlns="http://www.w3.org/2000/svg">
<path d="M7.26201 1.47607H2.39156C2.02249 1.47607 1.66855 1.62268 1.40758 1.88365C1.14661 2.14462 1 2.49857 1 2.86763V12.6085C1 12.9776 1.14661 13.3315 1.40758 13.5925C1.66855 13.8535 2.02249 14.0001 2.39156 14.0001H12.1325C12.5015 14.0001 12.8555 13.8535 13.1164 13.5925C13.3774 13.3315 13.524 12.9776 13.524 12.6085V7.73808" stroke="#03396D" stroke-width="2" stroke-linecap="round" stroke-linejoin="round"/>
<path d="M12.4805 0.432302C12.7573 0.155504 13.1327 -4.12461e-09 13.5241 0C13.9156 4.12461e-09 14.291 0.155504 14.5678 0.432302C14.8446 0.7091 15.0001 1.08452 15.0001 1.47597C15.0001 1.86742 14.8446 2.24284 14.5678 2.51964L7.95792 9.12954L5.1748 9.82532L5.87058 7.0422L12.4805 0.432302Z" fill="#03396D"/>
</svg>
