<svg width="17" height="11" viewBox="0 0 17 11" fill="none" xmlns="http://www.w3.org/2000/svg">
<path d="M0.04 10.33C1.94 8.55 3.84 6.77 5.75 4.98C6.53 5.61 7.31 6.24 8.1 6.89C8.85 6.29 9.6 5.7 10.37 5.08C12.28 6.9 14.2 8.72 16.12 10.54C15.96 10.69 15.78 10.73 15.59 10.73C14.35 10.73 13.12 10.73 11.88 10.73C10.78 10.73 9.67 10.73 8.57 10.73C6.09 10.73 3.61 10.73 1.13 10.73C0.88 10.73 0.64 10.7 0.39 10.66C0.22 10.63 0.09 10.52 0.04 10.33Z" fill="#03396D"/>
<path d="M0.66 0C5.69 0 10.66 0 15.67 0C15.54 0.1 15.43 0.19 15.32 0.28C14.08 1.25 12.84 2.23 11.61 3.2C10.67 3.94 9.74 4.67 8.8 5.41C8.57 5.59 8.35 5.76 8.14 5.94C8.07 6 8.02 6 7.95 5.94C7.38 5.47 6.81 5.01 6.23 4.54C5.58 4.01 4.93 3.48 4.28 2.95C3.38 2.22 2.47 1.48 1.57 0.74C1.28 0.5 0.99 0.27 0.66 0Z" fill="#03396D"/>
<path d="M16.25 9.74C14.46 8.04 12.69 6.35 10.9 4.65C12.68 3.24 14.45 1.83 16.25 0.39C16.25 3.53 16.25 6.63 16.25 9.74Z" fill="#03396D"/>
<path d="M0 9.46C0 9.11 0 8.79 0 8.48C0 5.93 0 3.39 0 0.84C0 0.7 0.04 0.56 0.06 0.38C1.81 1.8 3.52 3.19 5.25 4.59C3.51 6.21 1.77 7.82 0 9.46Z" fill="#03396D"/>
</svg>
