<svg width="20" height="15" viewBox="0 0 20 15" fill="none" xmlns="http://www.w3.org/2000/svg">
<path d="M0 7.27273C0 7.27273 3.63636 0 10 0C16.3636 0 20 7.27273 20 7.27273C20 7.27273 16.3636 14.5455 10 14.5455C3.63636 14.5455 0 7.27273 0 7.27273Z" fill="#03396D"/>
<path d="M10 10C11.5062 10 12.7273 8.77896 12.7273 7.27273C12.7273 5.7665 11.5062 4.54545 10 4.54545C8.49377 4.54545 7.27273 5.7665 7.27273 7.27273C7.27273 8.77896 8.49377 10 10 10Z" fill="white"/>
<path d="M7.72727 7.27273C8.48039 7.27273 9.09091 6.66221 9.09091 5.90909C9.09091 5.15598 8.48039 4.54545 7.72727 4.54545C6.97416 4.54545 6.36364 5.15598 6.36364 5.90909C6.36364 6.66221 6.97416 7.27273 7.72727 7.27273Z" fill="#03396D"/>
</svg>
