<svg width="120" height="121" viewBox="0 0 120 121" fill="none" xmlns="http://www.w3.org/2000/svg">
<path d="M32.8967 65.7148C14.5197 65.6634 -0.262145 50.813 0.00352582 32.3246C0.263483 14.3361 14.9996 -0.230066 33.3052 0.0027526C50.9737 0.227001 65.6742 14.5161 65.7041 32.8659C65.7356 50.9529 50.9294 65.7377 32.8967 65.7148ZM36.1247 17.7327C37.0303 18.1226 37.6145 18.6425 37.923 19.4367C38.3015 20.4108 38.6286 21.4049 39.0328 22.3662C39.3213 23.0518 39.7299 23.6631 40.504 23.9231C42.4894 24.5901 44.5876 23.426 45.0061 21.3764C45.3289 19.7995 44.9718 18.2955 44.3091 16.8728C42.8208 13.6819 40.2026 11.8394 36.9032 10.8895C36.2933 10.7138 36.0376 10.481 36.1062 9.83256C36.1476 9.44263 36.0562 9.02555 35.9633 8.63562C35.6348 7.23871 34.485 6.44027 32.9195 6.49311C31.3755 6.54453 30.4157 7.31441 30.1571 8.75988C30.0457 9.3855 30.0186 10.0254 29.9529 10.6681C29.7672 10.7296 29.5901 10.7924 29.4115 10.8467C25.3651 12.0779 21.45 15.8601 21.4043 21.4049C21.3786 24.5187 22.267 27.2354 24.4081 29.5408C25.825 31.0676 27.5319 32.1746 29.3601 33.1002C29.91 33.3787 30.0372 33.6972 30.0286 34.2485C30.0014 35.9611 30.02 37.6751 30.02 39.3891C30.02 42.0987 30.02 44.8082 30.02 47.6063C27.9004 46.7693 26.4206 45.391 25.5665 43.3613C25.3465 42.8371 25.2051 42.2815 24.9937 41.753C24.4052 40.2761 23.1511 39.5748 21.4429 39.7434C20.0859 39.8776 18.8347 40.9932 18.579 42.3472C18.2091 44.3012 18.7847 46.0809 19.7546 47.7292C21.7257 51.0744 24.7595 53.0526 28.376 54.2353C28.8916 54.4038 29.6344 54.3781 29.8843 54.7223C30.1629 55.1065 30.0029 55.8107 30.0257 56.3763C30.0971 58.2075 31.0913 59.1359 33.0124 59.1616C34.9821 59.1887 36.0205 58.2803 36.1147 56.4249C36.1419 55.8821 36.119 55.3365 36.119 54.828C37.1788 54.4895 38.183 54.2124 39.1557 53.851C47.7757 50.6501 50.2124 38.4864 43.0464 32.536C41.0853 30.9077 38.9286 29.6422 36.6532 28.5495C36.2476 28.3538 36.099 28.1338 36.1176 27.6896C36.1533 26.8341 36.129 25.9771 36.129 25.12C36.1247 22.6976 36.1247 20.2723 36.1247 17.7327Z" fill="white"/>
<path d="M91.6227 30.342C90.3244 29.1865 89.0446 28.0553 87.7705 26.9155C86.785 26.0342 86.9621 25.0872 88.2062 24.6716C98.0017 21.3964 107.799 18.1269 117.596 14.8546C117.821 14.7789 118.038 14.6832 118.264 14.6075C119.421 14.2247 120.202 14.9303 119.954 16.1358C119.362 19.0196 118.761 21.9034 118.174 24.7872C116.733 31.8589 115.299 38.9321 113.861 46.0038C113.775 46.4223 113.685 46.8393 113.591 47.2564C113.336 48.3819 112.395 48.7019 111.518 47.9406C110.333 46.9122 109.164 45.8624 107.987 44.824C107.813 44.6697 107.632 44.5226 107.43 44.354C106.04 45.5595 104.686 46.7493 103.317 47.9206C94.9708 55.0537 86.2179 61.6412 76.9866 67.5902C70.4234 71.8195 63.6531 75.6803 56.5714 78.974C48.537 82.712 40.2583 85.7386 31.5141 87.3655C25.7093 88.4453 19.866 88.8667 13.9769 88.2882C9.55624 87.854 5.26266 86.8613 1.15334 85.153C0.916233 85.0545 0.783398 84.7045 0.603427 84.4731C0.881953 84.3674 1.19047 84.1246 1.43615 84.1775C10.726 86.1629 19.7231 84.8831 28.5588 81.7822C34.6435 79.6468 40.3312 76.6959 45.786 73.2821C52.9048 68.8286 59.4709 63.6537 65.7241 58.0632C72.7787 51.7557 79.3219 44.9539 85.5023 37.798C87.5234 35.4584 89.4445 33.0345 91.4113 30.6477C91.4799 30.562 91.5385 30.4635 91.6227 30.342Z" fill="white"/>
<path d="M101.311 88.6853C101.311 97.231 101.311 105.777 101.311 114.323C101.311 115.844 101.311 117.366 101.313 118.887C101.313 119.7 101.015 120.014 100.201 120.016C97.3461 120.022 94.4894 120.022 91.6342 120.017C90.6872 120.016 90.4029 119.729 90.4044 118.783C90.4115 106.238 90.4229 93.6931 90.4272 81.148C90.4287 75.9345 90.4215 70.7211 90.3901 65.5091C90.3858 64.8421 90.6115 64.4107 91.14 64.0151C93.9566 61.904 96.7405 59.7501 99.5643 57.649C99.8771 57.4162 100.4 57.289 100.776 57.3633C101.288 57.4647 101.317 57.9961 101.315 58.4746C101.31 68.5472 101.311 78.617 101.311 88.6853Z" fill="white"/>
<path d="M84.0011 94.9728C84.0011 102.85 84.0011 110.729 84.0011 118.606C84.0011 119.782 83.764 120.02 82.5857 120.02C79.8247 120.022 77.0637 120.022 74.3027 120.017C73.3486 120.016 73.0858 119.753 73.0844 118.782C73.0801 104.787 73.0801 90.7935 73.0686 76.7987C73.0686 76.2045 73.2986 75.8474 73.8014 75.536C76.6309 73.7835 79.4433 72.0023 82.2543 70.2198C82.6556 69.9655 83.1056 69.6813 83.4812 70.0398C83.764 70.3098 83.9783 70.8025 83.9797 71.1968C84.0083 79.1226 84.0011 87.0484 84.0011 94.9728Z" fill="white"/>
<path d="M66.6583 100.112C66.6583 106.3 66.6583 112.487 66.6583 118.673C66.6583 119.742 66.3826 120.019 65.3071 120.02C62.6889 120.022 60.0708 120.026 57.4527 120.019C55.9415 120.014 55.7072 119.783 55.7058 118.288C55.7029 107.507 55.7087 96.7254 55.6972 85.9443C55.6972 85.2316 55.98 84.8402 56.6328 84.5331C59.4052 83.2291 62.1562 81.8793 64.9029 80.5224C66.0227 79.9696 66.6526 80.311 66.654 81.5522C66.6597 87.7383 66.6583 93.9245 66.6583 100.112Z" fill="white"/>
<path d="M49.304 103.931C49.304 108.833 49.304 113.737 49.304 118.639C49.304 119.726 49.0083 120.019 47.9042 120.02C45.1675 120.02 42.4308 120.022 39.6927 120.02C38.68 120.02 38.4015 119.757 38.4015 118.779C38.4001 109.878 38.4058 100.976 38.3901 92.0762C38.3886 91.3277 38.6929 90.9849 39.3985 90.7707C42.2152 89.9165 45.0161 89.0138 47.82 88.1168C48.7926 87.8055 49.2997 88.1383 49.3011 89.1524C49.3054 94.0787 49.304 99.005 49.304 103.931Z" fill="white"/>
<path d="M3.71149 105.857C3.71149 101.599 3.71149 97.3396 3.71149 93.0817C3.71149 91.9805 4.16855 91.6634 5.24124 91.8691C7.87223 92.3733 10.5075 92.856 13.1499 93.2874C14.4826 93.5045 14.6711 93.6388 14.6711 94.9957C14.6725 101.966 14.6711 108.935 14.6697 115.905C14.6697 116.831 14.6711 117.755 14.6611 118.68C14.6511 119.702 14.3754 119.99 13.3628 119.994C10.5561 120.01 7.75082 120.016 4.94414 120.019C4.01429 120.02 3.71434 119.713 3.71434 118.775C3.71149 114.468 3.71292 110.163 3.71292 105.857H3.71149Z" fill="white"/>
<path d="M31.994 106.29C31.994 110.43 31.9954 114.572 31.994 118.713C31.994 119.72 31.6883 120.024 30.6799 120.024C27.9189 120.023 25.158 120.024 22.397 120.022C21.3343 120.02 21.0601 119.77 21.0586 118.74C21.0543 110.79 21.0543 102.842 21.0601 94.8914C21.0601 93.8587 21.3572 93.6402 22.3741 93.5516C24.9294 93.3274 27.479 93.046 30.0314 92.7846C30.22 92.7646 30.4071 92.7218 30.5956 92.7032C31.6583 92.5947 31.9925 92.8875 31.9925 93.9387C31.9954 96.604 31.994 99.2693 31.994 101.936C31.994 103.386 31.994 104.837 31.994 106.29Z" fill="white"/>
<path d="M36.1433 47.6092C36.1433 43.847 36.1433 40.1447 36.1433 36.4382C38.1601 36.8353 40.4769 39.4391 40.5683 41.3959C40.7025 44.2812 38.9428 46.7879 36.1433 47.6092Z" fill="white"/>
<path d="M29.9672 25.4229C26.7463 23.4917 27.819 19.2353 29.9672 17.6056C29.9672 20.2166 29.9672 22.7919 29.9672 25.4229Z" fill="white"/>
</svg>
