<svg width="20" height="21" viewBox="0 0 20 21" fill="none" xmlns="http://www.w3.org/2000/svg">
<path d="M20 10.4309C20 9.59188 19.9319 8.97964 19.7846 8.34473H10.2041V12.1315H15.8276C15.7143 13.0726 15.1021 14.4898 13.7415 15.4422L13.7224 15.569L16.7516 17.9156L16.9615 17.9366C18.8889 16.1565 20 13.5374 20 10.4309Z" fill="#4285F4"/>
<path d="M10.2041 20.4081C12.9591 20.4081 15.272 19.501 16.9614 17.9365L13.7414 15.4421C12.8798 16.043 11.7233 16.4625 10.2041 16.4625C7.50566 16.4625 5.21542 14.6825 4.39902 12.2222L4.27935 12.2323L1.12957 14.67L1.08838 14.7845C2.76637 18.1178 6.21309 20.4081 10.2041 20.4081Z" fill="#34A853"/>
<path d="M4.39905 12.2223C4.18363 11.5874 4.05897 10.9071 4.05897 10.2042C4.05897 9.50116 4.18363 8.82091 4.38772 8.186L4.38201 8.05078L1.19276 5.57397L1.08841 5.62361C0.39683 7.00685 0 8.56016 0 10.2042C0 11.8481 0.39683 13.4014 1.08841 14.7846L4.39905 12.2223Z" fill="#FBBC05"/>
<path d="M10.2041 3.94555C12.1201 3.94555 13.4126 4.77321 14.1496 5.46487L17.0294 2.65306C15.2608 1.00907 12.9591 0 10.2041 0C6.21309 0 2.76637 2.29023 1.08838 5.62354L4.38769 8.18593C5.21542 5.72562 7.50566 3.94555 10.2041 3.94555Z" fill="#EB4335"/>
</svg>
