<svg width="75" height="76" viewBox="0 0 75 76" fill="none" xmlns="http://www.w3.org/2000/svg">
<path d="M75 29.38C73.97 29.52 72.94 29.73 71.9 29.78C65.87 30.06 60.76 32.52 56.21 36.31C53.45 38.61 50.85 41.12 47.91 43.16C44.03 45.85 40.55 49.24 35.94 50.74C33.53 51.53 31.01 52 28.55 52.61C27.24 52.61 25.94 52.61 24.63 52.61C24.31 52.54 24 52.45 23.68 52.41C13.14 51.07 5.8 45.47 1.8 35.67C0.85 33.34 0.58 30.74 0 28.26C0 26.95 0 25.65 0 24.34C0.08 23.93 0.18 23.53 0.24 23.12C1.55 13.7 6.56 6.91 14.99 2.61C18.01 1.07 21.29 0.43 24.63 0C25.84 0 27.06 0 28.27 0C29.95 0.32 31.66 0.53 33.31 0.98C45.33 4.28 53.2 15.12 52.68 27.56C52.66 28.02 52.68 28.49 52.68 29.2C53.07 28.7 53.36 28.35 53.62 27.97C57.1 22.99 61.27 18.82 67.09 16.67C68.99 15.97 71.01 15.54 73.01 15.16C73.62 15.04 74.34 15.48 75.01 15.66C75 20.24 75 24.81 75 29.38ZM50.77 26.43C50.78 12.88 39.91 1.97 26.38 1.97C12.92 1.96 2 12.83 1.97 26.25C1.94 39.67 12.85 50.62 26.28 50.64C39.76 50.67 50.77 39.78 50.77 26.43ZM72.98 27.72C72.98 24.2 72.98 20.67 72.98 17.05C69.75 17.55 66.79 18.57 64.08 20.27C63.81 20.44 63.56 20.95 63.61 21.25C64.06 23.8 64.59 26.34 65.08 28.83C67.74 28.46 70.29 28.1 72.98 27.72ZM61.82 22.1C61.67 22.02 61.53 21.93 61.38 21.85C59.57 23.88 57.75 25.91 55.98 27.97C55.79 28.19 55.74 28.69 55.85 28.97C56.34 30.27 56.9 31.53 57.43 32.79C59.26 31.81 61.03 30.9 62.75 29.92C63 29.78 63.2 29.24 63.15 28.93C62.75 26.64 62.27 24.37 61.82 22.1ZM49.16 39.44C49.24 39.49 49.33 39.53 49.41 39.58C51.39 37.91 53.39 36.24 55.35 34.54C55.57 34.35 55.76 33.89 55.68 33.65C55.31 32.59 54.84 31.57 54.26 30.19C52.44 33.49 50.8 36.47 49.16 39.44Z" fill="#03396D"/>
<path d="M48.6 26.3C48.63 38.38 38.66 48.4 26.58 48.44C14.18 48.48 4.19996 38.67 4.17996 26.45C4.15996 14.18 14 4.20001 26.15 4.17001C38.6 4.15001 48.57 13.97 48.6 26.3ZM13.82 17.07C10.08 17.07 7.02996 20.08 7.01996 23.78C7.00996 27.5 10.03 30.53 13.76 30.55C17.54 30.57 20.69 27.47 20.64 23.76C20.59 20.05 17.55 17.06 13.82 17.07ZM19.55 43.69C23.12 43.75 26.07 40.92 26.18 37.33C26.28 33.75 23.33 30.72 19.69 30.67C16.11 30.62 13.17 33.48 13.11 37.06C13.05 40.76 15.83 43.63 19.55 43.69ZM41.14 35.97C41.14 32.3 38.23 29.38 34.58 29.4C31.07 29.42 28.05 32.43 28.05 35.92C28.05 39.51 31.08 42.51 34.67 42.48C38.27 42.46 41.14 39.57 41.14 35.97ZM44.51 21.28C44.52 17.68 41.67 14.79 38.08 14.74C34.43 14.69 31.43 17.61 31.41 21.21C31.39 24.82 34.35 27.74 38.02 27.74C41.61 27.75 44.5 24.86 44.51 21.28ZM31.67 14C31.7 10.35 28.82 7.38001 25.18 7.32001C21.71 7.26001 18.67 10.25 18.59 13.78C18.51 17.3 21.46 20.37 24.97 20.41C28.68 20.46 31.64 17.63 31.67 14ZM29.06 26.41C29.12 25 27.92 23.71 26.49 23.66C25.01 23.6 23.79 24.72 23.74 26.2C23.69 27.69 24.82 28.93 26.27 28.96C27.71 29 28.99 27.83 29.06 26.41Z" fill="#03396D"/>
<path d="M15.2899 29.36C14.3399 25.58 15.0599 22.33 17.3099 19.23C19.1299 20.69 19.8699 22.52 19.5299 24.67C19.1599 27 17.7699 28.59 15.2899 29.36Z" fill="#03396D"/>
<path d="M25.17 37.71C21.5 37.23 18.77 35.54 16.72 32.53C18.67 31.41 20.53 31.4 22.36 32.44C24.32 33.54 25.17 35.3 25.17 37.71Z" fill="#03396D"/>
<path d="M36.91 30.94C35.32 34.24 32.91 36.35 29.33 37.37C28.78 35.36 29.24 33.71 30.5 32.28C32.1 30.48 34.34 30 36.91 30.94Z" fill="#03396D"/>
<path d="M33.8 17.63C36.62 19.92 38.19 23.63 37.69 26.73C35.46 26.56 33.85 25.47 32.94 23.44C32.02 21.39 32.37 19.47 33.8 17.63Z" fill="#03396D"/>
<path d="M20.33 16.54C23.56 14.67 26.82 14.33 30.38 15.57C29.69 17.68 28.29 18.85 26.31 19.28C23.87 19.8 21.81 18.85 20.33 16.54Z" fill="#03396D"/>
</svg>
