<svg width="700" height="500" viewBox="0 0 667 450" fill="none" xmlns="http://www.w3.org/2000/svg">
<path d="M299.15 65.2099C299.57 65.2799 299.75 64.3099 299.92 64.0499C300.27 63.5199 303.46 62.1999 302.99 61.7999C302.42 61.3199 301.36 61.3499 300.69 61.4399C300.01 61.5399 299.11 61.8399 298.77 62.4199C298.33 63.1799 298.35 64.2899 298.87 64.9999C298.97 65.1299 299.07 65.1999 299.15 65.2099Z" fill="#E8A393"/>
<path d="M304.75 60.9099C305.16 60.9899 306.92 61.6099 307.07 60.8699C307.25 59.9899 305.42 59.5599 304.88 59.6299C304.1 59.7299 303.31 59.5199 302.32 59.7799C301.54 59.9799 300.81 60.1799 300.02 60.3599C299.59 60.4599 299.25 60.7999 298.84 60.9699C298.51 61.1099 297.85 61.5399 297.3 61.5299C297.17 61.5299 296.94 61.4799 296.7 61.4299C296.67 61.5199 296.67 61.6199 296.64 61.7199C296.19 62.8999 295.74 63.8699 295.23 64.8999C295.79 64.9799 296.85 64.9599 297.2 64.9099C297.66 64.8299 297.97 64.9399 298.39 65.0799C298.76 65.2099 299.13 65.3499 299.49 65.4799C299.79 65.5899 300.82 66.1899 301.14 66.2499C301.42 66.2999 301.97 66.3799 302.15 65.9199C302.36 65.3899 301.93 65.0499 301.71 64.8599C301.32 64.5199 299.09 64.3699 299.34 63.6099C299.45 63.2699 299.77 62.9799 300 62.7199C300.28 62.4099 300.58 62.3299 300.95 62.2099C301.68 61.9699 302.45 61.8899 303.21 62.0099C303.69 62.0899 305.08 62.6199 305.49 62.3199C306.2 61.8099 305.58 61.3499 304.91 61.1199C304.75 61.0599 304.3 60.9599 304.13 60.8899C304.37 60.8799 304.59 60.8799 304.75 60.9099Z" fill="#FCD4CA"/>
<path d="M242.84 32.3199C245.93 29.4299 250.75 29.4699 254.07 32.0899C259.52 36.3899 269.66 44.3399 272.94 46.5399C277.5 49.5999 297.75 60.5499 297.75 60.5499L295.18 66.2399C295.18 66.2399 270.22 57.0599 266.62 54.5799C263.02 52.0999 242.33 41.4099 241.21 36.6299C240.82 34.9599 241.59 33.4899 242.84 32.3199Z" fill="#F35DAD"/>
<path d="M242.84 32.3199C245.93 29.4299 250.75 29.4699 254.07 32.0899C259.52 36.3899 269.66 44.3399 272.94 46.5399C277.5 49.5999 297.75 60.5499 297.75 60.5499L295.18 66.2399C295.18 66.2399 270.22 57.0599 266.62 54.5799C263.02 52.0999 242.33 41.4099 241.21 36.6299C240.82 34.9599 241.59 33.4899 242.84 32.3199Z" fill="#F685C3"/>
<path d="M242.84 32.3199C245.93 29.4299 250.75 29.4699 254.07 32.0899C259.52 36.3899 269.66 44.3399 272.94 46.5399C277.5 49.5999 297.75 60.5499 297.75 60.5499L295.18 66.2399C295.18 66.2399 270.22 57.0599 266.62 54.5799C263.02 52.0999 242.33 41.4099 241.21 36.6299C240.82 34.9599 241.59 33.4899 242.84 32.3199Z" fill="#E21983"/>
<path d="M597.82 406.34C623.534 406.34 644.38 402.011 644.38 396.67C644.38 391.329 623.534 387 597.82 387C572.106 387 551.26 391.329 551.26 396.67C551.26 402.011 572.106 406.34 597.82 406.34Z" fill="#6284A4"/>
<path d="M119.5 417.75C119.5 423.25 92.87 427.71 60.01 427.71C27.16 427.71 0.52002 423.25 0.52002 417.75C0.52002 412.25 27.15 407.79 60.01 407.79C92.87 407.79 119.5 412.25 119.5 417.75Z" fill="#6284A4"/>
<path d="M452.9 447.79C505.594 447.79 548.31 443.604 548.31 438.44C548.31 433.276 505.594 429.09 452.9 429.09C400.207 429.09 357.49 433.276 357.49 438.44C357.49 443.604 400.207 447.79 452.9 447.79Z" fill="#6284A4"/>
<path d="M307.11 425.36C469.057 425.36 600.34 412.497 600.34 396.63C600.34 380.763 469.057 367.9 307.11 367.9C145.164 367.9 13.8801 380.763 13.8801 396.63C13.8801 412.497 145.164 425.36 307.11 425.36Z" fill="#6284A4"/>
<path d="M631.51 237.57L641.5 259.75C641.5 259.75 638.57 263.04 637.6 262.31C636.63 261.58 621.63 243.58 620.17 242.65C618.72 241.71 631.51 237.57 631.51 237.57Z" fill="#729DE2"/>
<path d="M623.39 245.55C625.7 244.27 628.33 243.99 630.78 243.08C631.73 242.72 632.62 242.33 633.51 241.99L631.52 237.57C631.52 237.57 618.72 241.71 620.19 242.65C620.53 242.87 621.65 244.06 623.14 245.73C623.22 245.67 623.29 245.6 623.39 245.55Z" fill="#407AD8"/>
<path d="M606.73 240.33C606.73 240.33 606.77 246.71 610.67 248.17C610.67 248.17 630.66 239.89 634.68 239.09C638.7 238.29 653.33 238.17 653.33 238.17L638.58 211.84C638.58 211.84 631.51 225.98 625.05 230.61C618.6 235.25 606.73 240.33 606.73 240.33Z" fill="#FFD066"/>
<path d="M619.7 244.51C621.28 243.88 622.93 243.23 624.56 242.61C622.11 239.85 620.84 236.01 620.35 233.59C618.83 234.46 617.26 235.3 615.74 236.07C616.42 239.53 617.88 242.4 619.7 244.51Z" fill="#110239"/>
<path d="M658.78 218.62C662.94 228.66 661.47 238.81 655.49 241.29C649.51 243.77 641.29 237.64 637.13 227.6C632.97 217.56 634.44 207.41 640.42 204.93C646.39 202.45 654.61 208.58 658.78 218.62Z" fill="#FEE08D"/>
<path d="M657.97 218.96C661.51 227.5 660.26 236.14 655.17 238.25C650.08 240.36 643.09 235.14 639.55 226.6C636.01 218.06 637.26 209.42 642.35 207.31C647.43 205.2 654.43 210.41 657.97 218.96Z" fill="#110239"/>
<path d="M630.16 253.03C629.79 252.81 629.9 251.43 629.97 251.07C630.09 250.51 630.47 249.78 630.09 249.24C629.4 248.29 628.44 250.84 628.31 251.21C628.07 251.92 627.98 252.4 628.13 252.91C628.26 253.33 629.02 254.66 629.61 255.14C629.54 255.39 629.46 255.66 629.36 255.94C630.09 256.27 630.5 256.47 631.22 256.88C631.96 257.31 631.93 257.84 632.62 258.32L633.32 256.72C633.02 256.35 630.77 253.4 630.16 253.03Z" fill="#FCD4CA"/>
<path d="M636.59 246.15C635.92 245.43 634.89 245.71 634.08 246.3C633.49 246.73 631.8 248.1 632.25 249.09C632.63 249.92 634.81 248.09 634.81 248.09C634.01 248.78 632.51 249.33 632.89 250.03C633.31 250.8 635.21 249.7 635.63 249.4C635.2 249.51 633.08 250.8 633.93 251.47C634.51 251.93 636.08 250.96 636.55 250.63C635.92 250.82 635.07 251.38 635.23 252.25C635.5 252.73 636.45 252.41 636.98 252.2C637.78 251.88 638.53 251.75 638.59 250.76C638.6 250.57 638.63 250.42 638.62 250.22C638.59 249.5 638.26 248.69 637.92 248.07C637.54 247.37 637.1 246.7 636.59 246.15Z" fill="#FCD4CA"/>
<path d="M596.21 227.95C596.21 227.95 588.49 224.22 582.64 228.45C576.79 232.68 577.03 240.47 577.19 245.34C577.35 250.22 575.73 252.82 572.31 256.23C568.9 259.64 568.57 262.41 570.36 269.56C572.15 276.71 573.56 280.72 570.13 283.92C566.37 287.43 562.73 296.38 571.01 303.04C579.3 309.7 590.59 308.33 598.15 307.92C602.37 307.69 608.27 307.43 611.59 304.45C614.97 301.42 617.54 298.23 615.91 293.41C615.26 291.5 614.33 289.69 613.73 287.76C613.15 285.89 613.27 284.37 613.36 282.49C613.48 280.17 614.35 278.06 614.46 275.75C614.58 273.34 614.31 271.06 614.02 268.74C613.7 266.17 613.1 264.22 612.1 261.86C610.15 257.3 604.92 254.97 603.79 249.82C603.1 246.69 602.74 243.76 602.92 240.71C603.33 233.81 600.03 229.27 596.21 227.95Z" fill="#110239"/>
<path d="M584.88 385.27C584.88 385.27 584.72 389.59 585.45 391.63C586.18 393.66 591.4 396.77 591.4 396.77C591.4 396.77 586.68 397.68 584.86 396.28C583.05 394.88 578.74 387.55 579.02 386.59C579.3 385.63 580.6 382.69 580.6 382.69L584.88 385.27Z" fill="#FCD4CA"/>
<path d="M613.01 384.86C613.01 384.86 612.85 389.18 613.58 391.22C614.31 393.25 619.53 396.36 619.53 396.36C619.53 396.36 614.81 397.27 612.99 395.87C611.18 394.47 606.87 387.14 607.15 386.18C607.43 385.22 608.73 382.28 608.73 382.28L613.01 384.86Z" fill="#FCD4CA"/>
<path d="M580.1 385.27C580.1 385.27 576.14 386.59 577.13 390.06C578.12 393.53 577.96 397.98 577.96 397.98H579.12C579.12 397.98 579.37 393.03 580.11 393.19C580.85 393.36 582.5 397.98 584.15 397.98C585.8 397.98 593.48 397.98 593.48 397.98C593.48 397.98 594.47 396.99 593.48 396.41C592.49 395.83 586.17 396.08 585.45 394.68C584.73 393.27 580.1 385.27 580.1 385.27Z" fill="#110239"/>
<path d="M608.46 384.75C608.46 384.75 604.5 386.07 605.49 389.54C606.48 393.01 606.32 397.46 606.32 397.46H607.48C607.48 397.46 607.73 392.51 608.47 392.67C609.21 392.83 610.86 397.46 612.51 397.46C614.16 397.46 621.84 397.46 621.84 397.46C621.84 397.46 622.83 396.47 621.84 395.89C620.85 395.31 614.53 395.56 613.81 394.16C613.08 392.76 608.46 384.75 608.46 384.75Z" fill="#110239"/>
<path d="M587.1 243.37C587.1 243.37 590.78 257.73 588.68 258.86C588.68 258.86 596.2 274.46 599.53 273.73C602.86 273 601.11 259.69 601.11 259.69C601.11 259.69 599.97 259.5 598.54 258.21C597.9 257.64 596.52 256.68 596.33 255.74C595.7 252.65 595.54 248.79 595.54 248.79L587.1 243.37Z" fill="#FCD4CA"/>
<path d="M593.4 267.18C592.22 265.6 591.27 263.3 591.54 261.29C591.93 258.3 593.53 256.16 596.21 255.06C595.68 252.11 595.54 248.78 595.54 248.78L587.11 243.37C587.11 243.37 590.79 257.73 588.69 258.86C588.69 258.86 596.21 274.46 599.54 273.73C600.41 273.54 600.92 272.49 601.22 271.06C598.03 271.63 595.26 269.66 593.4 267.18Z" fill="#E8A393"/>
<path d="M551.01 251.8C550.63 251.22 550.35 250.56 550.12 249.9C549.92 249.33 549.78 248.75 549.58 248.18C549.39 247.63 549.17 247.09 549.2 246.5C549.22 246.13 549.31 245.83 549.41 245.47C549.52 245.03 549.68 244.61 549.77 244.17C549.85 243.78 549.81 243.39 549.89 243C550.03 242.27 550.2 241.49 550.57 240.84C550.86 240.33 551.18 239.91 551.56 239.48C551.76 239.25 551.91 239.05 552.15 238.85C552.37 238.67 552.59 238.47 552.69 238.19C552.82 237.8 552.62 237.44 552.23 237.34C551.54 237.17 550.46 237.48 550.05 238.06C549.47 238.86 549.2 239.84 548.55 240.61C546.57 242.97 544.72 240.19 542.41 239.2C541.75 238.91 540.76 238.2 540.18 237.76C539.77 237.45 538 235.77 537.16 236.21C536.54 236.53 537.75 237.95 538.33 238.29C538.56 238.43 540.54 240.03 540.79 240.11C540.21 240.01 538.69 239.01 537.48 238.06C536.61 237.38 535.76 236.7 535.28 237.09C533.81 238.29 539.57 241.04 540.02 241.3C539.54 241.34 535.03 238.15 534.6 239.32C534.37 239.97 535.3 240.61 536.07 241.02C537.03 241.54 538.64 241.91 539 242.2C538.32 242.43 535.34 240.4 535.33 241.64C535.33 242.45 537.18 243.06 537.88 243.27C538.6 243.49 540.71 244.93 541.38 245.24C543.61 246.3 544.53 246.18 545.41 247.51C545.97 248.36 546.97 252.85 547.78 254.56L551.01 251.8Z" fill="#FCD4CA"/>
<path d="M628.92 255.33C626.93 261.12 622.68 273.84 621.28 273.12C618.65 271.77 613.18 267.59 608.88 262.33C606.27 259.13 603.84 258.98 603.84 258.98L607.67 272.18C607.67 272.18 620.75 283.56 623.68 281.93C625.98 280.65 631.64 264.53 633.64 257.84C633.63 257.84 628.95 255.35 628.92 255.33Z" fill="#F685C3"/>
<path opacity="0.32" d="M615.09 275.25C612.74 272.2 611.3 269.64 608.91 266.63C607.7 265.1 606.66 263.48 605.68 261.83C605.14 261.22 604.62 260.61 604.12 259.97L607.66 272.18C607.66 272.18 620.43 283.28 623.55 281.96C620.87 280.23 617 277.73 615.09 275.25Z" fill="#D10056"/>
<path d="M603.83 258.98L598.54 258.2C598.54 258.2 601.24 269.66 599.21 269.58C597.18 269.5 589.28 257.44 589.28 257.44C589.28 257.44 584.27 259.53 581.37 261.38C581.37 261.38 582.48 270.64 581.83 271.86C581.83 271.86 583.94 277.79 585.32 280.55C586.7 283.31 586.89 298.68 586.89 298.68C586.89 298.68 591.82 301.52 597.91 301.52C604 301.52 605.84 298.96 605.84 298.96C605.84 298.96 605.87 281.37 606.61 279.86C607.34 278.36 610.92 272.62 607.83 267.11C606.19 264.19 603.83 258.98 603.83 258.98Z" fill="#F685C3"/>
<path opacity="0.32" d="M588.87 285.2C586.72 281.26 587.06 276.64 585.96 272.06C585.21 268.92 583.21 265.71 581.55 263.09C581.83 265.82 582.29 270.97 581.82 271.86C581.82 271.86 583.93 277.79 585.31 280.55C586.69 283.31 586.88 298.68 586.88 298.68C586.88 298.68 590.55 300.79 595.47 301.37C587.1 294.74 588.87 285.2 588.87 285.2Z" fill="#D10056"/>
<path opacity="0.32" d="M587.41 274.9C587.41 274.9 591.85 277.28 593.84 277.25C599.16 277.18 600.14 273.75 600.14 273.75C600.14 273.75 602.92 277.06 605.4 276.85C607.82 276.65 608.24 274.94 608.24 274.94C608.24 274.94 608.05 280.05 603.75 280.54C602.2 280.72 601.15 280.43 600.43 279.98C599.32 279.29 597.95 279.36 596.77 279.92C596.1 280.24 595.23 280.5 594.14 280.59C590.3 280.91 587.82 278.34 587.41 274.9Z" fill="#D10056"/>
<path d="M583.69 260.72C583.69 260.72 562.97 266.65 561.1 266.16C559.23 265.67 550.05 246.66 550.05 246.66L544.85 248.77C544.85 248.77 552.57 272.55 556.14 273.74C559.72 274.93 581.82 271.85 581.82 271.85C581.82 271.85 585.72 266.65 583.69 260.72Z" fill="#F685C3"/>
<path d="M590.83 232.26C590.83 232.26 596.03 230.19 598.46 233.49C600.89 236.79 599.9 239.44 600.42 241.07C600.94 242.7 600.69 250.88 598.59 251.97C596.76 252.91 592 252.18 589.31 249.55C587.02 247.31 586.41 248.24 584.78 245.8C580.7 239.65 586.53 231.71 590.83 232.26Z" fill="#FCD4CA"/>
<path d="M593.39 230.4C593.39 230.4 594.16 238.39 600.91 237.83C600.91 237.84 600.65 226.96 593.39 230.4Z" fill="#110239"/>
<path d="M587.89 250.3C587.9 250.15 588.27 249.2 588.3 248.66C587.65 247.91 586.88 246.83 586.45 246.77C585.28 246.59 583.44 244.27 584.67 243C585.96 241.68 587.2 242.87 587.67 243.89C587.74 244.05 587.96 244.21 588.2 244.32C588.4 243.77 589.14 239.1 591.42 238.43C599.21 236.12 593.98 229.95 593.98 229.95C581.12 227.52 580.34 245.09 583.55 248.57C585.3 250.46 586.84 250.58 587.89 250.3Z" fill="#110239"/>
<path d="M585.29 243C585.29 243 586.48 243 586.86 244.21C587.22 245.34 586.32 246.54 585.83 245.74C585.34 244.94 585.8 244.62 585.86 244.16C585.91 243.7 585.55 243.16 585.29 243Z" fill="#E8A393"/>
<path d="M605.84 298.59C605.84 298.59 594.74 302.49 586.7 298.59C586.7 298.59 581.83 302.68 581.06 311.03C580.82 313.6 580.94 316.7 581.39 320.41C581.95 325.06 583.3 337.23 582.46 344.74C581.22 355.74 577.81 385.4 577.81 385.4L585.46 386.59C585.46 386.59 592.49 350.32 593.32 345.57C594.15 340.82 596.83 321.51 596.83 321.51C596.83 321.51 601.59 336.44 602.82 343.67C603.01 344.78 606.4 385.67 606.4 385.67L613.82 385.62C613.82 385.62 613.41 340.2 613.41 342.59C613.39 343.56 611.38 311.95 605.84 298.59Z" fill="#0273DB"/>
<path d="M601.98 327.49C600.32 322.44 599.3 319.9 595.87 315.37C596.22 317.44 596.54 319.51 596.78 321.6C596.8 321.54 596.81 321.49 596.81 321.49C596.81 321.49 600.89 334.27 602.47 341.91C602.29 333.68 603.21 331.21 601.98 327.49Z" fill="#0053BD"/>
<path d="M647.41 225.07C646.39 221.93 643.33 220.11 640.56 221C639.62 221.31 638.84 221.9 638.26 222.67C638.58 223.96 639 225.28 639.54 226.59C640.48 228.85 641.66 230.86 642.98 232.58C643.4 232.56 643.83 232.51 644.25 232.37C647.02 231.48 648.43 228.21 647.41 225.07Z" fill="#F685C3"/>
<path d="M353.922 144.705C380.782 138.319 397.38 111.367 390.994 84.507C384.608 57.6464 357.657 41.0485 330.796 47.4344C303.936 53.8203 287.338 80.7718 293.724 107.632C300.11 134.493 327.061 151.091 353.922 144.705Z" fill="#FFD066"/>
<path d="M342.35 136.88C364.883 136.88 383.15 118.613 383.15 96.08C383.15 73.5468 364.883 55.28 342.35 55.28C319.817 55.28 301.55 73.5468 301.55 96.08C301.55 118.613 319.817 136.88 342.35 136.88Z" fill="#FEAC1A"/>
<path d="M337.49 75.0799C345.68 72.5499 354.27 73.0899 357.44 81.0199L344.22 86.3099C342.95 83.3399 339.62 83.9299 337.69 84.6999C336.48 85.1899 332.55 86.7599 333.52 89.1899C335.69 94.6199 357.8 79.2199 363.95 94.5899C367.64 103.81 361.8 110.13 353.19 114.31L357.68 123.87L349.61 127.1L346.16 117.04C337.6 119.47 328.41 118.67 325.09 110.38L338.31 105.09L338.42 105.38C339.95 109 344.31 108.08 346.38 107.25C348.38 106.45 352.26 104.73 351.2 102.09C348.94 96.4399 326.63 111.34 320.68 96.4799C317.25 87.8999 322.58 81.9499 330.51 77.9499L326.06 68.2899L334.13 65.0599L337.49 75.0799Z" fill="#FFD066"/>
<path d="M175.32 93.7999H125.31L38.49 181.32H94.75L175.32 93.7999Z" fill="#110239"/>
<path d="M483.95 93.7999H533.96L620.78 181.32H564.52L483.95 93.7999Z" fill="#110239"/>
<path d="M511.27 93.7999H148.01V396.63H511.27V93.7999Z" fill="#FFD066"/>
<path d="M217 280.28H193.64V207.57H217V280.28Z" fill="white"/>
<path d="M265.18 207.57C290.02 207.57 303.33 219.09 303.33 243.92C303.33 268.76 290.01 280.28 265.18 280.28H233.69V207.57H265.18ZM257.04 225V262.84H264.75C275 262.84 279.44 257.02 279.44 247.09V240.75C279.44 230.81 275 225 264.75 225H257.04Z" fill="white"/>
<path d="M315.89 280.28V207.57H378.77V225H339.24V235.04H373.06V251.73H339.24V262.83H379.51V280.26H315.89V280.28Z" fill="white"/>
<path d="M465.63 280.28H440.9L437.84 270.03H412.37L409.31 280.28H385.42L411.95 207.57H439.11L465.63 280.28ZM424.94 227.86L417.22 253.75H432.97L425.36 227.86H424.94Z" fill="white"/>
<path d="M157.36 126.84L159.93 119.12H275.23L272.77 126.84H157.36Z" fill="#110239"/>
<path d="M143.65 167.94L146.25 160.14H262.16L259.68 167.94H143.65Z" fill="#110239"/>
<path d="M174.7 85.74L177.27 78.02H292.57L290.11 85.74H174.7Z" fill="#110239"/>
<path d="M129.8 209.48L132.43 201.6H248.96L246.45 209.48H129.8Z" fill="#110239"/>
<path d="M115.8 251.47L118.46 243.51H235.62L233.08 251.47H115.8Z" fill="#110239"/>
<path d="M101.65 293.92L104.33 285.86H222.13L219.56 293.92H101.65Z" fill="#110239"/>
<path d="M87.3401 336.83L90.0601 328.68H208.49L205.9 336.83H87.3401Z" fill="#110239"/>
<path d="M74.11 398.59H73.57C69.93 398.59 67.36 395.02 68.51 391.57L176.79 67.23C177.52 65.05 179.55 63.59 181.85 63.59H189.31L79.17 394.93C78.45 397.12 76.41 398.59 74.11 398.59Z" fill="#110239"/>
<path d="M191.39 398.59H190.8C187.19 398.59 184.62 395.08 185.72 391.63L289.25 67.29C289.96 65.08 292.01 63.58 294.33 63.58H294.44C298.05 63.58 300.62 67.09 299.52 70.53L196.47 394.87C195.77 397.08 193.71 398.59 191.39 398.59Z" fill="#110239"/>
<path d="M260.44 15.3799C260.5 15.5599 260.54 15.7299 260.61 15.9099C261.21 17.5199 261.85 19.1699 262.76 20.6299C263.31 21.5199 264.39 22.4199 264.82 23.2899C264.99 23.6399 265.19 23.9699 265.4 24.2799C263.99 26.3199 260.35 31.7299 259.46 34.0799C259.46 34.0799 252.58 30.3399 251.29 26.2899C251.3 26.2899 257.86 19.7099 260.44 15.3799Z" fill="#FCD4CA"/>
<path d="M258.85 29.0099C259.28 26.7599 259.04 24.2599 258.05 22.1699C257.71 21.4499 257.34 20.7799 256.92 20.1299C258.28 18.5099 259.58 16.8199 260.44 15.3799C260.5 15.5599 260.54 15.7299 260.61 15.9099C261.21 17.5199 261.85 19.1699 262.76 20.6299C263.31 21.5199 264.39 22.4199 264.82 23.2899C264.99 23.6399 265.19 23.9699 265.4 24.2799C263.99 26.3199 260.35 31.7299 259.46 34.0799C259.46 34.0799 258.28 33.4399 256.81 32.3999C257.84 31.5599 258.59 30.3899 258.85 29.0099Z" fill="#E8A393"/>
<path d="M239.73 150.29C239.73 150.29 239.94 158.08 241.16 159.15C242.38 160.21 257.88 160.68 259.21 159.26C260.54 157.84 259.76 155.45 256.43 154.52C252.86 153.53 251.12 154.5 248.88 153.57C246.64 152.64 247.24 149.12 247.24 149.12L239.73 150.29Z" fill="#110239"/>
<path d="M201.29 149.86C201.29 149.86 200.1 157.45 201.27 158.56C202.45 159.67 218.23 160.91 219.62 159.54C221.01 158.17 220.32 155.75 217.03 154.7C213.5 153.57 211.8 154.29 209.52 153.46C207.73 152.81 208.94 149.19 208.94 149.19L201.29 149.86Z" fill="#110239"/>
<path d="M212.75 106.18C212.41 84.62 214.87 69.8 215.99 62.86C218.57 62.96 221.15 63.18 223.73 64.36C228.46 66.51 233.22 68.58 237.97 70.65C234.11 78.63 225.66 104.7 224.64 110.15C223.37 116.93 209.19 151.54 209.19 151.54L200.61 150.46C200.75 144.89 212.78 108.05 212.75 106.18Z" fill="#729DE2"/>
<path d="M230.36 67.43C232.85 68.64 235.43 69.6 238.02 70.55C234.23 78.38 227.32 100.05 225.77 105.81C224.57 102.18 218.74 93.39 216.51 83.78C215.02 77.35 214.76 70.7 215.79 64.18C215.79 64.15 215.8 64.13 215.8 64.1C220.6 64.43 225.26 64.95 230.36 67.43Z" fill="#407AD8"/>
<path d="M223.94 66.2599C227.28 67.3899 233.37 69.0099 237.96 70.6499C241.16 78.7399 250.61 97.82 251.11 106.45C251.65 115.97 248.36 152.05 248.36 152.05H238.54C238.54 152.05 237.63 111.38 236.25 108.77C231.71 100.15 226.7 93.3299 223.86 87.9599C219.08 78.9699 217.46 73.1899 216.62 68.9799C216.25 67.1199 214.62 60.8899 217.78 58.9399C220.38 59.6899 221.14 65.3099 223.94 66.2599Z" fill="#729DE2"/>
<path d="M240.41 74.2999C240.41 74.2999 231.52 73.9199 224.45 69.8499C219.21 66.8299 216.42 65.46 214 62.28C214 62.28 229.56 37.1499 237.33 30.5299C245.1 23.9099 252.32 25.2499 252.32 25.2499C252.32 25.2499 256.08 30.5399 260.29 32.3799C260.29 32.3799 252.73 48.7299 249.44 55.1299C246.14 61.5299 240.41 74.2999 240.41 74.2999Z" fill="#F685C3"/>
<path d="M250.62 52.77C250.97 52.06 251.34 51.31 251.73 50.51C251.78 50.42 251.82 50.31 251.87 50.22C252.24 49.46 252.62 48.67 253.01 47.86C253.07 47.73 253.14 47.59 253.2 47.46C253.63 46.56 254.07 45.64 254.5 44.73C254.51 44.72 254.51 44.7 254.52 44.69C254.18 44.53 253.84 44.38 253.54 44.16C251.16 42.46 249.55 39.97 247.9 37.61C247.62 37.21 247.3 36.84 246.99 36.47C244.94 39.77 244.57 44.77 243.99 47.86C242.37 56.43 238.95 66.65 233.95 73.36C237.61 74.17 240.4 74.31 240.4 74.31C240.4 74.31 246.14 61.54 249.43 55.13C249.72 54.56 250.06 53.9 250.41 53.19C250.48 53.05 250.55 52.91 250.62 52.77Z" fill="#F35DAD"/>
<path d="M263.2 5.03992C263.2 5.03992 270.3 1.98992 273.45 5.11992C276.61 8.24992 278.28 10.6799 277.59 12.3599C276.91 14.0399 274.55 18.2499 274.26 20.3099C273.97 22.3699 274.31 25.7099 273.75 26.2699C273.19 26.8299 271.1 25.3699 270.78 25.5199C270.46 25.6699 265.65 29.0999 264.55 28.9399C263.46 28.7799 259.23 20.6599 259.9 17.8799C260.58 15.0999 259.95 8.17992 263.2 5.03992Z" fill="#FCD4CA"/>
<path d="M269.59 11.4999C269.9 11.8099 270.12 12.3799 270.34 12.6599C270.75 13.1799 271.22 13.6599 271.64 14.1699C272.48 15.2099 273.35 16.2299 274.62 16.7699C276.49 17.5599 277.27 15.7199 278.82 15.2999C279.57 15.0899 280.26 15.6999 281.09 15.4599C281.88 15.2399 282.64 14.5799 283.16 13.9699C284.47 12.4199 283.11 10.9799 282.19 9.6599C281.12 8.1199 281.7 7.2899 281.95 5.6799C282.57 1.6999 277.17 3.2499 275.56 1.4599C274.74 0.539904 274.29 -0.900094 272.96 -1.17009C271.8 -1.41009 270.67 -1.0401 269.55 -0.800098C268.39 -0.560098 268.11 -1.31009 267.06 -1.70009C266.29 -1.98009 265.18 -1.99009 264.36 -1.88009C262.52 -1.63009 260.53 -0.560096 259.6 1.0699C258.81 2.4599 259.2 3.9199 258.17 5.2099C257.35 6.2299 256.23 7.39991 255.92 8.71991C255.48 10.6399 256.88 12.1599 257.14 13.9599C257.39 15.6699 258.26 17.5099 259.86 18.3699C260.81 17.5599 262.08 15.9299 261.67 14.7599C261.51 14.2899 261.14 13.9099 260.99 13.0499C260.72 11.4799 262.94 10.0499 264.48 11.8299C265.41 12.8999 263.36 16.1999 264.92 16.7299C266.11 17.1399 266.33 14.7599 266.52 14.0599C266.78 13.1299 268.06 11.3199 269.16 11.3099C269.32 11.2899 269.47 11.3699 269.59 11.4999Z" fill="#110239"/>
<path d="M277.62 82.7599C278.07 82.7199 278.61 82.6199 278.77 82.6699C279.52 82.9199 280.77 82.5599 281.29 82.3599C282.48 81.9099 284.3 81.1199 285.53 81.3399C286.24 81.4699 290.52 82.4599 289.47 84.2099C289.33 84.4399 288.81 84.8099 288.66 84.7599C288.22 84.5999 286.99 84.1499 286.99 84.1499C286.99 84.1499 287.93 84.4899 288.13 84.6299C288.29 84.7499 288.61 84.8899 288.72 85.0599C288.95 85.4199 288.6 86.1999 288.23 86.3299C287.86 86.4599 287.58 86.0899 287.27 85.9199C287.28 85.9199 287.29 85.9299 287.29 85.9399C287.59 86.1699 288.23 86.3399 287.83 87.2399C287.38 88.2499 287.08 87.6099 286.65 87.4999C286.5 87.4599 286.34 87.3899 286.19 87.3199C286.35 87.4099 286.95 87.6999 287.07 87.8099C287.47 88.1699 286.59 89.3499 285.79 89.2499C285.3 89.1899 284.15 88.4899 283.88 88.5599C283.57 88.6499 283.21 88.6399 282.89 88.6699C281.92 88.7599 280.9 88.4999 280 88.0899C279.6 87.9099 278.8 87.5999 278.41 87.3799C277.42 86.8499 276.33 86.0099 276.03 85.7599C276.7 84.5099 277.75 84.1899 277.62 82.7599Z" fill="#FCD4CA"/>
<path d="M277.79 87.9099L281.92 81.7199C281.92 81.7199 270.8 66.2399 266.78 58.3199C262.76 50.3999 260.26 36.1099 255.97 33.8799C251.68 31.6499 246.3 32.6799 246.9 39.8399C247.5 46.9999 258.11 59.6599 259.93 63.3199C261.74 66.9699 275.6 85.5599 277.79 87.9099Z" fill="#F685C3"/>
<path d="M114.92 315.74C116.11 314.83 116.85 313.46 117.35 312C117.57 310.88 117.81 309.77 118.12 308.67C118.32 307.96 118.65 307.32 119.05 306.73C112.78 302.98 105.66 298.59 103.87 297.01C100.51 294.04 105.24 298.74 87.04 275.4L80.24 288.9C80.24 288.9 93.19 302.94 96.55 305.71C98.31 307.16 106.61 312.1 114.1 316.46C114.36 316.22 114.63 315.97 114.92 315.74Z" fill="#0273DB"/>
<path d="M114.92 315.74C116.11 314.83 116.85 313.46 117.35 312C117.57 310.88 117.81 309.77 118.12 308.67C118.13 308.63 118.15 308.6 118.16 308.57C116.95 309.17 115.47 309.25 113.93 308.43C110.14 306.39 106.42 304.41 103.02 302.03C100.97 300.79 99.03 299.32 97.22 297.61C94.06 294.62 90.94 291.48 88.26 288.06C86.83 286.23 84.84 284.76 83.18 283.08L80.24 288.91C80.24 288.91 93.19 302.95 96.55 305.72C98.31 307.17 106.61 312.11 114.1 316.47C114.36 316.22 114.63 315.97 114.92 315.74Z" fill="#0053BD"/>
<path d="M82.8301 404.36C82.8301 404.36 81.7001 407.66 81.6901 410.22C81.6801 412.77 81.8601 415.49 82.6501 416.13C84.2201 417.41 104.03 417.58 105.64 415.75C107.25 413.92 106.18 410.96 101.98 409.93C97.4801 408.83 96.8501 409.3 94.0201 408.23C91.1901 407.15 91.8701 403.97 91.8701 403.97L82.8301 404.36Z" fill="#110239"/>
<path d="M39.3699 400.64C39.3699 400.64 37.1299 403.32 36.2099 405.71C35.2899 408.09 34.4899 410.7 34.9999 411.57C36.0099 413.33 54.4599 420.54 56.6199 419.41C58.7799 418.27 58.8299 415.12 55.2699 412.67C51.4599 410.04 50.6999 410.26 48.4399 408.24C46.1799 406.23 47.9499 403.5 47.9499 403.5L39.3699 400.64Z" fill="#110239"/>
<path d="M82.71 320.15L56.01 323.12C56.01 323.12 79.89 361.29 81.69 367.42C83.5 373.55 81.02 406.87 81.02 406.87H93.11C93.11 406.87 95.71 367.52 95.11 364.55C94.52 361.58 82.71 320.15 82.71 320.15Z" fill="#E21983"/>
<path d="M81.6901 322.13H51.2101C51.2101 322.13 47.6501 331.47 49.2801 338.59C50.9101 345.71 52.0001 360.84 51.8501 363.51C51.7001 366.18 36.8201 401.78 36.8201 401.78L47.9201 405.91C47.9201 405.91 63.2201 371.97 64.7101 368.12C66.1901 364.25 81.6901 322.13 81.6901 322.13Z" fill="#E21983"/>
<path d="M80.3999 259.08C77.9099 259.25 75.3499 258.99 73.0399 258.5C72.1999 258.32 71.3399 258.02 70.5399 257.62C70.2799 260.68 69.4199 267.83 66.8799 270.52C66.8799 270.52 67.2299 274.13 73.5499 275.02C79.8799 275.91 81.1899 271.21 81.1899 271.21C81.1899 271.21 79.9699 263.59 80.3999 259.08Z" fill="#FCD4CA"/>
<path d="M66.9099 270.63C66.9199 270.69 66.9399 270.78 66.9799 270.89C66.9799 270.9 66.9899 270.91 66.9899 270.92C67.0299 271.03 67.0699 271.17 67.1399 271.31C67.1399 271.32 67.1499 271.32 67.1499 271.33C67.2199 271.48 67.3099 271.65 67.4199 271.82C67.4299 271.84 67.4499 271.87 67.4699 271.89C67.6999 272.25 68.0299 272.64 68.4999 273.03C68.5299 273.05 68.5499 273.07 68.5799 273.1C68.8099 273.29 69.0799 273.48 69.3799 273.66C69.4199 273.68 69.4599 273.71 69.4999 273.73C69.8199 273.91 70.1699 274.09 70.5699 274.25C70.9699 272.67 71.7699 271.17 72.9999 269.98C75.1599 267.87 77.8099 266.82 80.6499 266.72C80.3999 264.27 80.2099 261.3 80.4199 259.08C77.9299 259.25 75.3699 258.99 73.0599 258.5C72.2199 258.32 71.3599 258.02 70.5599 257.62C70.2999 260.68 69.4399 267.83 66.8999 270.52C66.8999 270.52 66.9099 270.56 66.9099 270.6C66.8999 270.6 66.8999 270.62 66.9099 270.63Z" fill="#E8A393"/>
<path d="M65.24 244.3C65.24 244.3 73.85 237.58 76.33 239.33C78.81 241.08 80.03 245 81.34 246.42C82.65 247.84 85.76 248.66 86.29 249.23C86.81 249.8 85.44 251.82 85.39 252.45C85.34 253.08 86.53 258.98 85.32 260.86C84.11 262.74 73.77 263.09 69.83 259.69C65.89 256.3 63.19 246.74 65.24 244.3Z" fill="#FCD4CA"/>
<path d="M81.2 270.14C81.2 270.14 73.76 273.84 67.72 269.39C67.72 269.39 56.22 271.4 54.81 271.97C53.64 272.45 56.72 288.82 55.38 297.05C54.05 305.28 48.71 325.23 48.71 325.23C48.71 325.23 62.8 336.06 86.98 329.23C86.98 329.23 87.77 301.26 87.51 293.49C87.13 282.12 87.05 275.39 87.05 275.39C87.05 275.39 84.27 272.57 81.2 270.14Z" fill="#0273DB"/>
<path d="M63.59 315.41C62.54 311.09 61.8 306.87 62.56 302.39C63.38 297.55 59.91 291.16 59.26 286.24C58.56 280.97 58.02 277.39 54.56 274.47C54.79 279.44 56.4 290.68 55.37 297.06C54.04 305.29 48.7 325.24 48.7 325.24C48.7 325.24 57.65 332.07 73.4799 331.43C67.2299 327.67 65.34 322.58 63.59 315.41Z" fill="#0053BD"/>
<path d="M28.97 345.08L63.5 381.54L147.14 305.35L113.3 269.24L28.97 345.08Z" fill="#F685C3"/>
<path d="M39.77 345.66L64.14 372.01L137.38 304.56L112.82 278.46L39.77 345.66Z" fill="white"/>
<path d="M121.5 297.29C123.31 301.23 121.58 305.89 117.63 307.7C113.69 309.51 109.03 307.78 107.22 303.83C105.41 299.89 107.14 295.23 111.09 293.42C115.04 291.62 119.7 293.35 121.5 297.29Z" fill="#F685C3"/>
<path d="M68.5999 346.68C70.4099 350.62 68.6799 355.28 64.7299 357.09C60.7899 358.9 56.1299 357.17 54.3199 353.22C52.5099 349.28 54.2399 344.62 58.1899 342.81C62.1299 341.01 66.7899 342.74 68.5999 346.68Z" fill="#F685C3"/>
<path d="M102 319.44C104.83 326.99 101 335.4 93.4501 338.22C85.9001 341.05 77.4901 337.22 74.6701 329.67C71.8401 322.12 75.6701 313.71 83.2201 310.89C90.7701 308.06 99.1801 311.89 102 319.44Z" fill="#F685C3"/>
<path d="M84.86 319.31C86.84 317.78 89.24 317.05 90.92 318.89L87.8501 321.69C87.2001 321.01 86.35 321.51 85.9 321.92C85.62 322.18 84.7 323.01 85.22 323.57C86.37 324.83 90.84 318.36 94.09 321.93C96.04 324.07 95.09 326.4 93.17 328.42L95.3801 330.58L93.5 332.29L91.53 329.89C89.44 331.43 86.84 332.15 85.09 330.23L88.16 327.43L88.22 327.5C89.01 328.33 90.11 327.64 90.59 327.2C91.06 326.78 91.9401 325.91 91.3801 325.3C90.1801 323.99 85.6101 330.35 82.4601 326.89C80.6401 324.9 81.49 322.72 83.25 320.82L81.04 318.63L82.92 316.92L84.86 319.31Z" fill="white"/>
<path d="M70.01 243.8C70.01 243.8 71.25 246.07 70.97 249.24C70.85 250.63 74.98 252.59 74.72 254.31C74.55 255.46 73.67 255.53 72.22 253.96C71.72 253.42 70.85 253.26 70.11 253.23C67.32 253.14 68.2 256.99 70.76 257.23C72.55 257.4 73.16 261.53 73.16 261.53C72.04 263.4 66.14 264 65.19 259.9C64.59 257.29 64.38 256.28 63.28 256.02C61.28 255.55 58.06 253.33 59.62 249.75C61.78 244.82 58.1 244.98 61.8 242.34C65.52 239.71 69.9 240.88 70.01 243.8Z" fill="#110239"/>
<path d="M61.93 244.59C61.81 243.6 62.97 241.81 63.54 240.9C64.41 239.49 65.62 238.34 66.99 237.35C68.36 236.36 69.96 235.66 71.61 235.35C73.04 235.08 74.39 235.23 75.82 234.85C77.14 234.5 78.37 233.95 78.96 232.85C79.57 233.58 80.22 235.25 80.34 235.87C80.6 237.17 80.22 238.58 79.93 239.95C79.12 243.68 74.39 247.43 69.98 247.37C67.85 247.34 65.95 247.34 64.43 246.1C63.54 245.37 62.97 245.08 61.93 244.59Z" fill="#110239"/>
<path d="M139.26 294.67C140.86 292.73 140.05 289.61 138.78 287.86C137.76 286.45 136.04 286.74 133.49 287.09C131.77 287.32 130.17 287.62 129.76 288.18C128.75 290.52 134.38 289.29 135.88 289.3C135.88 289.3 129.76 289.89 129.49 291.05C129.04 293.22 134.52 291.89 135.94 291.8C134.56 291.73 132.14 292.24 131.84 292.59C130.78 292.85 131.17 293.61 131.34 293.78C132.17 294.64 136.67 293.61 136.67 293.61C135.87 293.79 132.8 293.85 133.69 295C134.27 295.75 135.56 295.51 136.27 295.51C137.64 295.52 138.89 295.11 139.26 294.67Z" fill="#FCD4CA"/>
<path d="M61.0801 315.17C63.1701 315.08 65.7201 315.48 67.8701 315.48C68.8501 315.48 69.8701 315.34 70.8501 315.28C71.4701 315.24 72.7201 315.04 73.0801 315.72C73.4801 316.48 72.2401 316.74 71.7501 316.85C71.0501 317 69.5901 316.91 69.4501 317.85C69.2601 319.22 71.8201 319.59 72.8201 320.02C73.7501 320.43 76.2101 321.29 74.5901 322.2C73.5001 322.81 71.2201 321.42 70.2901 321.04C71.5001 321.38 72.5601 321.82 73.6501 322.44C74.2801 322.8 75.5201 323.3 75.5201 324.01C75.5201 325.05 73.2201 324.43 72.6601 324.18C71.3101 323.59 71.0401 323.44 70.1001 322.77C71.0601 323.28 74.6001 324.78 73.4501 326.01C72.7401 326.76 69.9801 324.65 68.8701 324.21C69.4801 324.77 71.2901 325.06 71.1401 326.25C71.0701 326.84 70.0401 326.37 69.5501 326.1C68.8601 325.72 68.2401 325.17 67.5401 324.84C66.9901 324.58 66.6301 324.26 66.0401 323.84C64.7901 322.95 63.6501 322.74 62.5701 321.58C61.5601 320.49 60.6101 319.4 59.5601 318.5C61.5901 317.75 59.5401 316.25 61.0801 315.17Z" fill="#FCD4CA"/>
<path d="M64.1399 314.62L61.1699 321.48C61.1699 321.48 30.5399 311.54 31.9799 303.5C33.2399 296.44 51.0599 272.78 54.9499 271.94C60.1699 270.8 62.2599 283.23 59.2599 286.25C52.9399 292.61 43.9199 301.55 44.6599 302.99C45.3999 304.42 64.1399 314.62 64.1399 314.62Z" fill="#0273DB"/>
<path d="M431.53 337.52C431.45 337.55 431.38 337.58 431.3 337.6C430.73 337.76 430.11 337.83 429.5 337.81C428.32 337.76 427.2 337.37 426.03 337.21C425.62 337.15 425.19 337.13 424.78 337.11C424.04 337.07 421.41 337.48 420.74 337.63C419.33 337.94 419.16 337.98 417.77 338.36C417.12 338.54 416.19 339.14 415.55 339.37C414.58 339.72 414.3 341.07 415 341.07C415.53 341.07 415.51 341.12 415.99 340.8C416.46 340.49 418.25 339.78 418.25 339.78C417.66 339.91 416.43 340.44 415.99 340.8C415.53 341.17 414.96 341.3 414.69 341.89C414.6 342.08 414.39 342.16 414.33 342.42C414.27 342.68 414.3 342.95 414.48 343.15C414.74 343.44 415.09 343.38 415.42 343.27C416.2 343.02 416.89 342.51 417.56 342.06C418.18 341.65 418.63 341 419.31 340.67C418.31 341.15 417.32 342.16 416.51 342.89C416.19 343.18 415.52 343.72 415.16 343.97C414.71 344.28 414.43 345.21 415.13 345.64C415.74 346.01 416.79 345.33 417.19 344.95C417.73 344.44 418.58 343.9 419.08 343.38C419.32 343.13 419.54 342.91 419.81 342.7C420.29 342.31 420.68 341.89 421.2 341.57C421.2 341.57 419.04 343.41 418.25 344.37C417.86 344.84 417.31 345.53 417.7 346.1C418.39 347.14 419.43 346.2 419.88 345.78C420.5 345.22 421.18 344.79 421.78 344.19C422.7 343.27 423.76 342.53 424.88 341.87C425.43 341.54 426.11 341.69 426.7 341.48C426.41 341.8 425.92 341.82 425.61 342.11C425.23 342.46 424.87 342.76 424.42 343.07C423.92 343.43 423.46 343.86 423.3 344.46C423.15 345.04 423.09 345.66 423.79 345.81C424.82 346.02 425.63 345.27 426.36 344.67C427.18 344.01 427.99 343.23 429.09 343.11C429.52 343.06 429.98 343.11 430.41 343.11C431.58 343.11 432.66 343.25 433.84 343.04C434.66 342.89 435.33 342.47 435.75 341.76C436.09 341.16 436.46 340.62 436.66 339.96C436.72 339.75 437.39 337.91 437.58 337.97C436.19 337.52 435.12 336.52 433.81 335.93C433.22 335.66 432.99 336.21 432.7 336.57C432.44 336.92 431.98 337.32 431.53 337.52Z" fill="#FCD4CA"/>
<path d="M431.47 335.48L435.99 343.39C435.99 343.39 456.78 334.46 461.22 330.39C465.66 326.32 470.02 316.05 471.42 305.78C472.24 299.79 465.58 299.32 465.58 299.32C461.74 305.44 454.25 321.62 453.41 322.82C452.58 324.03 431.47 335.48 431.47 335.48Z" fill="#E21983"/>
<path d="M491.22 422.59C491.22 422.59 492.43 426.11 492.44 428.84C492.45 431.56 492.25 434.46 491.42 435.15C489.75 436.52 468.61 436.7 466.89 434.74C465.17 432.79 466.32 429.63 470.79 428.54C475.59 427.37 477.88 428.74 480.9 427.59C483.92 426.44 481.57 422.18 481.57 422.18L491.22 422.59Z" fill="#110239"/>
<path d="M511.8 434.09C513.52 433.56 515.28 433.33 517.08 433.27C518.38 433.23 520.46 433.29 521.4 432.24C522.3 431.24 522.17 429.82 521.61 428.7C521.54 428.55 520.51 426.68 520.32 426.77L528.68 423.16C528.68 423.16 535.27 431.01 534.69 433.09C534.57 433.52 532.92 435.1 531.18 436.72C528.27 439.42 524.5 441.01 520.54 441.23C514.87 441.54 509.19 441.45 508.28 440.53C506.45 438.67 507.4 435.45 511.8 434.09Z" fill="#110239"/>
<path d="M507.4 334.65C507.4 334.65 518.03 341.13 516.36 353.89C514.69 366.66 511.09 382.99 511.97 386.32C512.85 389.65 531.63 424 531.63 424L521.07 429.89C521.07 429.89 498.79 393.73 497.68 389.84C496.57 385.95 496.11 362.84 496.11 362.84C496.11 362.84 483.02 384.88 482.33 387.93C481.64 390.98 492.81 424 492.81 424L481.57 426.05C481.57 426.05 466.33 392.15 467.21 386.46C467.76 382.9 481.09 348.62 481.09 348.62L507.4 334.65Z" fill="#0273DB"/>
<path d="M482.49 387.38C482.2 386.8 485.54 372.22 487.04 369.99C488.06 368.47 491.9 361.43 493.08 359.25C494.53 356.56 491.66 348.95 491.3 345.86C491.63 345.71 491.96 345.54 492.26 345.33C493.28 351.35 496.11 362.84 496.11 362.84C493.83 367.03 483.95 383.37 482.5 387.41V387.4C482.49 387.41 482.49 387.43 482.48 387.45C482.48 387.43 482.48 387.4 482.49 387.38Z" fill="#0053BD"/>
<path d="M472.02 285.02C472.02 285.02 476.03 293.78 479.2 295.48C479.2 295.48 475.47 302.13 467.12 299.78C467.12 299.78 467.44 296.37 464.61 288.91C464.6 288.91 470.12 287.37 472.02 285.02Z" fill="#FCD4CA"/>
<path d="M466.47 293.93C466.39 293.93 466.32 293.95 466.25 293.96C465.88 292.54 465.36 290.88 464.61 288.91C464.61 288.91 470.12 287.37 472.03 285.02C472.03 285.02 476.04 293.78 479.21 295.48C479.21 295.48 477.65 298.23 474.33 299.56C473.32 296.22 470.16 293.86 466.47 293.93Z" fill="#E8A393"/>
<path d="M464.71 268.13C464.71 268.13 458.55 268.58 457.86 271.09C457.17 273.6 457.02 273.09 456.87 274.84C456.72 276.59 456.65 277.92 455.66 279.83C454.68 281.74 454.42 282.75 456.68 282.95C456.68 282.95 457.48 282.84 457.14 283.65C456.8 284.46 454.83 289.32 458.97 290.94C463.11 292.56 471.75 288.4 472.33 285.58C472.92 282.76 474.31 276.29 472.39 272.35C470.47 268.4 466.37 267.91 464.71 268.13Z" fill="#FCD4CA"/>
<path d="M471.53 268.29C471.53 268.29 461.64 277.57 454.52 269.37C454.52 269.37 456.18 264.54 461.46 263.18C466.72 261.83 471.62 265.92 471.53 268.29Z" fill="#110239"/>
<path d="M457.13 283.05C463.31 283.33 464.93 281.28 466.44 276.66C467.95 272.04 466.69 271.21 466.69 271.21C463.68 268.88 464.14 267.17 464.14 267.17C464.06 264.04 466.59 262.42 469.48 262.4C472.66 262.38 476.45 263.63 477.36 266.91C477.88 268.77 477.17 269.78 477.75 270.92C478.41 272.22 479.58 272.93 480.27 274.3C481.39 276.52 479.95 278.82 479.53 280.27C479.02 282.01 479.13 281.84 479.15 284.17C479.18 286.73 475.23 288.26 472.52 286.04C472.16 287.87 466.87 291.94 464.85 292.61C460.14 294.18 455.96 292.25 455.63 289.47C455.3 286.71 457.13 283.05 457.13 283.05Z" fill="#110239"/>
<path d="M462.944 394.151C465.648 367.114 445.922 343.005 418.885 340.302C391.849 337.598 367.74 357.324 365.036 384.36C362.332 411.397 382.058 435.506 409.095 438.21C436.131 440.913 460.24 421.188 462.944 394.151Z" fill="#FFD066"/>
<path d="M442.401 417.64C458.085 401.956 458.085 376.529 442.401 360.846C426.718 345.162 401.29 345.162 385.607 360.846C369.924 376.529 369.924 401.957 385.607 417.64C401.29 433.323 426.718 433.323 442.401 417.64Z" fill="#FEAC1A"/>
<path d="M409.23 368.57C417.29 366.08 425.74 366.61 428.87 374.42L415.85 379.63C414.6 376.71 411.32 377.28 409.42 378.05C408.23 378.53 404.36 380.08 405.31 382.47C407.45 387.82 429.21 372.66 435.27 387.78C438.9 396.85 433.15 403.07 424.68 407.2L429.1 416.61L421.15 419.79L417.75 409.88C409.32 412.27 400.28 411.49 397.01 403.33L410.02 398.12L410.13 398.4C411.64 401.96 415.93 401.06 417.97 400.24C419.94 399.45 423.76 397.76 422.71 395.16C420.49 389.6 398.53 404.27 392.67 389.64C389.29 381.2 394.54 375.34 402.35 371.4L397.97 361.89L405.92 358.71L409.23 368.57Z" fill="#FFD066"/>
<path d="M440.44 343.8C440.14 343.96 439.85 344.07 439.53 344.16C438.96 344.33 438.38 344.53 437.78 344.59C437.26 344.64 436.7 344.58 436.16 344.59C435.35 344.61 434.54 344.55 433.74 344.39C432 344.04 430.6 343.58 428.81 343.5C428.69 343.49 428.57 343.49 428.44 343.49C426.32 343.47 424.29 343.77 422.3 344.51C421.37 344.86 419.84 345.3 419.96 346.57C420.02 347.14 420.46 347.23 420.95 347.21C421.84 347.17 422.95 346.9 423.77 346.57C424.77 346.17 426.64 345.2 426.64 345.2C426.64 345.2 424.87 345.82 424.11 346.34C423.62 346.68 423.26 346.85 422.89 347.11C422.36 347.47 421.57 347.8 421.45 348.46C421.34 349.03 421.33 349.5 421.97 349.74C422.73 350.03 424.13 349.38 424.77 348.98C425.38 348.61 428.13 346.81 429 346.44C428.13 346.82 425.82 348.44 425.43 348.73C424.96 349.09 424.47 349.39 424.16 349.91C423.84 350.44 423.98 351.24 424.66 351.37C425.28 351.48 425.94 351.29 426.51 351.13C427.57 350.81 428.52 350.21 429.45 349.62C430.3 349.07 431.08 348.29 432.06 347.97C431.5 348.16 430.49 348.86 430.05 349.2C429.11 349.94 428.07 350.61 427.84 350.99C427.57 351.42 427.74 352.58 428.71 352.55C429.23 352.54 429.84 352.34 430.27 352.14C430.84 351.87 431.42 351.6 431.97 351.3C432.93 350.78 433.46 349.99 434.62 349.94C435.48 349.9 436.35 350.14 437.14 350.48C437.68 350.71 438.2 351.01 438.77 351.12C439.05 351.18 439.35 351.22 439.64 351.27C441.45 351.59 443.43 350.87 444.75 349.65C445.17 349.27 445.45 348.79 445.83 348.38C446.09 348.09 447.08 347.44 447.1 347C447.11 346.71 446.27 345.93 446.06 345.72C445.61 345.26 445.28 344.75 444.89 344.26C444.4 343.66 444.02 343.07 443.39 342.59C443.12 342.39 443.14 342.39 442.8 342.52C442.56 342.61 442.31 342.7 442.07 342.81C441.49 343.07 441.01 343.5 440.44 343.8Z" fill="#FCD4CA"/>
<path d="M466.96 297.37C466.96 297.37 474.73 302.17 477 293.44C477 293.44 483.59 293.78 492.05 305.37C500.48 316.91 504.26 322.72 513.07 336.99C511.78 338.43 497.13 353.8 479.83 349.82C479.83 349.82 478.12 346.03 477.36 344.26C474.1 336.62 465.35 315.78 464.36 309.6C462.98 301 466.96 297.37 466.96 297.37Z" fill="#E21983"/>
<g opacity="0.32">
<path d="M472.11 320.39C471.31 316.41 473.66 295.16 480.95 300.39C485.07 303.34 485.92 310.48 484.67 317.07C483.1 325.38 481.16 332.98 477.14 343.83C475.45 339.98 472.56 333.28 470.02 326.78C471.66 325.32 472.66 323.12 472.11 320.39Z" fill="#D10056"/>
</g>
<path d="M439.25 343.11L443.76 351.57C443.76 351.57 469.9 341.12 474.25 337.12C478.59 333.12 489.09 301.43 478.82 298.1C468.55 294.77 465.99 327.82 463.74 329.85C461.5 331.9 439.25 343.11 439.25 343.11Z" fill="#E21983"/>
<path d="M29.5401 216.33H23.5701V210.36C23.5701 209.68 23.0201 209.13 22.3401 209.13H22.3201C21.6401 209.13 21.0901 209.68 21.0901 210.36V216.33H15.1201C14.4401 216.33 13.8901 216.88 13.8901 217.56V217.58C13.8901 218.26 14.4401 218.81 15.1201 218.81H21.0901V224.78C21.0901 225.46 21.6401 226.01 22.3201 226.01H22.3401C23.0201 226.01 23.5701 225.46 23.5701 224.78V218.81H29.5401C30.2201 218.81 30.7701 218.26 30.7701 217.58V217.56C30.7801 216.89 30.2201 216.33 29.5401 216.33Z" fill="white"/>
<path d="M597.29 10.4099H588.9V2.01991C588.9 1.05991 588.13 0.289917 587.17 0.289917H587.13C586.17 0.289917 585.4 1.05991 585.4 2.01991V10.4099H577.01C576.05 10.4099 575.28 11.1799 575.28 12.1399V12.1699C575.28 13.1299 576.05 13.8999 577.01 13.8999H585.4V22.2899C585.4 23.2499 586.17 24.0199 587.13 24.0199H587.17C588.13 24.0199 588.9 23.2499 588.9 22.2899V13.8999H597.29C598.25 13.8999 599.02 13.1299 599.02 12.1699V12.1399C599.02 11.1799 598.24 10.4099 597.29 10.4099Z" fill="white"/>
<path d="M409.19 49.04H404.06V43.91C404.06 43.33 403.59 42.85 403 42.85H402.98C402.4 42.85 401.92 43.32 401.92 43.91V49.04H396.79C396.21 49.04 395.73 49.51 395.73 50.1V50.12C395.73 50.7 396.2 51.18 396.79 51.18H401.92V56.31C401.92 56.89 402.39 57.37 402.98 57.37H403C403.58 57.37 404.06 56.9 404.06 56.31V51.18H409.19C409.77 51.18 410.25 50.71 410.25 50.12V50.1C410.24 49.51 409.77 49.04 409.19 49.04Z" fill="white"/>
<path d="M183.54 457.91H175.15V449.52C175.15 448.56 174.38 447.79 173.42 447.79H173.39C172.43 447.79 171.66 448.56 171.66 449.52V457.91H163.27C162.31 457.91 161.54 458.68 161.54 459.64V459.68C161.54 460.64 162.31 461.41 163.27 461.41H171.66V469.8C171.66 470.76 172.43 471.53 173.39 471.53H173.42C174.38 471.53 175.15 470.76 175.15 469.8V461.41H183.54C184.5 461.41 185.27 460.64 185.27 459.68V459.64C185.27 458.69 184.5 457.91 183.54 457.91Z" fill="white"/>
<path d="M665.41 180.18H659.94V174.71C659.94 174.09 659.44 173.58 658.81 173.58H658.79C658.17 173.58 657.66 174.09 657.66 174.71V180.18H652.19C651.57 180.18 651.06 180.68 651.06 181.31V181.33C651.06 181.95 651.56 182.46 652.19 182.46H657.66V187.93C657.66 188.55 658.16 189.06 658.79 189.06H658.81C659.43 189.06 659.94 188.56 659.94 187.93V182.46H665.41C666.03 182.46 666.54 181.96 666.54 181.33V181.31C666.54 180.68 666.03 180.18 665.41 180.18Z" fill="white"/>
<path d="M88.9 22.78H82.93V16.81C82.93 16.13 82.38 15.58 81.7 15.58H81.67C80.99 15.58 80.44 16.13 80.44 16.81V22.78H74.47C73.79 22.78 73.24 23.33 73.24 24.01V24.03C73.24 24.71 73.79 25.26 74.47 25.26H80.44V31.23C80.44 31.91 80.99 32.46 81.67 32.46H81.7C82.38 32.46 82.93 31.91 82.93 31.23V25.26H88.9C89.58 25.26 90.13 24.71 90.13 24.03V24.01C90.14 23.33 89.58 22.78 88.9 22.78Z" fill="white"/>
<path d="M551.88 323.31H545.91V317.34C545.91 316.66 545.36 316.11 544.68 316.11H544.66C543.98 316.11 543.43 316.66 543.43 317.34V323.31H537.46C536.78 323.31 536.23 323.86 536.23 324.54V324.56C536.23 325.24 536.78 325.79 537.46 325.79H543.43V331.76C543.43 332.44 543.98 332.99 544.66 332.99H544.68C545.36 332.99 545.91 332.44 545.91 331.76V325.79H551.88C552.56 325.79 553.11 325.24 553.11 324.56V324.54C553.11 323.86 552.56 323.31 551.88 323.31Z" fill="white"/>
</svg>
