<svg width="75" height="76" viewBox="0 0 75 76" fill="none" xmlns="http://www.w3.org/2000/svg">
<path d="M37.685 15.7243C38.325 16.3843 38.955 17.0343 39.595 17.6743C48.345 26.4343 57.095 35.1943 65.845 43.9443C66.105 44.2043 66.225 44.4543 66.225 44.8343C66.215 54.0143 66.215 63.2043 66.215 72.3843C66.215 73.0343 66.115 73.6443 65.685 74.1643C65.245 74.6943 64.685 74.9943 63.995 74.9943C58.865 75.0043 53.745 74.9943 48.615 74.9943C48.585 74.9943 48.555 74.9843 48.445 74.9543C48.445 74.7543 48.445 74.5343 48.445 74.3143C48.445 66.4243 48.445 58.5443 48.445 50.6543C48.445 49.4643 47.885 48.6843 46.855 48.4643C46.655 48.4243 46.435 48.4143 46.225 48.4143C40.515 48.4143 34.805 48.4143 29.095 48.4143C27.645 48.4143 26.815 49.2443 26.815 50.7243C26.815 58.5943 26.815 66.4643 26.815 74.3343C26.815 74.5443 26.815 74.7443 26.815 75.0043C26.585 75.0043 26.415 75.0043 26.235 75.0043C21.265 75.0043 16.305 75.0043 11.335 75.0043C9.68498 75.0043 8.77499 74.1043 8.77499 72.4443C8.77499 63.2143 8.77498 53.9743 8.78498 44.7443C8.78498 44.4943 8.93498 44.1843 9.12498 44.0043C18.495 34.6943 27.885 25.4043 37.265 16.1143C37.395 15.9843 37.515 15.8843 37.685 15.7243ZM37.635 26.4943C32.895 26.4943 29.035 30.3743 29.035 35.1143C29.035 39.8443 32.925 43.7243 37.665 43.7143C42.395 43.7043 46.265 39.8243 46.265 35.0843C46.255 30.3443 42.395 26.4943 37.635 26.4943Z" fill="#03396D"/>
<path d="M3.95498 43.3243C0.854985 42.1243 -0.945015 38.2443 0.514985 34.7843C0.734985 34.2543 1.19498 33.7943 1.60498 33.3643C4.13498 30.6943 6.63498 27.9943 9.24498 25.3943C17.125 17.5343 25.035 9.70427 32.945 1.88427C35.535 -0.675726 39.855 -0.615726 42.475 1.99427C46.845 6.34427 51.225 10.6843 55.565 15.0643C61.025 20.5643 66.455 26.1043 71.895 31.6343C72.485 32.2343 73.005 32.9043 73.585 33.5143C74.815 34.7843 75.135 36.3443 74.945 38.0143C74.695 40.2743 73.555 41.9843 71.575 43.1343C71.215 43.3443 70.995 43.3343 70.675 43.0143C60.235 32.5343 49.775 22.0743 39.305 11.6243C38.955 11.2743 38.475 10.9843 38.005 10.8543C37.285 10.6543 36.655 10.9543 36.115 11.4943C31.445 16.1343 26.755 20.7643 22.085 25.4043C16.155 31.2643 10.225 37.1343 4.30499 43.0043C4.19499 43.1143 4.06498 43.2243 3.95498 43.3243Z" fill="#03396D"/>
<path d="M44.485 52.6043C44.485 60.0543 44.485 67.4943 44.485 74.9643C40.035 74.9643 35.595 74.9643 31.125 74.9643C31.125 67.5243 31.125 60.0843 31.125 52.6043C35.565 52.6043 40.005 52.6043 44.485 52.6043Z" fill="#03396D"/>
<path d="M66.215 19.9543C66.005 19.7543 65.885 19.6443 65.765 19.5243C61.575 15.3243 57.385 11.1143 53.185 6.92427C52.885 6.62427 52.835 6.34427 52.965 5.97427C53.265 5.07427 54.065 4.42427 55.045 4.41427C58.045 4.39427 61.045 4.39427 64.045 4.41427C65.275 4.42427 66.215 5.36427 66.225 6.58427C66.225 10.9943 66.215 15.4043 66.215 19.9543Z" fill="#03396D"/>
<path d="M37.665 30.5843C40.155 30.5843 42.175 32.6143 42.175 35.1143C42.175 37.6043 40.125 39.6443 37.645 39.6243C35.155 39.6143 33.135 37.5743 33.135 35.0843C33.135 32.5943 35.155 30.5843 37.665 30.5843Z" fill="#03396D"/>
</svg>
