<svg width="120" height="120" viewBox="0 0 120 120" fill="none" xmlns="http://www.w3.org/2000/svg">
<path d="M119.995 112.528C118.832 112.838 117.675 113.392 116.507 113.414C110.998 113.51 105.478 113.296 99.9796 113.52C97.2383 113.632 96.0544 112.672 96.0064 109.84C102.651 109.84 109.291 109.84 116.192 109.84C116.192 88.3747 116.192 67.1117 116.192 45.646C108.95 45.646 101.707 45.646 94.0918 45.646C94.0918 66.0557 94.0918 86.5082 94.0918 107.329C91.4253 105.649 90.4866 103.862 90.4973 101.041C90.6093 69.7569 90.5667 38.473 90.5667 7.18368C90.5667 6.13839 90.5667 5.09311 90.5667 3.85583C70.1089 3.85583 49.9018 3.85583 29.3054 3.85583C29.3054 5.04511 29.3054 6.16506 29.3054 7.29034C29.3054 38.489 29.252 69.6822 29.3854 100.881C29.4014 104.033 28.1641 105.958 25.6415 107.851C25.6415 87.0255 25.6415 66.4504 25.6415 45.662C18.3032 45.662 11.1622 45.662 3.7865 45.662C3.7865 66.941 3.7865 88.2041 3.7865 109.755C10.5542 109.755 17.2686 109.755 23.9883 109.755C23.9403 112.662 22.7617 113.632 20.0204 113.52C14.5167 113.296 9.00227 113.504 3.49318 113.414C2.32523 113.392 1.16262 112.838 0 112.528C0 89.42 0 66.3064 0 43.1981C1.29061 42.7714 2.57589 42.0141 3.87716 41.9768C8.75694 41.8275 13.6474 41.9181 18.5325 41.9181C20.8151 41.9181 23.0976 41.9181 25.5829 41.9181C25.5829 40.5689 25.5829 39.6036 25.5829 38.6329C25.5829 27.3481 25.6202 16.0686 25.5509 4.78379C25.5402 2.75721 25.9882 1.13595 27.7321 0C49.2405 0 70.7542 0 92.2626 0C92.8492 1.57326 93.9265 3.13586 93.9425 4.71446C94.0865 16.1486 94.0918 27.5881 93.9638 39.0276C93.9372 41.4328 94.6785 42.0195 96.977 41.9715C103.355 41.8221 109.744 41.8488 116.128 41.9768C117.424 42.0035 118.709 42.7714 120 43.1981C119.995 66.3064 119.995 89.42 119.995 112.528Z" fill="white"/>
<path d="M29.8653 119.995C29.9773 117.963 30.1587 115.936 30.1907 113.904C30.228 111.542 31.4226 110.192 33.5505 109.36C38.057 107.606 42.5261 105.755 47.4112 103.782C49.4645 108.939 51.6617 114.47 53.8589 119.995C45.8646 119.995 37.865 119.995 29.8653 119.995Z" fill="white"/>
<path d="M65.5971 119.995C67.7997 114.523 70.0022 109.046 72.1301 103.755C77.1859 105.83 82.0977 107.707 86.8601 109.904C87.9108 110.39 88.8547 111.926 89.1054 113.136C89.5587 115.366 89.4627 117.707 89.596 120C81.5964 119.995 73.5967 119.995 65.5971 119.995Z" fill="white"/>
<path d="M56.5308 119.995C56.9255 117.472 57.3255 114.95 57.7468 112.278C55.2242 112.08 55.3149 110.198 55.5282 108.369C55.7895 106.123 57.5974 106.641 59.0427 106.577C59.576 106.555 60.1093 106.545 60.6426 106.577C61.9919 106.657 63.7518 106.123 64.0078 108.198C64.2265 109.947 64.5198 111.915 61.7839 112.331C62.3652 114.987 62.9145 117.488 63.4638 119.995C61.1546 119.995 58.8401 119.995 56.5308 119.995Z" fill="white"/>
<path d="M60.0027 33.5932C52.899 33.5932 45.79 33.5292 38.6863 33.6305C36.4037 33.6625 35.5184 32.9105 35.5664 30.5586C35.6891 24.7882 35.6731 19.0125 35.5718 13.2421C35.5344 11.1088 36.1904 10.1862 38.4356 10.1915C52.7337 10.2449 67.037 10.2449 81.3351 10.1969C83.5536 10.1915 84.2843 11.1142 84.2469 13.2527C84.1563 19.0232 84.1563 24.7989 84.2469 30.5693C84.2843 32.9052 83.3243 33.6625 81.0577 33.6305C74.034 33.5345 67.021 33.5932 60.0027 33.5932Z" fill="white"/>
<path d="M47.4592 76.6366C47.2726 69.5222 53.3736 64.5678 61.2773 65.2184C69.3623 65.8851 72.9408 69.6769 73.3674 78.0232C73.3887 78.4605 73.3941 78.9565 73.6021 79.3191C76.2259 83.8309 74.4287 87.7934 72.2475 91.8199C70.7115 94.6518 69.6236 97.729 68.093 100.561C67.4637 101.729 66.3597 102.891 65.1811 103.462C61.7946 105.105 58.2694 104.918 54.9469 103.185C53.9869 102.683 53.027 101.782 52.547 100.822C50.5631 96.897 48.7712 92.8759 46.8993 88.892C45.5073 85.9322 45.2193 83.0043 46.7393 79.9484C47.2246 78.9672 47.2299 77.7459 47.4592 76.6366Z" fill="white"/>
<path d="M71.9915 52.307C71.9915 49.1018 71.9115 46.1153 72.0608 43.1341C72.0875 42.5794 72.9994 41.6301 73.5381 41.6035C76.5299 41.4542 79.5271 41.5342 82.7643 41.5342C82.7643 45.1873 82.7643 48.6592 82.7643 52.307C79.2658 52.307 75.8526 52.307 71.9915 52.307Z" fill="white"/>
<path d="M47.4486 52.3337C43.8701 52.3337 40.4622 52.3337 36.889 52.3337C36.889 48.7925 36.889 45.3793 36.889 41.7421C40.3235 41.7421 43.7901 41.7421 47.4486 41.7421C47.4486 45.1873 47.4486 48.5898 47.4486 52.3337Z" fill="white"/>
<path d="M65.0851 52.323C61.5173 52.323 58.1041 52.323 54.5042 52.323C54.5042 48.8352 54.5042 45.4273 54.5042 41.7688C57.9334 41.7688 61.4053 41.7688 65.0851 41.7688C65.0851 45.1713 65.0851 48.5738 65.0851 52.323Z" fill="white"/>
<path d="M36.8144 72.2955C36.8144 68.7009 36.8144 65.3518 36.8144 61.7519C40.0996 61.7519 43.2994 61.7519 46.2113 61.7519C44.6273 65.0691 43.0008 68.4823 41.1768 72.2955C40.2329 72.2955 38.5423 72.2955 36.8144 72.2955Z" fill="white"/>
<path d="M82.9616 72.4075C81.511 72.4075 80.3858 72.4075 79.7085 72.4075C77.9859 68.7116 76.3699 65.2451 74.6474 61.5439C76.8339 61.5439 79.3511 61.4906 81.863 61.5973C82.247 61.6133 82.903 62.3546 82.9137 62.7705C83.0043 65.9437 82.9616 69.1169 82.9616 72.4075Z" fill="white"/>
<path d="M19.1298 54.0189C19.1298 56.0615 19.1298 57.9494 19.1298 60.1467C16.8846 60.1467 14.7887 60.2213 12.7034 60.088C12.2448 60.056 11.5088 59.3094 11.4608 58.8347C11.3008 57.2881 11.4022 55.7202 11.4022 54.0189C14.1594 54.0189 16.5753 54.0189 19.1298 54.0189Z" fill="white"/>
<path d="M108.161 60.0347C107.158 60.0827 106.289 60.152 105.419 60.1627C99.9102 60.2 99.7289 59.9547 100.897 54.0349C103.211 54.0349 105.563 54.0349 108.161 54.0349C108.161 55.9068 108.161 57.7948 108.161 60.0347Z" fill="white"/>
<path d="M19.1565 66.5677C19.1565 68.6743 19.1565 70.4875 19.1565 72.4554C16.6019 72.4554 14.1807 72.4554 11.5622 72.4554C11.5622 70.4982 11.5622 68.6156 11.5622 66.5677C14.09 66.5677 16.5113 66.5677 19.1565 66.5677Z" fill="white"/>
<path d="M11.5942 78.9565C14.1274 78.9565 16.5539 78.9565 19.1352 78.9565C19.1352 80.9137 19.1352 82.7323 19.1352 84.7642C16.6713 84.7642 14.25 84.7642 11.5942 84.7642C11.5942 82.871 11.5942 80.9884 11.5942 78.9565Z" fill="white"/>
<path d="M108.23 78.9565C108.23 80.9511 108.23 82.7643 108.23 84.7749C105.729 84.7749 103.313 84.7749 100.689 84.7749C100.689 82.8497 100.689 80.9671 100.689 78.9565C103.179 78.9565 105.537 78.9565 108.23 78.9565Z" fill="white"/>
<path d="M100.78 66.525C103.345 66.525 105.707 66.525 108.235 66.525C108.235 68.5356 108.235 70.4289 108.235 72.4661C105.739 72.4661 103.382 72.4661 100.78 72.4661C100.78 70.5462 100.78 68.6636 100.78 66.525Z" fill="white"/>
</svg>
