<svg width="132" height="36" viewBox="0 0 132 36" fill="none" xmlns="http://www.w3.org/2000/svg">
<path d="M49.2244 17.4744C49.2244 14.2344 49.1844 10.9944 49.2344 7.75444C49.2944 4.40444 50.9044 2.02444 53.9344 0.614444C54.8444 0.194444 55.8244 0.00444444 56.8244 0.00444444C63.4044 0.00444444 69.9844 -0.00555556 76.5644 0.00444444C80.6844 0.0144444 84.1244 3.44444 84.1444 7.56444C84.1644 14.1644 84.1744 20.7644 84.1444 27.3644C84.1244 31.5444 80.6644 34.9444 76.4744 34.9444C69.9744 34.9544 63.4844 34.9544 56.9844 34.9444C52.6444 34.9444 49.2444 31.5344 49.2344 27.1844C49.2144 23.9544 49.2244 20.7144 49.2244 17.4744ZM68.2144 28.2144C68.2144 28.0844 68.2144 27.9644 68.2144 27.8444C68.2144 24.5744 68.2144 21.3144 68.2044 18.0444C68.2044 17.7844 68.2744 17.7144 68.5344 17.7144C69.2944 17.7344 70.0544 17.7244 70.8044 17.7244C70.9744 17.7244 71.1344 17.7244 71.3144 17.7244C71.4444 16.3044 71.5744 14.9244 71.7044 13.5044C70.5744 13.5044 69.4844 13.5044 68.3944 13.5044C68.3844 13.4344 68.3744 13.4044 68.3644 13.3644C68.3644 12.8444 68.3544 12.3144 68.3644 11.7944C68.3844 11.1344 68.7144 10.8344 69.3744 10.8244C70.0344 10.8244 70.6844 10.8244 71.3444 10.8244C71.4444 10.8244 71.5444 10.8144 71.6544 10.8044C71.6544 9.64444 71.6544 8.50444 71.6544 7.37444C71.6544 7.33444 71.6444 7.28444 71.6344 7.24444C71.5944 7.23444 71.5744 7.21444 71.5444 7.21444C70.2344 7.22444 68.9244 7.17444 67.6144 7.27444C65.7744 7.41444 64.4744 8.56444 64.1245 10.3944C63.9545 11.2544 64.0044 12.1644 63.9644 13.0444C63.9544 13.1944 63.9644 13.3344 63.9644 13.5144C63.2444 13.5144 62.5744 13.5144 61.8944 13.5144C61.8944 14.9344 61.8944 16.3144 61.8944 17.7144C62.4944 17.7144 63.0744 17.7344 63.6544 17.7044C63.9344 17.6944 63.9944 17.7844 63.9944 18.0544C64.0044 21.3244 64.0044 24.5744 64.0044 27.8344C64.0044 27.9644 64.0044 28.0844 64.0044 28.2144C65.4244 28.2144 66.8044 28.2144 68.2144 28.2144Z" fill="#03396D"/>
<path d="M0.00444444 17.4844C0.00444444 14.2344 -0.00555556 10.9844 0.00444444 7.74444C0.0144444 4.03444 2.54444 0.924444 6.17444 0.174444C6.68444 0.0644445 7.21444 0.0244444 7.73444 0.0244444C14.2444 0.00444444 20.7444 0.00444444 27.2544 0.0144444C31.5044 0.0144444 34.9444 3.46444 34.9544 7.72444C34.9544 14.2244 34.9544 20.7144 34.9544 27.2144C34.9544 31.5244 31.5144 34.9544 27.2044 34.9544C20.7244 34.9544 14.2544 34.9544 7.77444 34.9544C3.43444 34.9544 0.0244444 31.5444 0.0144444 27.2044C0.00444444 23.9544 0.00444444 20.7244 0.00444444 17.4844ZM29.3744 17.4744C29.3744 15.7944 29.3844 14.1044 29.3744 12.4244C29.3544 8.57444 26.3744 5.59444 22.5244 5.58444C19.1644 5.57444 15.8044 5.57444 12.4444 5.58444C8.57444 5.59444 5.59444 8.58444 5.59444 12.4444C5.59444 15.8144 5.59444 19.1844 5.59444 22.5544C5.59444 26.3544 8.59444 29.3644 12.4044 29.3744C15.7944 29.3844 19.1844 29.3744 22.5744 29.3744C22.9244 29.3744 23.2644 29.3544 23.6044 29.2944C27.0044 28.7444 29.3644 25.9744 29.3844 22.5244C29.3744 20.8444 29.3744 19.1644 29.3744 17.4744Z" fill="#03396D"/>
<path d="M17.4544 27.3344C15.7744 27.3344 14.1044 27.3344 12.4244 27.3344C9.70444 27.3344 7.62444 25.2544 7.61444 22.5344C7.61444 19.1744 7.61444 15.8144 7.61444 12.4544C7.61444 9.71444 9.69444 7.64444 12.4344 7.63444C15.7944 7.63444 19.1544 7.63444 22.5144 7.63444C25.2444 7.63444 27.3144 9.71444 27.3144 12.4344C27.3144 15.7944 27.3144 19.1544 27.3144 22.5144C27.3144 25.2544 25.2444 27.3244 22.4944 27.3344C20.8244 27.3344 19.1444 27.3344 17.4544 27.3344ZM17.4444 23.5644C20.7944 23.5844 23.5444 20.8744 23.5644 17.5344C23.5844 14.1444 20.8944 11.4144 17.5044 11.3844C14.1744 11.3544 11.4044 14.0744 11.3744 17.4144C11.3544 20.7944 14.0644 23.5444 17.4444 23.5644ZM23.8344 12.5044C24.6444 12.5044 25.2944 11.8444 25.2944 11.0344C25.2944 10.2244 24.6244 9.56444 23.8244 9.57444C23.0144 9.57444 22.3644 10.2344 22.3644 11.0444C22.3744 11.8644 23.0144 12.5044 23.8344 12.5044Z" fill="#03396D"/>
<path d="M17.4844 13.4344C19.7044 13.4344 21.5244 15.2444 21.5344 17.4644C21.5344 19.7144 19.7144 21.5344 17.4644 21.5344C15.2344 21.5244 13.4344 19.7244 13.4344 17.4944C13.4244 15.2444 15.2344 13.4344 17.4844 13.4344Z" fill="#03396D"/>
<path d="M131.404 17.7144C131.404 22.1544 131.404 26.5944 131.404 31.0344C131.404 33.6444 129.874 35.1844 127.244 35.1844C118.344 35.1844 109.434 35.1844 100.534 35.1844C98.0145 35.1844 96.4544 33.6244 96.4544 31.0944C96.4544 22.1944 96.4544 13.2844 96.4544 4.38444C96.4544 1.76444 97.9845 0.234444 100.614 0.234444C109.494 0.234444 118.374 0.234444 127.254 0.234444C129.874 0.234444 131.404 1.77444 131.404 4.39444C131.404 8.83444 131.404 13.2744 131.404 17.7144ZM115.884 28.1744C115.884 27.8444 115.884 27.5844 115.884 27.3244C115.884 25.1144 115.864 22.9144 115.894 20.7044C115.904 20.1044 115.964 19.4844 116.134 18.9144C116.514 17.6544 117.564 17.0344 118.954 17.1444C120.084 17.2344 120.854 18.0044 121.054 19.2944C121.124 19.7744 121.164 20.2644 121.164 20.7444C121.174 22.9544 121.174 25.1544 121.174 27.3644C121.174 27.6244 121.174 27.8844 121.174 28.1544C122.734 28.1544 124.194 28.1544 125.684 28.1544C125.694 27.9644 125.714 27.8244 125.714 27.6844C125.714 24.6744 125.724 21.6644 125.704 18.6644C125.704 18.1344 125.634 17.5944 125.534 17.0744C125.104 14.8744 123.594 13.3844 121.464 13.0644C119.344 12.7444 117.524 13.2844 116.134 15.0044C116.084 15.0644 116.014 15.1044 115.824 15.2544C115.824 14.5544 115.824 14.0144 115.824 13.4744C114.344 13.4744 112.944 13.4744 111.524 13.4744C111.524 18.4044 111.524 23.2844 111.524 28.1844C112.994 28.1744 114.374 28.1744 115.884 28.1744ZM104.044 28.1544C105.574 28.1544 107.044 28.1544 108.524 28.1544C108.524 23.2344 108.524 18.3744 108.524 13.4644C107.014 13.4644 105.554 13.4644 104.044 13.4644C104.044 18.3644 104.044 23.2244 104.044 28.1544ZM108.974 8.75445C108.974 7.24444 107.754 6.03444 106.244 6.04444C104.764 6.05444 103.584 7.23444 103.574 8.73444C103.564 10.2544 104.754 11.4744 106.264 11.4844C107.754 11.4844 108.974 10.2644 108.974 8.75445Z" fill="#03396D"/>
</svg>
