<svg width="17" height="22" viewBox="0 0 17 22" fill="none" xmlns="http://www.w3.org/2000/svg">
<path d="M8.12 21.4101C7.34 20.3201 6.58 19.2701 5.85 18.2101C4.49 16.2301 3.21 14.2001 2.17 12.0301C1.69 11.0301 1.23 10.0101 1.07 8.90013C0.809995 7.16013 1.27 5.57013 2.24 4.13013C3.87 1.71013 6.87 0.530131 9.68999 1.17013C12.6 1.83013 14.77 4.16013 15.23 7.07013C15.44 8.38013 15.15 9.60013 14.67 10.7901C13.89 12.7101 12.88 14.5001 11.74 16.2201C10.63 17.8901 9.46 19.5301 8.32 21.1801C8.28 21.2401 8.22 21.2901 8.12 21.4101ZM8.16 4.71013C6.25999 4.70013 4.7 6.23013 4.69 8.13013C4.68 10.0401 6.21 11.6001 8.1 11.6201C10.02 11.6401 11.59 10.0901 11.6 8.19013C11.62 6.26013 10.09 4.72013 8.16 4.71013Z" fill="#03396D"/>
</svg>
