<svg width="17" height="17" viewBox="0 0 17 17" fill="none" xmlns="http://www.w3.org/2000/svg">
<path d="M0 8.44C0 6.17 0 3.9 0 1.63C0 1.45 0.01 1.26 0.06 1.08C0.2 0.49 0.68 0.1 1.33 0.02C1.43 0.01 1.53 0 1.63 0C3.36 0 5.09 0 6.82 0C7.03 0 7.26 0.04 7.46 0.1C8.09 0.3 8.42 0.77 8.44 1.48C8.44 1.52 8.44 1.56 8.44 1.6C8.44 6.16 8.44 10.73 8.44 15.29C8.44 15.46 8.43 15.64 8.38 15.81C8.24 16.4 7.75 16.8 7.08 16.88C6.97 16.89 6.87 16.9 6.76 16.9C5.05 16.9 3.34 16.9 1.62 16.9C1.33 16.9 1.05 16.85 0.79 16.72C0.32 16.49 0.07 16.11 0.01 15.6C0 15.48 0 15.37 0 15.25C0 12.98 0 10.71 0 8.44ZM7.53 1.92C5.32 1.92 3.11 1.92 0.9 1.92C0.9 6.09 0.9 10.26 0.9 14.44C3.11 14.44 5.32 14.44 7.53 14.44C7.53 10.27 7.53 6.1 7.53 1.92ZM4.22 14.98C3.87 14.98 3.58 15.27 3.58 15.62C3.58 15.97 3.87 16.26 4.22 16.26C4.57 16.26 4.86 15.97 4.86 15.61C4.86 15.26 4.57 14.98 4.22 14.98ZM4.22 1.15C4.47 1.15 4.71 1.15 4.96 1.15C5.1 1.15 5.16 1.09 5.16 0.97C5.16 0.83 5.1 0.78 4.95 0.77C4.46 0.77 3.96 0.77 3.47 0.77C3.32 0.77 3.26 0.83 3.27 0.97C3.27 1.1 3.33 1.15 3.48 1.15C3.73 1.15 3.97 1.15 4.22 1.15ZM2.94 0.99C2.94 0.97 2.94 0.95 2.94 0.93C2.88 0.89 2.83 0.83 2.77 0.82C2.69 0.81 2.63 0.87 2.63 0.96C2.63 1.05 2.69 1.11 2.77 1.1C2.84 1.09 2.89 1.03 2.94 0.99Z" fill="#03396D"/>
</svg>
