<svg width="18" height="18" viewBox="0 0 18 18" fill="none" xmlns="http://www.w3.org/2000/svg">
<path fill-rule="evenodd" clip-rule="evenodd" d="M9 17.1C13.4734 17.1 17.1 13.4734 17.1 9C17.1 4.52655 13.4734 0.9 9 0.9C4.52655 0.9 0.9 4.52655 0.9 9C0.9 13.4734 4.52655 17.1 9 17.1ZM9 18C13.9707 18 18 13.9707 18 9C18 4.0293 13.9707 0 9 0C4.0293 0 0 4.0293 0 9C0 13.9707 4.0293 18 9 18Z" fill="#03396D"/>
<path d="M3.59961 14.2337C3.59961 13.7688 3.94701 13.376 4.40961 13.3247C7.88136 12.9404 10.1336 12.975 13.5977 13.3332C13.7707 13.3514 13.9346 13.4196 14.0695 13.5294C14.2044 13.6392 14.3044 13.7859 14.3573 13.9516C14.4102 14.1173 14.4137 14.2948 14.3673 14.4625C14.321 14.6301 14.2268 14.7806 14.0963 14.8956C10.0081 18.4592 7.67166 18.4101 3.88761 14.8992C3.70311 14.7282 3.59961 14.4848 3.59961 14.2337Z" fill="#03396D"/>
<path fill-rule="evenodd" clip-rule="evenodd" d="M13.5521 13.7806C10.1155 13.4251 7.89564 13.3918 4.45944 13.772C4.34633 13.7852 4.24206 13.8396 4.16658 13.9249C4.09111 14.0102 4.04974 14.1203 4.05039 14.2342C4.05039 14.3629 4.10394 14.4848 4.19439 14.5694C6.06999 16.3091 7.49109 17.0953 8.88024 17.1002C10.2743 17.1052 11.7719 16.3253 13.8014 14.5568C13.8659 14.4994 13.9123 14.4245 13.935 14.3413C13.9578 14.258 13.9558 14.1699 13.9294 14.0877C13.903 14.0056 13.8533 13.9328 13.7863 13.8784C13.7193 13.8239 13.638 13.7897 13.5521 13.7806ZM4.36089 12.8774C7.86909 12.4891 10.1542 12.5242 13.6453 12.8855C13.9055 12.9127 14.1522 13.0151 14.3551 13.1803C14.558 13.3455 14.7083 13.5663 14.7877 13.8156C14.8671 14.0649 14.872 14.332 14.802 14.5841C14.7319 14.8362 14.5898 15.0624 14.3932 15.235C12.3344 17.0296 10.6199 18.007 8.87754 18.0002C7.13019 17.9939 5.49129 16.9999 3.58284 15.2291C3.4462 15.1018 3.33727 14.9478 3.26287 14.7765C3.18846 14.6052 3.15017 14.4205 3.15039 14.2337C3.14974 13.8982 3.27288 13.5743 3.49625 13.3239C3.71961 13.0736 4.02748 12.9149 4.36089 12.8774Z" fill="#03396D"/>
<path d="M12.6004 7.2001C12.6004 8.15488 12.2211 9.07055 11.546 9.74568C10.8708 10.4208 9.95517 10.8001 9.00039 10.8001C8.04561 10.8001 7.12994 10.4208 6.45481 9.74568C5.77968 9.07055 5.40039 8.15488 5.40039 7.2001C5.40039 6.24532 5.77968 5.32964 6.45481 4.65451C7.12994 3.97938 8.04561 3.6001 9.00039 3.6001C9.95517 3.6001 10.8708 3.97938 11.546 4.65451C12.2211 5.32964 12.6004 6.24532 12.6004 7.2001Z" fill="#03396D"/>
<path fill-rule="evenodd" clip-rule="evenodd" d="M9.00039 9.9001C9.71648 9.9001 10.4032 9.61563 10.9096 9.10929C11.4159 8.60294 11.7004 7.91618 11.7004 7.2001C11.7004 6.48401 11.4159 5.79726 10.9096 5.29091C10.4032 4.78456 9.71648 4.5001 9.00039 4.5001C8.28431 4.5001 7.59755 4.78456 7.0912 5.29091C6.58485 5.79726 6.30039 6.48401 6.30039 7.2001C6.30039 7.91618 6.58485 8.60294 7.0912 9.10929C7.59755 9.61563 8.28431 9.9001 9.00039 9.9001ZM9.00039 10.8001C9.95517 10.8001 10.8708 10.4208 11.546 9.74568C12.2211 9.07055 12.6004 8.15488 12.6004 7.2001C12.6004 6.24532 12.2211 5.32964 11.546 4.65451C10.8708 3.97938 9.95517 3.6001 9.00039 3.6001C8.04561 3.6001 7.12994 3.97938 6.45481 4.65451C5.77968 5.32964 5.40039 6.24532 5.40039 7.2001C5.40039 8.15488 5.77968 9.07055 6.45481 9.74568C7.12994 10.4208 8.04561 10.8001 9.00039 10.8001Z" fill="#03396D"/>
</svg>
