<svg width="120" height="121" viewBox="0 0 120 121" fill="none" xmlns="http://www.w3.org/2000/svg">
<path d="M107.775 65.625H84.375C81.2719 65.625 78.75 63.1031 78.75 60C78.75 56.25 78.75 52.5 78.75 48.75C77.7 47.2125 75.6375 44.6719 72.1875 43.125C71.1844 42.675 70.2375 42.3844 69.375 42.1875C68.4844 42.2062 66.0844 42.3656 63.75 44.0625C60.9844 46.0781 60.1969 48.9 60 49.6875C60 53.4375 60 57.1875 60 60.9375C60 63.525 57.9 65.625 55.3125 65.625H13.1625C5.89687 65.625 0 59.7281 0 52.4625V13.1625C0 5.89687 5.89687 0 13.1625 0H106.838C114.103 0 120 5.89687 120 13.1625V52.4625C120 59.7281 114.103 65.625 107.775 65.625Z" fill="white"/>
<path d="M105.937 75C105.019 73.275 103.209 72.1875 101.25 72.1875C99.2906 72.1875 97.4812 73.275 96.5625 75C95.8125 72.3656 93.5437 70.4906 90.9375 70.3125C87.4687 70.0781 85.3969 72.9937 85.3125 73.125C84.3 70.8094 82.0594 69.3281 79.6875 69.375C76.8562 69.4312 75.1969 71.6437 75 71.9062V52.0312C75 48.6656 72.2719 45.9375 68.9062 45.9375C65.5406 45.9375 62.8125 48.6656 62.8125 52.0312V78.75C61.8281 77.5125 60.0187 75.5719 57.1875 74.0625C54.9937 72.9 52.9687 72.4125 51.5625 72.1875C51.2344 72.1125 48.8719 71.5781 46.875 73.125C45.5906 74.1187 45.1406 75.4312 45 75.9375C44.9344 76.7344 44.8969 78.6094 45.9375 80.625C47.1281 82.9312 48.9937 84.0187 49.6875 84.375C53.0437 86.8875 57.7969 91.0969 61.875 97.5C64.7719 102.047 66.4781 106.35 67.5 109.687C68.5125 111.366 71.3437 115.584 76.875 118.125C81.2437 120.131 85.2094 120.131 87.1875 120C88.8844 119.662 90.8062 119.091 92.8125 118.125C100.294 114.506 103.753 107.812 105 105C105.422 101.147 105.741 97.0781 105.937 92.8125C106.228 86.4656 106.191 80.5125 105.937 75Z" fill="white"/>
<path d="M29.9639 32.6704V29.8579C30.4737 30.2856 31.0274 30.6079 31.6251 30.8247C32.2227 31.0356 32.8263 31.1411 33.4356 31.1411C33.793 31.1411 34.1036 31.1089 34.3673 31.0444C34.6368 30.98 34.8595 30.8921 35.0352 30.7808C35.2169 30.6636 35.3516 30.5288 35.4395 30.3765C35.5274 30.2183 35.5714 30.0483 35.5714 29.8667C35.5714 29.6206 35.5011 29.4009 35.3604 29.2075C35.2198 29.0142 35.0264 28.8354 34.7804 28.6714C34.5401 28.5073 34.253 28.3491 33.919 28.1968C33.585 28.0444 33.2247 27.8892 32.838 27.731C31.8536 27.3208 31.1182 26.8198 30.6319 26.228C30.1514 25.6362 29.9112 24.9214 29.9112 24.0835C29.9112 23.4272 30.043 22.8647 30.3067 22.396C30.5704 21.9214 30.9278 21.5317 31.379 21.2271C31.836 20.9224 32.3634 20.6997 32.961 20.5591C33.5587 20.4126 34.1915 20.3394 34.8595 20.3394C35.5157 20.3394 36.0958 20.3804 36.5997 20.4624C37.1095 20.5386 37.5782 20.6587 38.0059 20.8228V23.4507C37.795 23.3042 37.5636 23.1753 37.3116 23.064C37.0655 22.9526 36.8106 22.8618 36.547 22.7915C36.2833 22.7153 36.0196 22.6597 35.7559 22.6245C35.4981 22.5894 35.252 22.5718 35.0177 22.5718C34.6954 22.5718 34.4024 22.604 34.1388 22.6685C33.8751 22.7271 33.6524 22.812 33.4708 22.9233C33.2891 23.0347 33.1485 23.1694 33.0489 23.3276C32.9493 23.48 32.8995 23.6528 32.8995 23.8462C32.8995 24.0571 32.9552 24.2476 33.0665 24.4175C33.1778 24.5815 33.336 24.7397 33.5411 24.8921C33.7462 25.0386 33.9952 25.1851 34.2882 25.3315C34.5811 25.4722 34.9122 25.6187 35.2813 25.771C35.7852 25.9819 36.2364 26.2075 36.6348 26.4478C37.0391 26.6821 37.3848 26.9487 37.672 27.2476C37.9591 27.5464 38.1788 27.8892 38.3311 28.2759C38.4835 28.6567 38.5597 29.1021 38.5597 29.6118C38.5597 30.3149 38.4249 30.9067 38.1554 31.3872C37.8917 31.8618 37.5313 32.2485 37.0743 32.5474C36.6173 32.8403 36.0841 33.0513 35.4747 33.1802C34.8712 33.3091 34.2325 33.3735 33.5587 33.3735C32.8673 33.3735 32.2081 33.3149 31.5811 33.1978C30.96 33.0806 30.421 32.9048 29.9639 32.6704ZM41.7677 22.73C41.2989 22.73 40.9151 22.5923 40.6163 22.3169C40.3175 22.0356 40.168 21.6929 40.168 21.2886C40.168 20.8726 40.3175 20.5327 40.6163 20.269C40.9151 20.0054 41.2989 19.8735 41.7677 19.8735C42.2423 19.8735 42.6261 20.0054 42.919 20.269C43.2179 20.5327 43.3673 20.8726 43.3673 21.2886C43.3673 21.7104 43.2179 22.0562 42.919 22.3257C42.6261 22.5952 42.2423 22.73 41.7677 22.73ZM43.1388 33.1538H40.3614V24.1538H43.1388V33.1538ZM54.3009 32.1255C54.3009 33.7954 53.8175 35.0874 52.8507 36.0015C51.8839 36.9214 50.4835 37.3813 48.6495 37.3813C47.4366 37.3813 46.4757 37.2085 45.7667 36.8628V34.5249C46.6925 35.064 47.627 35.3335 48.5704 35.3335C49.5079 35.3335 50.2345 35.0845 50.7501 34.5864C51.2657 34.0942 51.5235 33.4233 51.5235 32.5737V31.8618H51.4884C50.8555 32.8696 49.921 33.3735 48.6847 33.3735C47.5362 33.3735 46.6251 32.9692 45.9513 32.1606C45.2774 31.3521 44.9405 30.2681 44.9405 28.9087C44.9405 27.3853 45.3155 26.1753 46.0655 25.2788C46.8155 24.3823 47.8028 23.9341 49.0274 23.9341C50.1231 23.9341 50.9434 24.356 51.4884 25.1997H51.5235V24.1538H54.3009V32.1255ZM51.5587 28.8296V28.1177C51.5587 27.5493 51.3888 27.0659 51.0489 26.6675C50.7149 26.2632 50.2784 26.061 49.7393 26.061C49.1241 26.061 48.6407 26.3013 48.2891 26.7817C47.9376 27.2622 47.7618 27.939 47.7618 28.812C47.7618 29.562 47.9288 30.1567 48.2628 30.5962C48.5968 31.0298 49.0538 31.2466 49.6339 31.2466C50.2081 31.2466 50.671 31.0269 51.0225 30.5874C51.38 30.1421 51.5587 29.5562 51.5587 28.8296ZM65.3136 33.1538H62.545V28.1528C62.545 26.7583 62.047 26.061 61.0509 26.061C60.5704 26.061 60.1749 26.2456 59.8643 26.6147C59.5538 26.9839 59.3985 27.4526 59.3985 28.021V33.1538H56.6212V24.1538H59.3985V25.5776H59.4337C60.0958 24.4819 61.0597 23.9341 62.3253 23.9341C64.3175 23.9341 65.3136 25.1704 65.3136 27.6431V33.1538ZM83.0411 27.6958C83.0411 31.481 81.2774 33.3735 77.7501 33.3735C74.3282 33.3735 72.6173 31.5249 72.6173 27.8276V20.5503H75.4649V27.8628C75.4649 29.9019 76.2618 30.9214 77.8555 30.9214C79.42 30.9214 80.2022 29.937 80.2022 27.9683V20.5503H83.0411V27.6958ZM88.3321 32.1079H88.297V37.2935H85.5196V24.1538H88.297V25.5073H88.3321C89.0177 24.4585 89.9815 23.9341 91.2237 23.9341C92.3897 23.9341 93.2891 24.3354 93.922 25.1382C94.5606 25.9351 94.88 27.022 94.88 28.3989C94.88 29.8989 94.5079 31.103 93.7638 32.0112C93.0255 32.9194 92.0411 33.3735 90.8106 33.3735C89.7266 33.3735 88.9005 32.9517 88.3321 32.1079ZM88.253 28.4165V29.1372C88.253 29.7583 88.4171 30.2651 88.7452 30.6577C89.0733 31.0503 89.504 31.2466 90.0372 31.2466C90.67 31.2466 91.1593 31.0034 91.505 30.5171C91.8565 30.0249 92.0323 29.3306 92.0323 28.4341C92.0323 26.8521 91.4171 26.061 90.1866 26.061C89.6182 26.061 89.1524 26.2778 88.7891 26.7114C88.4317 27.1392 88.253 27.7075 88.253 28.4165Z" fill="#03396D"/>
</svg>
