<svg width="75" height="76" viewBox="0 0 75 76" fill="none" xmlns="http://www.w3.org/2000/svg">
<path d="M75 19.1203C74.4 20.4003 73.8 21.6903 73.2 22.9703C72.94 23.5203 72.69 24.0803 72.4 24.6203C72.29 24.8303 72.1 25.0403 71.89 25.1503C70.12 26.0803 68.33 26.9903 66.55 27.9303C66.34 28.0403 66.14 28.2403 66.04 28.4503C62.21 36.3903 58.39 44.3403 54.56 52.2903C54.51 52.4003 54.46 52.5203 54.38 52.7003C56.13 52.7003 57.82 52.7003 59.56 52.7003C59.53 52.8803 59.55 53.0603 59.48 53.2003C58.84 54.5703 58.18 55.9403 57.53 57.3103C57.47 57.4303 57.42 57.5603 57.34 57.7403C57.88 57.7403 58.36 57.7403 58.87 57.7403C58.84 57.8603 58.84 57.9403 58.81 58.0103C58.43 58.8103 58.06 59.6003 57.65 60.3903C57.58 60.5203 57.39 60.6703 57.26 60.6703C52.66 60.6803 48.06 60.6803 43.46 60.6803C43.41 60.6803 43.35 60.6703 43.24 60.6603C43.7 59.7103 44.13 58.7903 44.6 57.8103C44.42 57.8003 44.29 57.7803 44.16 57.7803C32.41 57.7803 20.67 57.7803 8.92 57.7803C8.61 57.7803 8.29 57.8003 7.98 57.8403C6.35 58.0503 5.43 58.9103 5.1 60.5303C5.08 60.6103 5.07 60.6903 5.04 60.8003C3.39 60.7403 1.73 60.6903 0 60.6403C0.02 60.3603 0.03 60.0903 0.07 59.8303C0.66 55.9003 3.66 53.0803 7.6 52.7603C8.56 52.6803 9.53 52.6803 10.49 52.6803C18.33 52.6703 26.18 52.6803 34.02 52.6803C39.52 52.6803 45.03 52.6803 50.53 52.6903C50.87 52.6903 51.03 52.5903 51.17 52.2903C54.59 45.1603 58.02 38.0303 61.45 30.9103C61.51 30.7903 61.56 30.6603 61.61 30.5403C61.59 30.5103 61.56 30.4803 61.54 30.4503C61.01 30.7403 60.49 31.0303 59.96 31.3103C58.85 31.8903 57.71 32.4103 56.63 33.0503C55.57 33.6803 54.48 33.8603 53.26 33.8403C49.4 33.7903 45.54 33.8203 41.69 33.8203C41.55 33.8203 41.41 33.8203 41.2 33.8203C41.49 33.2303 41.74 32.7003 42.01 32.1703C42.34 31.5103 42.69 30.8603 43 30.1803C43.15 29.8503 43.33 29.7303 43.71 29.7303C47.01 29.7503 50.32 29.7503 53.62 29.7303C53.92 29.7303 54.24 29.6503 54.51 29.5203C60.18 26.6103 65.84 23.6903 71.51 20.7703C72.22 20.4003 72.96 20.0703 73.68 19.7103C74.1 19.5003 74.52 19.2703 74.94 19.0503C74.96 19.0803 74.98 19.1003 75 19.1203Z" fill="#03396D"/>
<path d="M22.17 17.7603C21.38 18.3103 20.63 18.8003 19.91 19.3303C19.79 19.4203 19.72 19.6603 19.72 19.8403C19.71 23.0403 19.72 26.2503 19.71 29.4503C19.71 30.8003 18.69 31.8003 17.39 31.7503C16.23 31.7103 15.27 30.7803 15.26 29.6103C15.24 25.8203 15.25 22.0403 15.25 18.2503C15.25 17.4203 15.68 16.8103 16.33 16.3603C18.78 14.6503 21.24 12.9503 23.71 11.2803C24.01 11.0703 24.42 10.9403 24.79 10.9203C25.8 10.8703 26.81 10.8203 27.82 10.9103C29.47 11.0503 30.81 12.5103 30.81 14.1603C30.83 18.9903 30.82 23.8103 30.82 28.6403C30.82 28.8003 30.82 28.9603 30.77 29.1103C30.6 29.6003 30.88 29.9303 31.19 30.2303C33.28 32.1903 35.37 34.1403 37.48 36.0903C38.11 36.6703 38.47 37.3503 38.57 38.1903C38.96 41.5303 39.37 44.8603 39.77 48.1903C39.97 49.8603 39.24 51.1303 37.84 51.5803C36.18 52.1203 34.39 51.0903 34.14 49.3603C33.84 47.3103 33.62 45.2403 33.37 43.1703C33.25 42.1403 33.14 41.1103 32.99 40.0803C32.96 39.8703 32.85 39.6403 32.7 39.5003C30.32 37.2303 27.93 34.9803 25.53 32.7203C25.43 32.6203 25.27 32.5503 25.13 32.5203C23.35 32.1703 22.21 30.8103 22.2 29.0003C22.19 26.1403 22.19 23.2803 22.2 20.4103C22.2 19.7103 22.25 19.0103 22.26 18.3203C22.27 18.1603 22.21 17.9903 22.17 17.7603Z" fill="#03396D"/>
<path d="M21.71 30.9203C21.86 31.1603 21.98 31.3603 22.12 31.5603C22.75 32.4603 23.6 33.0303 24.67 33.3103C25.36 33.4903 25.7 34.1303 26.19 34.5603C26.24 34.6003 26.17 34.8203 26.11 34.9403C25.08 37.0203 24.04 39.0903 23 41.1603C21.73 43.6903 20.47 46.2203 19.2 48.7503C19.09 48.9703 18.98 49.1803 18.87 49.4003C18.11 50.8503 16.44 51.4303 15.02 50.7203C13.58 50.0003 13.01 48.3103 13.74 46.8303C14.53 45.2103 15.36 43.6003 16.16 41.9803C17.93 38.4403 19.7 34.9003 21.47 31.3703C21.54 31.2303 21.61 31.0903 21.71 30.9203Z" fill="#03396D"/>
<path d="M33.71 5.21028C33.7 8.09028 31.36 10.4003 28.47 10.3903C25.64 10.3803 23.33 8.04028 23.32 5.20028C23.31 2.34028 25.69 -0.0297183 28.55 0.000281718C31.41 0.0202817 33.72 2.35028 33.71 5.21028Z" fill="#03396D"/>
<path d="M31.72 19.3703C32.35 19.8803 32.92 20.3403 33.49 20.8003C35.81 22.6803 38.13 24.5703 40.44 26.4603C41.71 27.5003 41.61 29.4203 40.2 30.1603C39.42 30.5603 38.6 30.6303 37.67 29.8803C35.81 28.3703 33.93 26.8903 32.05 25.4003C31.79 25.2003 31.69 24.9803 31.69 24.6503C31.71 23.0903 31.69 21.5203 31.69 19.9603C31.69 19.7903 31.71 19.6203 31.72 19.3703Z" fill="#03396D"/>
</svg>
