<svg width="75" height="76" viewBox="0 0 75 76" fill="none" xmlns="http://www.w3.org/2000/svg">
<path d="M55.9227 34.17C55.9227 44.16 55.9327 54.14 55.9227 64.13C55.9227 67.33 55.2027 68.06 52.0027 68.07C40.9127 68.08 29.8127 68.08 18.7227 68.07C15.5427 68.07 14.7027 67.21 14.7027 63.96C14.7027 43.99 14.6927 24.02 14.7027 4.05C14.7027 0.85 15.5627 0 18.7927 0C29.8827 0 40.9827 0 52.0727 0C55.0827 0 55.9127 0.81 55.9227 3.79C55.9327 13.92 55.9227 24.04 55.9227 34.17ZM50.7427 5.22C40.3727 5.22 30.1627 5.22 19.9827 5.22C19.9827 22.2 19.9827 39.01 19.9827 55.91C30.3127 55.91 40.4727 55.91 50.7427 55.91C50.7427 38.98 50.7427 22.16 50.7427 5.22ZM38.7127 61.86C38.6627 60.05 37.1527 58.63 35.3027 58.65C33.3527 58.67 31.9327 60.19 32.0427 62.16C32.1427 63.98 33.7027 65.42 35.4927 65.32C37.2627 65.23 38.7727 63.61 38.7127 61.86Z" fill="#03396D"/>
<path d="M5.29267 67.66C3.71267 63.39 2.34267 59.47 2.45267 55C2.70267 44.47 2.53267 33.93 2.53267 23.39C2.53267 22.63 2.53267 21.88 2.53267 20.98C1.72267 20.88 1.00267 20.79 0.0626658 20.67C0.0626658 17.91 -0.107334 15.15 0.112666 12.42C0.322666 9.77 5.10267 7.24 7.31267 8.59C7.91267 8.96 8.22267 10.23 8.22267 11.09C8.28267 22.46 8.26267 33.83 8.26267 45.2C8.26267 48.81 8.26267 52.41 8.26267 56.02C8.26267 59.99 7.41267 63.42 5.29267 67.66Z" fill="#03396D"/>
<path d="M74.9827 32.61C74.9827 36.89 75.0727 41.04 74.8927 45.18C74.8627 45.85 73.7427 46.66 72.9427 47.06C72.3427 47.36 71.4627 47.12 70.4127 47.12C70.4127 47.98 70.4127 48.71 70.4127 49.45C70.4127 54.79 70.3827 60.14 70.4227 65.48C70.4327 67.2 69.7527 68.05 67.9827 68.07C66.1427 68.1 65.3427 67.32 65.3627 65.45C65.4227 60.18 65.3827 54.9 65.3827 49.63C65.3827 48.88 65.3827 48.13 65.3827 47.48C65.0827 47.31 64.9727 47.19 64.8527 47.19C60.3927 47.19 60.7927 46.52 60.8027 42.86C60.8127 39.48 60.8027 36.09 60.8027 32.61C65.5627 32.61 70.1227 32.61 74.9827 32.61Z" fill="#03396D"/>
<path d="M72.3927 30.96C69.4027 30.96 66.4627 30.96 63.4127 30.96C63.4127 27.86 63.4127 24.85 63.4127 21.73C66.4227 21.73 69.3527 21.73 72.3927 21.73C72.3927 24.82 72.3927 27.82 72.3927 30.96ZM66.9927 26.08C66.9927 25.28 66.9927 24.58 66.9927 23.73C66.1627 23.77 65.4627 23.8 64.6327 23.84C64.6927 24.71 64.7327 25.36 64.7827 26.08C65.5927 26.08 66.2327 26.08 66.9927 26.08ZM71.3027 26.1C71.2527 25.19 71.2227 24.53 71.1927 23.85C70.3727 23.85 69.7127 23.85 68.8727 23.85C68.9127 24.68 68.9427 25.38 68.9727 26.1C69.8227 26.1 70.4327 26.1 71.3027 26.1Z" fill="#03396D"/>
</svg>
