<svg width="75" height="76" viewBox="0 0 75 76" fill="none" xmlns="http://www.w3.org/2000/svg">
<path d="M56.33 65.04C43.78 65.04 31.23 65.04 18.67 65.04C17.42 64.33 17.04 63.27 17.04 61.83C17.08 42.29 17.08 22.75 17.04 3.21C17.04 1.78 17.41 0.71 18.67 0C31.22 0 43.77 0 56.33 0C57.59 0.71 57.96 1.78 57.96 3.21C57.92 22.75 57.92 42.29 57.96 61.83C57.96 63.27 57.58 64.33 56.33 65.04ZM51.97 44.03C51.97 36.16 45.51 29.62 37.68 29.58C29.63 29.54 23.04 36.03 23.04 44C23.04 51.91 29.61 58.49 37.49 58.47C45.45 58.44 51.96 51.95 51.97 44.03ZM37.48 6.49C32.99 6.51 29.33 10.14 29.35 14.57C29.37 18.95 33.17 22.72 37.52 22.67C41.95 22.62 45.67 18.89 45.65 14.53C45.63 10.09 41.96 6.47 37.48 6.49Z" fill="#03396D"/>
<path d="M75 46.68C74.28 49.19 73.6 51.72 72.84 54.22C72.47 55.41 71.6 56.13 70.35 55.55C69.09 54.97 69.22 53.87 69.72 52.76C72.3 47.1 72 41.43 69.75 35.76C69.6 35.38 69.44 34.99 69.33 34.6C69.06 33.6 69.4 32.81 70.35 32.46C71.3 32.11 72.18 32.47 72.5 33.44C73.29 35.83 73.98 38.26 74.68 40.67C74.84 41.21 74.89 41.77 74.99 42.32C75 43.78 75 45.23 75 46.68Z" fill="#03396D"/>
<path d="M0 42.32C0.73 39.55 1.38 36.74 2.24 34.01C2.73 32.45 3.73 31.98 4.76 32.52C6.03 33.18 5.87 34.22 5.4 35.31C2.91 41.21 2.66 47.11 5.39 53.01C5.91 54.14 5.67 55.09 4.51 55.57C3.37 56.03 2.55 55.4 2.21 54.36C1.42 51.92 0.73 49.45 0 46.99C0 45.44 0 43.88 0 42.32Z" fill="#03396D"/>
<path d="M7.75 44.23C8.26 41.84 8.74 39.41 9.3 37.01C9.59 35.76 10.43 35.06 11.71 35.54C12.94 35.99 12.93 37.01 12.55 38.13C11.22 42.07 11.07 46.04 12.4 50.02C12.76 51.09 12.77 52.16 11.48 52.59C10.15 53.03 9.37 52.26 9.1 51.04C8.6 48.84 8.21 46.6 7.75 44.23Z" fill="#03396D"/>
<path d="M67.28 44.31C66.79 46.71 66.36 48.98 65.84 51.24C65.58 52.35 64.81 52.94 63.64 52.62C62.41 52.29 62.22 51.32 62.56 50.28C63.91 46.14 63.8 42.04 62.35 37.95C61.99 36.92 62.18 35.91 63.34 35.53C64.55 35.13 65.39 35.75 65.67 36.93C66.25 39.37 66.75 41.84 67.28 44.31Z" fill="#03396D"/>
<path d="M37.49 32.35C43.94 32.36 49.19 37.58 49.18 43.97C49.18 50.44 43.85 55.75 37.4 55.7C31 55.65 25.8 50.4 25.8 43.96C25.8 37.57 31.06 32.34 37.49 32.35ZM37.49 48.31C39.87 48.31 41.86 46.35 41.85 44C41.84 41.65 39.86 39.66 37.5 39.65C35.15 39.64 33.15 41.63 33.14 43.99C33.13 46.35 35.11 48.31 37.49 48.31Z" fill="#03396D"/>
<path d="M37.39 20.58C33.96 20.55 31.34 17.85 31.4 14.41C31.45 11.18 34.14 8.49 37.36 8.47C40.71 8.44 43.56 11.23 43.55 14.53C43.54 17.9 40.79 20.61 37.39 20.58ZM37.52 17.09C38.88 17.08 40.1 15.87 40.09 14.52C40.08 13.17 38.86 11.98 37.49 11.99C36.11 12 34.91 13.2 34.92 14.55C34.93 15.91 36.16 17.1 37.52 17.09Z" fill="#03396D"/>
</svg>
