<svg width="17" height="18" viewBox="0 0 17 18" fill="none" xmlns="http://www.w3.org/2000/svg">
<path d="M6.31747 6.75006C6.4938 6.24881 6.84184 5.82614 7.29994 5.55691C7.75804 5.28768 8.29665 5.18926 8.82036 5.27909C9.34407 5.36893 9.81909 5.6412 10.1613 6.04771C10.5035 6.45421 10.6908 6.9687 10.69 7.50006C10.69 9.00006 8.43997 9.75006 8.43997 9.75006M8.5 12.75H8.5075M16 9C16 13.1421 12.6421 16.5 8.5 16.5C4.35786 16.5 1 13.1421 1 9C1 4.85786 4.35786 1.5 8.5 1.5C12.6421 1.5 16 4.85786 16 9Z" stroke="black" stroke-width="2" stroke-linecap="round" stroke-linejoin="round"/>
</svg>
